<?xml version="1.0" standalone="no"?>
<!DOCTYPE svg PUBLIC "-//W3C//DTD SVG 1.1//EN" "http://www.w3.org/Graphics/SVG/1.1/DTD/svg11.dtd" >
<svg xmlns="http://www.w3.org/2000/svg" xmlns:xlink="http://www.w3.org/1999/xlink" version="1.1">
<metadata>
Created by FontForge 20170731 at Thu Sep 24 14:14:00 2020
 By Aleksey,,,
Copyright (c) 2008 - 2009 Linotype GmbH, www.linotype.com. All rights reserved. This font software may not be reproduced, modified, disclosed or transferred without the express written approval of Linotype GmbH.
</metadata>
<defs>
<font id="DINNextLTPro-Light" horiz-adv-x="1089" >
  <font-face 
    font-family="DIN Next LT Pro Light"
    font-weight="300"
    font-stretch="normal"
    units-per-em="2048"
    panose-1="2 11 3 3 2 2 3 5 2 3"
    ascent="1536"
    descent="-512"
    x-height="977"
    cap-height="1393"
    bbox="-299.133 -436 2017 1872"
    underline-thickness="102"
    underline-position="-307"
    unicode-range="U+0020-FB04"
  />
<missing-glyph horiz-adv-x="962" 
d="M0 20v1352q0 21 20 21h922q9 0 15 -6t6 -15v-1352q0 -20 -21 -20h-922q-20 0 -20 20zM80 88q0 -12 12 -12h778q13 0 13 12v1217q0 12 -13 12h-778q-12 0 -12 -12v-1217zM440 459q-20 0 -20 20v49q0 82 45 138l76 98q45 54 60 88t15 76q0 64 -41 103.5t-106 39.5
q-128 0 -158 -137q-3 -19 -24 -16l-43 8q-20 3 -17 22q18 91 83 147t161 56q102 0 165.5 -63.5t63.5 -159.5q0 -57 -17.5 -99.5t-59.5 -93.5l-76 -98q-26 -32 -33.5 -53.5t-7.5 -59.5v-45q0 -20 -21 -20h-45zM410 252v80q0 20 20 20h64q20 0 20 -20v-80q0 -21 -20 -21h-64
q-20 0 -20 21z" />
    <glyph glyph-name="IJ" unicode="IJ" horiz-adv-x="1472" 
d="M193 20v1352q0 21 20 21h76q20 0 20 -21v-1352q0 -20 -20 -20h-76q-20 0 -20 20zM584 94q-16 16 -2 29l55 51q14 14 31 0q42 -35 100 -59.5t119 -24.5q137 0 213 80t76 248v954q0 21 20 21h76q20 0 20 -21v-954q0 -218 -107.5 -328t-299.5 -110q-87 0 -168 32t-133 82z
" />
    <glyph glyph-name="ij" unicode="ij" horiz-adv-x="974" 
d="M289 1237h-90q-21 0 -21 20v115q0 9 6 15t15 6h90q20 0 20 -21v-115q0 -20 -20 -20zM279 0h-70q-21 0 -21 20v936q0 9 6 15t15 6h70q20 0 20 -21v-936q0 -20 -20 -20zM776 1237h-90q-20 0 -20 20v115q0 21 20 21h90q9 0 15 -6t6 -15v-115q0 -20 -21 -20zM535 -369h-23
q-20 0 -20 21v65q0 21 20 21h18q85 0 115.5 30t30.5 119v1069q0 21 20 21h70q20 0 20 -21v-1067q0 -142 -57.5 -200t-193.5 -58z" />
    <glyph glyph-name="napostrophe" unicode="&#x22;n" horiz-adv-x="1107" 
d="M82 1096q-19 0 -19 20v256q0 9 6 15t15 6h76q20 0 20 -21v-98q0 -23 -10 -43l-66 -117q-9 -18 -22 -18zM911 0h-69q-21 0 -21 20v578q0 293 -256 293q-115 0 -190.5 -74t-75.5 -199v-598q0 -20 -20 -20h-70q-21 0 -21 20v936q0 9 6 15t15 6h70q20 0 20 -21v-116h2
q37 73 112.5 115t176.5 42q163 0 252.5 -97t89.5 -275v-605q0 -20 -21 -20z" />
    <glyph glyph-name="f_f" unicode="ff" horiz-adv-x="1261" 
d="M311 0h-69q-21 0 -21 20v846q0 13 -12 13h-105q-20 0 -20 20v57q0 21 20 21h105q12 0 12 12v105q0 172 60.5 235.5t212.5 63.5h57q20 0 20 -21v-65q0 -21 -20 -21h-43q-112 0 -144 -33.5t-32 -144.5v-119q0 -12 12 -12h207q20 0 20 -21v-57q0 -20 -20 -20h-207
q-12 0 -12 -13v-846q0 -20 -21 -20zM942 0h-70q-20 0 -20 20v846q0 13 -12 13h-105q-20 0 -20 20v57q0 21 20 21h105q12 0 12 12v105q0 172 60 235.5t212 63.5h58q20 0 20 -21v-65q0 -21 -20 -21h-43q-112 0 -144 -33.5t-32 -144.5v-119q0 -12 12 -12h207q20 0 20 -21v-57
q0 -20 -20 -20h-207q-12 0 -12 -13v-846q0 -20 -21 -20z" />
    <glyph glyph-name="fi" unicode="fi" horiz-adv-x="1118" 
d="M311 0h-69q-21 0 -21 20v846q0 13 -12 13h-105q-20 0 -20 20v57q0 21 20 21h105q12 0 12 12v105q0 172 60.5 235.5t212.5 63.5h57q20 0 20 -21v-65q0 -21 -20 -21h-43q-112 0 -144 -33.5t-32 -144.5v-119q0 -12 12 -12h207q20 0 20 -21v-57q0 -20 -20 -20h-207
q-12 0 -12 -13v-846q0 -20 -21 -20zM920 1237h-91q-20 0 -20 20v115q0 21 20 21h91q20 0 20 -21v-115q0 -20 -20 -20zM909 0h-69q-21 0 -21 20v936q0 9 6 15t15 6h69q9 0 15 -6t6 -15v-936q0 -20 -21 -20z" />
    <glyph glyph-name="fl" unicode="fl" horiz-adv-x="1167" 
d="M311 0h-69q-21 0 -21 20v846q0 13 -12 13h-105q-20 0 -20 20v57q0 21 20 21h105q12 0 12 12v105q0 172 60.5 235.5t212.5 63.5h57q20 0 20 -21v-65q0 -21 -20 -21h-43q-112 0 -144 -33.5t-32 -144.5v-119q0 -12 12 -12h207q20 0 20 -21v-57q0 -20 -20 -20h-207
q-12 0 -12 -13v-846q0 -20 -21 -20zM1067 -6h-47q-110 0 -156.5 53.5t-46.5 175.5v1149q0 9 6 15t15 6h69q9 0 15 -6t6 -15v-1145q0 -71 24 -99t80 -28h35q20 0 20 -20v-66q0 -20 -20 -20z" />
    <glyph glyph-name="f_f_i" unicode="ffi" horiz-adv-x="1748" 
d="M311 0h-69q-21 0 -21 20v846q0 13 -12 13h-105q-20 0 -20 20v57q0 21 20 21h105q12 0 12 12v105q0 172 60.5 235.5t212.5 63.5h57q20 0 20 -21v-65q0 -21 -20 -21h-43q-112 0 -144 -33.5t-32 -144.5v-119q0 -12 12 -12h207q20 0 20 -21v-57q0 -20 -20 -20h-207
q-12 0 -12 -13v-846q0 -20 -21 -20zM942 0h-70q-20 0 -20 20v846q0 13 -12 13h-105q-20 0 -20 20v57q0 21 20 21h105q12 0 12 12v105q0 172 60 235.5t212 63.5h58q20 0 20 -21v-65q0 -21 -20 -21h-43q-112 0 -144 -33.5t-32 -144.5v-119q0 -12 12 -12h207q20 0 20 -21v-57
q0 -20 -20 -20h-207q-12 0 -12 -13v-846q0 -20 -21 -20zM1550 1237h-90q-20 0 -20 20v115q0 21 20 21h90q9 0 15 -6t6 -15v-115q0 -20 -21 -20zM1540 0h-70q-20 0 -20 20v936q0 21 20 21h70q9 0 15 -6t6 -15v-936q0 -20 -21 -20z" />
    <glyph glyph-name="f_f_l" unicode="ffl" horiz-adv-x="1798" 
d="M311 0h-69q-21 0 -21 20v846q0 13 -12 13h-105q-20 0 -20 20v57q0 21 20 21h105q12 0 12 12v105q0 172 60.5 235.5t212.5 63.5h57q20 0 20 -21v-65q0 -21 -20 -21h-43q-112 0 -144 -33.5t-32 -144.5v-119q0 -12 12 -12h207q20 0 20 -21v-57q0 -20 -20 -20h-207
q-12 0 -12 -13v-846q0 -20 -21 -20zM942 0h-70q-20 0 -20 20v846q0 13 -12 13h-105q-20 0 -20 20v57q0 21 20 21h105q12 0 12 12v105q0 172 60 235.5t212 63.5h58q20 0 20 -21v-65q0 -21 -20 -21h-43q-112 0 -144 -33.5t-32 -144.5v-119q0 -12 12 -12h207q20 0 20 -21v-57
q0 -20 -20 -20h-207q-12 0 -12 -13v-846q0 -20 -21 -20zM1698 -6h-47q-110 0 -156.5 53.5t-46.5 175.5v1149q0 21 20 21h70q9 0 15 -6t6 -15v-1145q0 -71 24 -99t80 -28h35q20 0 20 -20v-66q0 -20 -20 -20z" />
    <glyph glyph-name=".notdef" horiz-adv-x="962" 
d="M0 20v1352q0 21 20 21h922q9 0 15 -6t6 -15v-1352q0 -20 -21 -20h-922q-20 0 -20 20zM80 88q0 -12 12 -12h778q13 0 13 12v1217q0 12 -13 12h-778q-12 0 -12 -12v-1217zM440 459q-20 0 -20 20v49q0 82 45 138l76 98q45 54 60 88t15 76q0 64 -41 103.5t-106 39.5
q-128 0 -158 -137q-3 -19 -24 -16l-43 8q-20 3 -17 22q18 91 83 147t161 56q102 0 165.5 -63.5t63.5 -159.5q0 -57 -17.5 -99.5t-59.5 -93.5l-76 -98q-26 -32 -33.5 -53.5t-7.5 -59.5v-45q0 -20 -21 -20h-45zM410 252v80q0 20 20 20h64q20 0 20 -20v-80q0 -21 -20 -21h-64
q-20 0 -20 21z" />
    <glyph glyph-name=".null" horiz-adv-x="1024" 
 />
    <glyph glyph-name="nonmarkingreturn" horiz-adv-x="682" 
 />
    <glyph glyph-name="space" unicode=" " horiz-adv-x="503" 
 />
    <glyph glyph-name="exclam" unicode="!" horiz-adv-x="544" 
d="M250 362q-9 0 -15 6t-6 15l-16 989q0 21 20 21h80q9 0 15 -6t6 -15l-17 -989q0 -21 -20 -21h-47zM201 20v138q0 20 20 20h103q20 0 20 -20v-138q0 -20 -20 -20h-103q-20 0 -20 20z" />
    <glyph glyph-name="quotedbl" unicode="&#x22;" horiz-adv-x="643" 
d="M418 1065q-21 0 -21 20v287q0 9 6 15t15 6h53q9 0 15 -6t6 -15v-287q0 -20 -21 -20h-53zM172 1065q-20 0 -20 20v287q0 21 20 21h53q9 0 15 -6t6 -15v-287q0 -20 -21 -20h-53z" />
    <glyph glyph-name="numbersign" unicode="#" horiz-adv-x="1060" 
d="M182 20l58 429h-164q-21 0 -21 20v49q0 9 6 15t15 6h176l47 346h-172q-21 0 -21 20v51q0 9 6 15t15 6h184l56 395q3 21 22 21h55q22 0 19 -21l-55 -395h307l55 395q4 21 23 21h55q22 0 18 -21l-55 -395h174q9 0 15 -6t6 -15v-51q0 -20 -21 -20h-186l-47 -346h184
q20 0 20 -21v-49q0 -20 -20 -20h-197l-57 -429q-3 -20 -23 -20h-55q-21 0 -18 20l57 429h-307l-57 -429q-3 -20 -23 -20h-55q-22 0 -19 20zM348 539h307l47 346h-307z" />
    <glyph glyph-name="dollar" unicode="$" 
d="M133 102q-6 5 -7 14t5 15l43 57q10 13 29 2q151 -96 313 -104v567q-180 29 -269 125.5t-89 245.5q0 165 99 270t259 117v107q0 20 21 20h38q21 0 21 -20v-107q160 -8 297 -92q8 -5 10 -13t-4 -16l-35 -55q-12 -15 -28 -6q-127 68 -240 76v-549q186 -27 278.5 -122.5
t92.5 -250.5q0 -168 -98 -276t-273 -123v-109q0 -20 -21 -20h-38q-21 0 -21 20v105q-109 3 -209.5 36.5t-173.5 85.5zM516 766v539q-114 -11 -182 -84t-68 -187q0 -108 57.5 -174.5t192.5 -93.5zM596 88q123 14 192.5 89t69.5 200q0 110 -60.5 176t-201.5 88v-553z" />
    <glyph glyph-name="percent" unicode="%" horiz-adv-x="1576" 
d="M336 0l807 1393q11 20 28 20h56q9 0 12.5 -5.5t-0.5 -14.5l-807 -1393q-11 -20 -29 -20h-55q-9 0 -12.5 5.5t0.5 14.5zM420 676q-84 0 -141.5 40t-81.5 111q-17 70 -17 215t17 215q24 71 81.5 111.5t141.5 40.5q82 0 139.5 -40.5t81.5 -111.5q16 -66 16 -215t-16 -215
q-23 -71 -81 -111t-140 -40zM420 760q104 0 131 88q8 22 11 57t3 137q0 157 -14 195q-27 88 -131 88q-106 0 -133 -88q-15 -41 -15 -195t15 -194q27 -88 133 -88zM938 135q-16 50 -16 215q0 162 16 215q24 71 81.5 111.5t139.5 40.5q83 0 141 -40.5t80 -111.5
q17 -56 17 -215q0 -162 -17 -215q-22 -71 -80 -111t-141 -40q-82 0 -140 40t-81 111zM1026 156q30 -88 133 -88t133 88q15 51 15 194q0 146 -15 193q-30 88 -133 88t-133 -88q-14 -44 -14 -193q0 -147 14 -194z" />
    <glyph glyph-name="ampersand" unicode="&#x26;" horiz-adv-x="1265" 
d="M156 332q0 116 70.5 221.5t217.5 224.5q-111 143 -150.5 214.5t-39.5 140.5q0 122 84.5 201t212.5 79q129 0 211 -79t82 -199q0 -93 -54 -173.5t-200 -199.5l311 -404l146 183q13 16 28 4l43 -37q18 -12 4 -29l-159 -203l96 -124q22 -28 38.5 -37t41.5 -9h28q21 0 21 -20
v-66q0 -20 -21 -20h-43q-52 0 -82.5 17t-66.5 65l-82 108q-96 -109 -185 -159.5t-196 -50.5q-164 0 -260 97t-96 255zM526 846q130 104 171.5 164t41.5 125q0 77 -53 126.5t-135 49.5q-83 0 -136 -49.5t-53 -126.5q0 -50 30 -101t134 -188zM262 336q0 -114 67.5 -184
t184.5 -70q85 0 158 45t159 145l-325 424q-125 -102 -184.5 -185t-59.5 -175z" />
    <glyph glyph-name="quotesingle" unicode="'" horiz-adv-x="397" 
d="M172 1065q-20 0 -20 20v287q0 21 20 21h53q9 0 15 -6t6 -15v-287q0 -20 -21 -20h-53z" />
    <glyph glyph-name="parenleft" unicode="(" horiz-adv-x="565" 
d="M379 -152q-109 186 -167 399.5t-58 424.5t58.5 425t166.5 398q14 21 31 21h41q9 0 13.5 -6t0.5 -15q-96 -187 -149.5 -400.5t-53.5 -422.5q0 -208 54 -423t149 -401q4 -9 -0.5 -14.5t-13.5 -5.5h-41q-18 0 -31 20z" />
    <glyph glyph-name="parenright" unicode=")" horiz-adv-x="565" 
d="M100 -152q96 185 149.5 400t53.5 424t-53.5 422.5t-149.5 400.5q-4 9 1 15t14 6h43q14 0 28 -21q109 -184 167.5 -398t58.5 -425t-58.5 -424.5t-167.5 -399.5q-13 -20 -28 -20h-43q-10 0 -14.5 5.5t-0.5 14.5z" />
    <glyph glyph-name="asterisk" unicode="*" horiz-adv-x="714" 
d="M340 823q-9 0 -15 6t-6 15v196l-172 -98q-17 -10 -28 8l-17 31q-11 19 9 29l170 98l-170 98q-20 10 -9 29l17 31q11 18 28 8l172 -100v198q0 9 6 15t15 6h35q20 0 20 -21v-198l172 100q8 4 16 2t13 -10l16 -31q12 -19 -8 -29l-172 -98l172 -98q20 -10 8 -29l-16 -31
q-5 -8 -13 -10t-16 2l-172 100v-198q0 -21 -20 -21h-35z" />
    <glyph glyph-name="plus" unicode="+" 
d="M492 174v328q0 12 -13 12h-323q-9 0 -15 6t-6 15v61q0 20 21 20h323q13 0 13 13v327q0 21 20 21h66q20 0 20 -21v-327q0 -13 12 -13h324q20 0 20 -20v-61q0 -21 -20 -21h-324q-12 0 -12 -12v-328q0 -20 -20 -20h-66q-20 0 -20 20z" />
    <glyph glyph-name="comma" unicode="," horiz-adv-x="436" 
d="M154 158q0 20 20 20h88q21 0 21 -20v-154q0 -23 -11 -45l-79 -158q-8 -16 -25 -16q-14 0 -14 18v355z" />
    <glyph glyph-name="hyphen" unicode="-" horiz-adv-x="765" 
d="M121 494q-21 0 -21 20v64q0 20 21 20h524q21 0 21 -20v-64q0 -20 -21 -20h-524z" />
    <glyph glyph-name="period" unicode="." horiz-adv-x="448" 
d="M154 20v138q0 20 20 20h100q21 0 21 -20v-138q0 -20 -21 -20h-100q-20 0 -20 20z" />
    <glyph glyph-name="slash" unicode="/" horiz-adv-x="833" 
d="M139 0l453 1393q6 20 26 20h62q9 0 13 -5.5t1 -14.5l-452 -1393q-6 -20 -27 -20h-61q-9 0 -13.5 5.5t-1.5 14.5z" />
    <glyph glyph-name="zero" unicode="0" 
d="M186 229q-30 92 -30 467t30 467q40 121 133 185.5t226 64.5t225.5 -64.5t132.5 -185.5q31 -95 31 -467t-31 -467q-40 -121 -132.5 -185t-225.5 -64t-226 64t-133 185zM295 254q57 -170 250 -170t250 170q28 90 28 442q0 353 -28 443q-57 170 -250 170t-250 -170
q-29 -93 -29 -443q0 -349 29 -442z" />
    <glyph glyph-name="one" unicode="1" 
d="M526 20v1223h-4l-252 -178q-8 -6 -15 -3t-7 15v86q0 20 14 31l258 186q16 13 31 13h65q9 0 15 -6t6 -15v-1352q0 -20 -21 -20h-69q-21 0 -21 20z" />
    <glyph glyph-name="two" unicode="2" 
d="M170 20v54q0 15 8 26l514 674q115 148 115 273q0 114 -74 187t-192 73q-112 0 -180 -64t-87 -176q-3 -19 -24 -16l-64 16q-19 3 -16 23q9 65 37 122.5t74 102.5t113.5 71.5t148.5 26.5q168 0 271.5 -102.5t103.5 -263.5q0 -87 -35.5 -167t-106.5 -173l-459 -598v-3h580
q21 0 21 -20v-66q0 -20 -21 -20h-707q-20 0 -20 20z" />
    <glyph glyph-name="three" unicode="3" 
d="M150 266q-7 21 14 27l65 16q20 6 27 -14q12 -40 32.5 -74.5t53.5 -66t85 -50t116 -18.5q129 0 206.5 80.5t77.5 208.5q0 130 -80.5 213.5t-211.5 83.5h-64q-20 0 -20 20v66q0 20 20 20h61q118 0 191.5 75t73.5 194q0 117 -70.5 188.5t-191.5 71.5q-112 0 -177 -57
t-86 -144q-1 -9 -7.5 -13.5t-14.5 -2.5l-68 18q-20 3 -16 25q22 117 119 198.5t252 81.5q170 0 271 -101t101 -263q0 -113 -53.5 -191t-132.5 -123v-4q37 -16 72.5 -44t69 -70.5t53.5 -104t20 -133.5q0 -177 -110 -288t-285 -111q-84 0 -154.5 24t-117.5 65t-77.5 91
t-43.5 106z" />
    <glyph glyph-name="four" unicode="4" 
d="M137 279q-20 0 -20 20v61q0 7 4 23l452 993q9 17 27 17h76q10 0 13.5 -5.5t0.5 -13.5l-448 -987v-2h430q12 0 12 12v381q0 9 6 15t15 6h69q9 0 15 -6t6 -15v-381q0 -12 12 -12h154q20 0 20 -20v-66q0 -20 -20 -20h-154q-12 0 -12 -13v-246q0 -20 -21 -20h-69
q-21 0 -21 20v246q0 13 -12 13h-535z" />
    <glyph glyph-name="five" unicode="5" 
d="M186 274q-4 19 15 25l65 16q20 6 27 -16q16 -96 84.5 -154.5t181.5 -58.5q88 0 152.5 41t91.5 119q20 64 20 200q0 134 -24 205q-24 77 -85.5 116.5t-150.5 39.5q-94 0 -159 -48t-87 -118q-6 -20 -20 -20h-68q-20 0 -20 20v731q0 21 20 21h658q20 0 20 -21v-65
q0 -21 -20 -21h-559q-13 0 -13 -12v-481h4q29 49 97 84.5t157 35.5q124 0 208.5 -56.5t119.5 -164.5q33 -104 33 -246q0 -144 -29 -233q-36 -111 -127 -172t-217 -61q-158 0 -257.5 81.5t-117.5 212.5z" />
    <glyph glyph-name="six" unicode="6" 
d="M139 399q0 145 90 314l346 665q9 15 27 15h76q10 0 13 -6.5t-1 -12.5l-313 -604l4 -2q59 49 180 49q171 0 281 -114.5t110 -299.5q0 -193 -113 -308t-292 -115q-181 0 -294.5 114.5t-113.5 304.5zM250 397q0 -138 82.5 -224.5t214.5 -86.5q131 0 213 86.5t82 224.5
t-82.5 226t-212.5 88q-132 0 -214.5 -88t-82.5 -226z" />
    <glyph glyph-name="seven" unicode="7" 
d="M322 23l497 1257v6h-504q-12 0 -12 -12v-191q0 -20 -20 -20h-70q-20 0 -20 20v289q0 21 20 21h705q20 0 20 -21v-76q0 -8 -4 -20l-500 -1258q-5 -11 -9.5 -14.5t-16.5 -3.5h-76q-20 0 -10 23z" />
    <glyph glyph-name="eight" unicode="8" 
d="M135 377q0 126 61 218.5t162 135.5v4q-84 41 -135 123.5t-51 188.5q0 158 103.5 262t269.5 104t269.5 -104t103.5 -262q0 -106 -51.5 -188.5t-135.5 -123.5v-4q101 -43 162 -135.5t61 -218.5q0 -175 -114.5 -286t-294.5 -111t-295 111t-115 286zM545 786
q117 0 189.5 74.5t72.5 186.5q0 113 -73 186.5t-189 73.5t-189 -73.5t-73 -186.5q0 -112 72 -186.5t190 -74.5zM246 381q0 -129 82 -212t217 -83t217 83t82 212q0 130 -82.5 214.5t-216.5 84.5t-216.5 -84.5t-82.5 -214.5z" />
    <glyph glyph-name="nine" unicode="9" 
d="M399 18l314 605l-4 2q-60 -50 -181 -50q-171 0 -281 114.5t-110 299.5q0 193 113.5 308.5t292.5 115.5q180 0 293.5 -115t113.5 -305q0 -144 -90 -313l-346 -666q-8 -14 -27 -14h-75q-10 0 -13.5 6t0.5 12zM543 682q132 0 214.5 87.5t82.5 225.5t-82.5 225t-214.5 87
q-130 0 -212.5 -87t-82.5 -225t82.5 -225.5t212.5 -87.5z" />
    <glyph glyph-name="colon" unicode=":" horiz-adv-x="464" 
d="M182 797q-20 0 -20 20v139q0 21 20 21h101q20 0 20 -21v-139q0 -20 -20 -20h-101zM162 20v138q0 20 20 20h101q20 0 20 -20v-138q0 -20 -20 -20h-101q-20 0 -20 20z" />
    <glyph glyph-name="semicolon" unicode=";" horiz-adv-x="464" 
d="M182 797q-20 0 -20 20v139q0 21 20 21h101q20 0 20 -21v-139q0 -20 -20 -20h-101zM168 158q0 20 20 20h88q21 0 21 -20v-154q0 -25 -10 -45l-80 -158q-8 -16 -25 -16q-14 0 -14 18v355z" />
    <glyph glyph-name="less" unicode="&#x3c;" 
d="M156 512q-21 8 -21 27v53q0 18 21 26l778 318q9 3 14.5 -1t5.5 -13v-72q0 -18 -20 -27l-647 -256v-4l647 -256q20 -9 20 -26v-72q0 -9 -5.5 -13t-14.5 -1z" />
    <glyph glyph-name="equal" unicode="=" 
d="M156 713q-21 0 -21 20v62q0 20 21 20h778q20 0 20 -20v-62q0 -20 -20 -20h-778zM156 315q-9 0 -15 6t-6 15v61q0 9 6 15t15 6h778q20 0 20 -21v-61q0 -21 -20 -21h-778z" />
    <glyph glyph-name="greater" unicode="&#x3e;" 
d="M135 209v72q0 17 21 26l647 256v4l-647 256q-21 9 -21 27v72q0 9 6 13t15 1l778 -318q20 -8 20 -26v-53q0 -19 -20 -27l-778 -317q-9 -3 -15 1t-6 13z" />
    <glyph glyph-name="question" unicode="?" horiz-adv-x="913" 
d="M401 377v80q0 64 14 107.5t52 92.5l113 150q75 92 100 147t25 121q0 108 -68 170t-174 62q-101 0 -166.5 -59.5t-87.5 -170.5q-3 -19 -23 -16l-69 12q-9 1 -14 8.5t-3 16.5q22 141 119 228t246 87q157 0 254.5 -94.5t97.5 -243.5q0 -82 -28 -147t-97 -148l-112 -151
q-41 -50 -53.5 -85.5t-12.5 -94.5v-72q0 -21 -20 -21h-72q-9 0 -15 6t-6 15zM385 20v138q0 20 21 20h102q20 0 20 -20v-138q0 -20 -20 -20h-102q-21 0 -21 20z" />
    <glyph glyph-name="at" unicode="@" horiz-adv-x="1810" 
d="M100 547q0 176 59.5 326.5t165 255.5t255.5 164t325 59q176 0 326 -59.5t256 -164.5t165.5 -255t59.5 -326q0 -217 -87.5 -324.5t-227.5 -107.5q-86 0 -149 42.5t-91 116.5h-2q-35 -77 -108 -118t-173 -41q-221 0 -288 204q-27 89 -27 218q0 128 27 217q67 204 284 204
q181 0 250 -120h4v80q0 9 5.5 14.5t13.5 5.5h61q19 0 19 -20v-502q0 -101 52 -154t126 -53q93 0 152 79t59 259q0 318 -194.5 514t-512.5 196q-317 0 -510.5 -195.5t-193.5 -514.5q0 -320 193.5 -516.5t510.5 -196.5q262 0 449 98q16 9 26 -8l21 -47q7 -18 -10 -27
q-193 -110 -486 -110q-175 0 -325 59.5t-255.5 165t-165 255.5t-59.5 327zM680 356q48 -145 211 -145q165 0 213 145q20 61 20 181q0 119 -20 180q-48 145 -213 145q-163 0 -211 -145q-21 -65 -21 -180q0 -116 21 -181z" />
    <glyph glyph-name="A" unicode="A" horiz-adv-x="1220" 
d="M63 20l488 1352q7 21 24 21h74q18 0 25 -21l483 -1352q3 -9 -1 -14.5t-13 -5.5h-80q-22 0 -27 20l-123 342h-606l-123 -342q-8 -20 -26 -20h-80q-9 0 -13.5 5.5t-1.5 14.5zM346 475h528l-260 729h-6z" />
    <glyph glyph-name="B" unicode="B" horiz-adv-x="1230" 
d="M193 20v1352q0 21 20 21h467q195 0 300 -97t105 -264q0 -124 -57.5 -203.5t-157.5 -109.5v-4q40 -8 80.5 -32.5t76.5 -64t58.5 -101.5t22.5 -134q0 -181 -112 -282t-316 -101h-467q-20 0 -20 20zM322 764h356q138 0 214.5 70.5t76.5 187.5q0 121 -76 190.5t-215 69.5
h-356q-13 0 -13 -12v-494q0 -12 13 -12zM309 123q0 -12 13 -12h366q147 0 225 72.5t78 197.5q0 126 -78.5 199t-224.5 73h-366q-13 0 -13 -12v-518z" />
    <glyph glyph-name="C" unicode="C" horiz-adv-x="1138" 
d="M170 291q-37 113 -37 405q0 293 37 406q104 311 440 311q144 0 252.5 -66t167.5 -192q8 -19 -6 -27l-68 -32q-16 -9 -26 8q-105 199 -320 199q-246 0 -327 -232q-31 -95 -31 -375q0 -279 31 -374q81 -232 327 -232q215 0 320 199q10 17 26 8l68 -33q13 -8 6 -26
q-59 -126 -167.5 -192t-252.5 -66q-336 0 -440 311z" />
    <glyph glyph-name="D" unicode="D" horiz-adv-x="1269" 
d="M193 20v1352q0 21 20 21h436q354 0 445 -283q22 -66 30.5 -149.5t8.5 -264.5t-8.5 -264t-30.5 -149q-91 -283 -445 -283h-436q-20 0 -20 20zM309 123q0 -12 13 -12h311q278 0 348 211q18 54 25.5 129.5t7.5 244.5t-7.5 245t-25.5 130q-70 211 -348 211h-311
q-13 0 -13 -12v-1147z" />
    <glyph glyph-name="E" unicode="E" horiz-adv-x="1138" 
d="M193 20v1352q0 21 20 21h797q20 0 20 -21v-69q0 -21 -20 -21h-688q-13 0 -13 -12v-496q0 -12 13 -12h591q9 0 15 -6t6 -15v-69q0 -9 -6 -15t-15 -6h-591q-13 0 -13 -12v-516q0 -12 13 -12h688q20 0 20 -21v-70q0 -20 -20 -20h-797q-20 0 -20 20z" />
    <glyph glyph-name="F" unicode="F" horiz-adv-x="1128" 
d="M193 20v1352q0 21 20 21h797q20 0 20 -21v-69q0 -21 -20 -21h-688q-13 0 -13 -12v-510q0 -12 13 -12h591q9 0 15 -6t6 -15v-70q0 -20 -21 -20h-591q-13 0 -13 -12v-605q0 -20 -20 -20h-76q-20 0 -20 20z" />
    <glyph glyph-name="G" unicode="G" horiz-adv-x="1247" 
d="M172 293q-39 119 -39 403q0 285 39 404q51 154 167.5 233.5t287.5 79.5q162 0 271.5 -70.5t164.5 -187.5q8 -19 -8 -27l-66 -32q-17 -7 -26 8q-54 99 -135.5 149t-202.5 50q-129 0 -215.5 -60t-124.5 -176q-33 -97 -33 -371q0 -273 33 -370q38 -116 124.5 -176t215.5 -60
q127 0 214.5 59.5t125.5 172.5q32 94 32 266q0 12 -12 12h-315q-9 0 -15 6t-6 15v67q0 9 6 15t15 6h424q20 0 20 -21v-84q0 -192 -37 -309q-49 -154 -165.5 -234.5t-284.5 -80.5q-171 0 -287.5 79.5t-167.5 233.5z" />
    <glyph glyph-name="H" unicode="H" horiz-adv-x="1331" 
d="M193 20v1352q0 21 20 21h76q20 0 20 -21v-598q0 -12 13 -12h688q12 0 12 12v598q0 21 20 21h76q9 0 15 -6t6 -15v-1352q0 -20 -21 -20h-76q-20 0 -20 20v619q0 12 -12 12h-688q-13 0 -13 -12v-619q0 -20 -20 -20h-76q-20 0 -20 20z" />
    <glyph glyph-name="I" unicode="I" horiz-adv-x="501" 
d="M193 20v1352q0 21 20 21h76q20 0 20 -21v-1352q0 -20 -20 -20h-76q-20 0 -20 20z" />
    <glyph glyph-name="J" unicode="J" horiz-adv-x="970" 
d="M82 94q-16 16 -2 29l55 51q14 14 31 0q42 -35 100 -59.5t119 -24.5q137 0 213 80t76 248v954q0 21 20 21h76q9 0 15 -6t6 -15v-954q0 -218 -108 -328t-300 -110q-87 0 -168 32t-133 82z" />
    <glyph glyph-name="K" unicode="K" horiz-adv-x="1222" 
d="M193 20v1352q0 21 20 21h76q20 0 20 -21v-803l664 805q19 19 35 19h96q9 0 12 -7.5t-4 -15.5l-440 -526l475 -821q6 -9 2.5 -16t-12.5 -7h-93q-18 0 -30 18l-420 732l-285 -340v-390q0 -20 -20 -20h-76q-20 0 -20 20z" />
    <glyph glyph-name="L" unicode="L" horiz-adv-x="1085" 
d="M193 20v1352q0 21 20 21h76q20 0 20 -21v-1249q0 -12 13 -12h688q20 0 20 -21v-70q0 -20 -20 -20h-797q-20 0 -20 20z" />
    <glyph glyph-name="M" unicode="M" horiz-adv-x="1546" 
d="M193 20v1352q0 21 20 21h78q22 0 31 -21l452 -997h8l443 997q9 21 28 21h80q9 0 15 -6t6 -15v-1352q0 -20 -21 -20h-76q-20 0 -20 20v1090h-6l-402 -883q-11 -22 -36 -22h-41q-24 0 -35 22l-402 883h-6v-1090q0 -20 -20 -20h-76q-20 0 -20 20z" />
    <glyph glyph-name="N" unicode="N" horiz-adv-x="1333" 
d="M193 20v1352q0 21 20 21h76q25 0 35 -21l694 -1145h6v1145q0 21 20 21h76q9 0 15 -6t6 -15v-1352q0 -20 -21 -20h-80q-22 0 -34 20l-689 1147h-8v-1147q0 -20 -20 -20h-76q-20 0 -20 20z" />
    <glyph glyph-name="O" unicode="O" horiz-adv-x="1247" 
d="M625 -20q-170 0 -285 79.5t-166 233.5q-21 62 -31 148.5t-10 254.5t10 255t31 149q51 154 166 233.5t285 79.5q169 0 283 -79.5t165 -233.5q21 -62 31 -149t10 -255t-10 -254.5t-31 -148.5q-51 -154 -165 -233.5t-283 -79.5zM995 696q0 267 -34 371q-78 236 -336 236
q-260 0 -338 -236q-35 -107 -35 -371q0 -263 35 -370q78 -236 338 -236q258 0 336 236q34 104 34 370z" />
    <glyph glyph-name="P" unicode="P" horiz-adv-x="1198" 
d="M289 0h-76q-20 0 -20 20v1352q0 21 20 21h465q199 0 313.5 -106.5t114.5 -289.5t-114.5 -288t-313.5 -105h-356q-13 0 -13 -12v-572q0 -20 -20 -20zM674 715q153 0 234 73.5t81 208.5t-81.5 210t-233.5 75h-352q-13 0 -13 -12v-543q0 -12 13 -12h352z" />
    <glyph glyph-name="Q" unicode="Q" horiz-adv-x="1247" 
d="M1149 -18l-49 -48q-17 -14 -31 0l-135 146q-121 -100 -309 -100q-170 0 -285 79.5t-166 233.5q-21 62 -31 148.5t-10 254.5t10 255t31 149q51 154 166 233.5t285 79.5q169 0 283 -79.5t165 -233.5q21 -62 31 -149t10 -255t-10 -254.5t-31 -148.5q-22 -72 -65 -133
l143 -150q15 -15 -2 -28zM625 90q142 0 231 74l-168 180q-14 14 0 29l51 47q17 13 29 -2l158 -170q21 38 35 78q34 104 34 370q0 267 -34 371q-78 236 -336 236q-260 0 -338 -236q-35 -107 -35 -371q0 -263 35 -370q78 -236 338 -236z" />
    <glyph glyph-name="R" unicode="R" horiz-adv-x="1259" 
d="M1112 0h-94q-17 0 -25 18l-293 605h-20h-358q-13 0 -13 -13v-590q0 -20 -20 -20h-76q-20 0 -20 20v1352q0 21 20 21h467q197 0 310.5 -103.5t113.5 -281.5q0 -144 -75.5 -240.5t-209.5 -128.5l303 -616q6 -9 2.5 -16t-12.5 -7zM678 733q149 0 229 71.5t80 203.5
q0 131 -80 202.5t-229 71.5h-356q-13 0 -13 -12v-525q0 -12 13 -12h356z" />
    <glyph glyph-name="S" unicode="S" horiz-adv-x="1220" 
d="M594 -20q-130 0 -257 47t-204 114q-15 15 -2 29l49 61q14 17 29 2q78 -61 182 -102t217 -41q166 0 263.5 77.5t97.5 207.5q0 110 -76 178.5t-258 91.5l-64 8q-201 26 -301 120t-100 249q0 181 119 286t319 105q113 0 219 -31.5t179 -85.5q18 -11 4 -28l-41 -64
q-12 -14 -29 -4q-168 103 -338 103q-147 0 -231 -75t-84 -198q0 -110 77 -175.5t250 -88.5l64 -8q407 -53 407 -375q0 -183 -127 -293t-364 -110z" />
    <glyph glyph-name="T" unicode="T" horiz-adv-x="1075" 
d="M575 0h-75q-21 0 -21 20v1250q0 12 -12 12h-401q-9 0 -15 6t-6 15v69q0 9 6 15t15 6h944q20 0 20 -21v-69q0 -21 -20 -21h-402q-12 0 -12 -12v-1250q0 -20 -21 -20z" />
    <glyph glyph-name="U" unicode="U" horiz-adv-x="1300" 
d="M295 1372v-893q0 -193 92.5 -291t261.5 -98q171 0 264 98t93 291v893q0 21 20 21h76q20 0 20 -21v-891q0 -249 -125 -375t-348 -126q-221 0 -346 126t-125 375v891q0 9 6 15t15 6h75q9 0 15 -6t6 -15z" />
    <glyph glyph-name="V" unicode="V" horiz-adv-x="1146" 
d="M608 0h-69q-16 0 -23 20l-461 1344q-5 14 -0.5 21.5t15.5 7.5h71q23 0 31 -21l403 -1177h5l393 1177q8 21 28 21h74q11 0 16 -8t1 -21l-459 -1344q-7 -20 -25 -20z" />
    <glyph glyph-name="W" unicode="W" horiz-adv-x="1673" 
d="M1255 0h-67q-17 0 -23 20l-325 1141h-4l-328 -1141q-6 -20 -23 -20h-65q-18 0 -25 20l-329 1350q-7 23 16 23h74q23 0 26 -21l275 -1147h4l321 1147q6 21 25 21h61q19 0 25 -21l326 -1147h4l268 1147q5 21 27 21h73q11 0 15.5 -6.5t1.5 -16.5l-330 -1350q-3 -20 -23 -20z
" />
    <glyph glyph-name="X" unicode="X" horiz-adv-x="1116" 
d="M1036 0h-92q-17 0 -26 18l-359 596h-2l-360 -596q-9 -18 -27 -18h-92q-9 0 -12 7t2 16l424 708l-381 639q-6 9 -2.5 16t12.5 7h92q17 0 27 -19l317 -526h2l318 526q13 19 26 19h92q9 0 12.5 -7t-1.5 -16l-383 -639l426 -708q5 -9 1 -16t-14 -7z" />
    <glyph glyph-name="Y" unicode="Y" horiz-adv-x="1054" 
d="M565 0h-76q-20 0 -20 20v551l-418 799q-3 8 2 15.5t15 7.5h79q21 0 31 -21l350 -665h7l344 665q6 12 12 16.5t18 4.5h78q11 0 15.5 -7.5t1.5 -15.5l-418 -799v-551q0 -20 -21 -20z" />
    <glyph glyph-name="Z" unicode="Z" horiz-adv-x="1105" 
d="M975 0h-846q-20 0 -20 20v68q0 14 10 31l739 1161v2h-702q-9 0 -15 6t-6 15v69q0 9 6 15t15 6h819q20 0 20 -21v-67q0 -16 -10 -31l-739 -1161v-2h729q20 0 20 -21v-70q0 -20 -20 -20z" />
    <glyph glyph-name="bracketleft" unicode="[" horiz-adv-x="579" 
d="M469 -172h-244q-20 0 -20 20v1647q0 21 20 21h244q20 0 20 -21v-55q0 -21 -20 -21h-145q-13 0 -13 -12v-1470q0 -13 13 -13h145q20 0 20 -20v-56q0 -20 -20 -20z" />
    <glyph glyph-name="backslash" unicode="\" horiz-adv-x="833" 
d="M680 -20h-62q-20 0 -26 20l-453 1393q-3 9 1.5 14.5t13.5 5.5h61q21 0 27 -20l452 -1393q3 -9 -1 -14.5t-13 -5.5z" />
    <glyph glyph-name="bracketright" unicode="]" horiz-adv-x="579" 
d="M354 -172h-243q-21 0 -21 20v56q0 20 21 20h145q12 0 12 13v1470q0 12 -12 12h-145q-9 0 -15 6t-6 15v55q0 9 6 15t15 6h243q9 0 15 -6t6 -15v-1647q0 -20 -21 -20z" />
    <glyph glyph-name="asciicircum" unicode="^" 
d="M938 578h-66q-17 0 -26 20l-299 651h-4l-301 -651q-9 -20 -27 -20h-63q-10 0 -14.5 5.5t-0.5 14.5l355 774q10 21 28 21h49q19 0 29 -21l352 -774q4 -9 0.5 -14.5t-12.5 -5.5z" />
    <glyph glyph-name="underscore" unicode="_" horiz-adv-x="940" 
d="M940 -252h-940v84h940v-84z" />
    <glyph glyph-name="grave" unicode="`" horiz-adv-x="862" 
d="M559 1143h-51q-20 0 -37 20l-180 250q-6 7 -2.5 14t12.5 7h78q21 0 33 -21l157 -250q6 -9 2.5 -14.5t-12.5 -5.5z" />
    <glyph glyph-name="a" unicode="a" horiz-adv-x="1050" 
d="M512 895q-156 0 -246 -74q-17 -14 -30 2l-35 51q-10 16 6 29q112 94 311 94q193 0 274.5 -72.5t81.5 -250.5v-654q0 -20 -20 -20h-66q-20 0 -20 20v103h-2q-31 -64 -109 -103.5t-194 -39.5q-151 0 -239.5 74.5t-88.5 213.5q0 144 95 216.5t276 72.5h248q12 0 12 12v101
q0 123 -54 174t-200 51zM485 82q126 0 203.5 60t77.5 159v150q0 12 -12 12h-234q-144 0 -210 -47.5t-66 -145.5q0 -92 62 -140t179 -48z" />
    <glyph glyph-name="b" unicode="b" horiz-adv-x="1087" 
d="M598 -20q-216 0 -297 159h-2v-119q0 -20 -20 -20h-70q-21 0 -21 20v1352q0 9 6 15t15 6h70q20 0 20 -21v-534h2q81 159 297 159q256 0 332 -233q35 -112 35 -277q0 -162 -35 -274q-76 -233 -332 -233zM575 86q193 0 250 172q27 82 27 229q0 150 -27 232q-57 172 -250 172
q-93 0 -157.5 -43.5t-91.5 -128.5q-27 -79 -27 -232q0 -149 27 -229q27 -85 91.5 -128.5t157.5 -43.5z" />
    <glyph glyph-name="c" unicode="c" horiz-adv-x="962" 
d="M123 487q0 151 31 256q38 120 133.5 187t230.5 67q219 0 330 -184q10 -17 -6 -27l-58 -36q-16 -9 -26 8q-44 69 -100 101t-140 32q-96 0 -161.5 -47t-94.5 -137q-26 -77 -26 -220q0 -140 26 -217q29 -90 94.5 -137t161.5 -47q84 0 140 32t100 101q10 17 26 8l58 -37
q16 -10 6 -26q-111 -184 -330 -184q-135 0 -230.5 66.5t-133.5 186.5q-31 105 -31 254z" />
    <glyph glyph-name="d" unicode="d" horiz-adv-x="1087" 
d="M879 0h-70q-21 0 -21 20v119h-2q-81 -159 -297 -159q-258 0 -331 233q-35 104 -35 274q0 173 35 277q73 233 331 233q216 0 297 -159h2v534q0 9 6 15t15 6h70q20 0 20 -21v-1352q0 -20 -20 -20zM512 86q94 0 158.5 43.5t91.5 128.5q26 77 26 229q0 155 -26 232
q-27 85 -91.5 128.5t-158.5 43.5q-95 0 -158.5 -44t-91.5 -128q-26 -79 -26 -232q0 -150 26 -229q28 -84 91.5 -128t158.5 -44z" />
    <glyph glyph-name="e" unicode="e" horiz-adv-x="1028" 
d="M526 -20q-142 0 -237.5 66t-136.5 192q-29 95 -29 251q0 159 29 254q39 122 134 188t228 66t229.5 -66t135.5 -188q28 -85 28 -260q0 -20 -22 -20h-637q-12 0 -12 -14q0 -109 20 -173q66 -190 276 -190q174 0 273 125q13 17 29 4l47 -43q15 -12 2 -29q-56 -75 -148 -119
t-209 -44zM248 557h534q13 0 13 12q0 80 -19 142q-29 90 -96.5 137t-165.5 47q-96 0 -163.5 -47t-96.5 -137q-18 -59 -18 -142q0 -12 12 -12z" />
    <glyph glyph-name="f" unicode="f" horiz-adv-x="630" 
d="M311 0h-69q-21 0 -21 20v846q0 13 -12 13h-105q-20 0 -20 20v57q0 21 20 21h105q12 0 12 12v105q0 172 60.5 235.5t212.5 63.5h57q20 0 20 -21v-65q0 -21 -20 -21h-43q-112 0 -144 -33.5t-32 -144.5v-119q0 -12 12 -12h207q20 0 20 -21v-57q0 -20 -20 -20h-207
q-12 0 -12 -13v-846q0 -20 -21 -20z" />
    <glyph glyph-name="g" unicode="g" horiz-adv-x="1069" 
d="M489 -389q-104 0 -193 40t-130 101q-10 17 4 29l51 45q16 13 29 -4q91 -105 242 -105q278 0 278 297v142h-2q-75 -160 -289 -160q-122 0 -205 60t-120 173q-33 100 -33 267q0 166 33 266q37 113 120 174t205 61q214 0 289 -159h2v118q0 9 6 15t15 6h69q9 0 15 -6t6 -15
v-938q0 -201 -103 -304t-289 -103zM502 100q185 0 243 172q25 76 25 224q0 147 -25 223q-57 172 -243 172q-183 0 -240 -170q-29 -83 -29 -225q0 -144 29 -224q56 -172 240 -172z" />
    <glyph glyph-name="h" unicode="h" horiz-adv-x="1107" 
d="M911 0h-69q-21 0 -21 20v578q0 293 -256 293q-115 0 -190.5 -74t-75.5 -199v-598q0 -20 -20 -20h-70q-21 0 -21 20v1352q0 9 6 15t15 6h70q20 0 20 -21v-532h2q37 73 112.5 115t176.5 42q163 0 252.5 -97t89.5 -275v-605q0 -20 -21 -20z" />
    <glyph glyph-name="i" unicode="i" horiz-adv-x="487" 
d="M289 1237h-90q-21 0 -21 20v115q0 9 6 15t15 6h90q20 0 20 -21v-115q0 -20 -20 -20zM279 0h-70q-21 0 -21 20v936q0 9 6 15t15 6h70q20 0 20 -21v-936q0 -20 -20 -20z" />
    <glyph glyph-name="j" unicode="j" horiz-adv-x="487" 
d="M289 1237h-90q-21 0 -21 20v115q0 9 6 15t15 6h90q20 0 20 -21v-115q0 -20 -20 -20zM47 -369h-22q-9 0 -15 6t-6 15v65q0 9 6 15t15 6h18q85 0 115 30t30 119v1069q0 9 6 15t15 6h70q20 0 20 -21v-1067q0 -141 -58 -199.5t-194 -58.5z" />
    <glyph glyph-name="k" unicode="k" horiz-adv-x="1024" 
d="M934 0h-84q-18 0 -31 20l-311 506l-209 -245v-261q0 -20 -20 -20h-70q-21 0 -21 20v1352q0 9 6 15t15 6h70q20 0 20 -21v-938l442 522q18 21 35 21h84q9 0 12.5 -7.5t-2.5 -13.5l-288 -342l364 -594q4 -8 0.5 -14t-12.5 -6z" />
    <glyph glyph-name="l" unicode="l" horiz-adv-x="536" 
d="M436 -6h-47q-110 0 -156.5 53.5t-46.5 175.5v1149q0 9 6 15t15 6h69q9 0 15 -6t6 -15v-1145q0 -71 24 -99t80 -28h35q21 0 21 -20v-66q0 -20 -21 -20z" />
    <glyph glyph-name="m" unicode="m" horiz-adv-x="1740" 
d="M1544 0h-69q-21 0 -21 20v578q0 293 -258 293q-115 0 -189.5 -74t-74.5 -199v-598q0 -20 -21 -20h-69q-21 0 -21 20v578q0 293 -256 293q-115 0 -190.5 -74t-75.5 -199v-598q0 -20 -20 -20h-70q-21 0 -21 20v936q0 9 6 15t15 6h70q20 0 20 -21v-116h2q37 73 112.5 115
t176.5 42q228 0 303 -182h2q92 182 322 182q166 0 257 -97t91 -275v-605q0 -20 -21 -20z" />
    <glyph glyph-name="n" unicode="n" horiz-adv-x="1107" 
d="M911 0h-69q-21 0 -21 20v578q0 293 -256 293q-115 0 -190.5 -74t-75.5 -199v-598q0 -20 -20 -20h-70q-21 0 -21 20v936q0 9 6 15t15 6h70q20 0 20 -21v-116h2q37 73 112.5 115t176.5 42q163 0 252.5 -97t89.5 -275v-605q0 -20 -21 -20z" />
    <glyph glyph-name="o" unicode="o" horiz-adv-x="1042" 
d="M520 -20q-134 0 -229 66t-135 187q-33 109 -33 256q0 145 33 254q40 121 135 187.5t229 66.5q135 0 231 -66.5t136 -187.5q33 -109 33 -254q0 -147 -33 -256q-40 -121 -136 -187t-231 -66zM520 86q95 0 163 47t97 135q27 83 27 221q0 137 -27 220q-29 88 -97 135t-163 47
q-94 0 -161.5 -47.5t-96.5 -134.5q-26 -79 -26 -220q0 -142 26 -221q29 -87 96.5 -134.5t161.5 -47.5z" />
    <glyph glyph-name="p" unicode="p" horiz-adv-x="1087" 
d="M279 -369h-70q-9 0 -15 6t-6 15v1304q0 9 6 15t15 6h70q20 0 20 -21v-118h2q81 159 297 159q256 0 332 -233q35 -112 35 -277q0 -162 -35 -274q-76 -233 -332 -233q-216 0 -297 159h-2v-487q0 -21 -20 -21zM575 86q193 0 250 172q27 82 27 229q0 150 -27 232
q-57 172 -250 172q-93 0 -157.5 -43.5t-91.5 -128.5q-27 -79 -27 -232q0 -149 27 -229q27 -85 91.5 -128.5t157.5 -43.5z" />
    <glyph glyph-name="q" unicode="q" horiz-adv-x="1087" 
d="M879 -369h-70q-9 0 -15 6t-6 15v487h-2q-81 -159 -297 -159q-255 0 -331 233q-35 112 -35 274q0 165 35 277q76 233 331 233q216 0 297 -159h2v118q0 9 6 15t15 6h70q20 0 20 -21v-1304q0 -21 -20 -21zM512 86q94 0 158.5 43.5t91.5 128.5q26 77 26 229q0 155 -26 232
q-27 85 -91.5 128.5t-158.5 43.5q-193 0 -250 -172q-26 -79 -26 -232q0 -150 26 -229q57 -172 250 -172z" />
    <glyph glyph-name="r" unicode="r" horiz-adv-x="811" 
d="M279 0h-70q-21 0 -21 20v936q0 9 6 15t15 6h70q20 0 20 -21v-125h2q29 76 96 121t166 45q120 0 197 -67q17 -10 4 -27l-41 -57q-11 -14 -31 -4q-76 49 -155 49q-83 0 -137.5 -46t-77.5 -118t-23 -166v-541q0 -20 -20 -20z" />
    <glyph glyph-name="s" unicode="s" horiz-adv-x="985" 
d="M494 -20q-216 0 -381 137q-14 14 0 28l45 52q12 12 28 0q143 -115 318 -115q124 0 189 50.5t65 137.5q0 78 -47 118t-176 54l-99 11q-138 14 -211 79.5t-73 180.5q0 133 91.5 208.5t252.5 75.5q181 0 325 -94q16 -13 4 -29l-37 -49q-10 -17 -28 -6q-53 31 -126.5 53.5
t-144.5 22.5q-111 0 -169 -45.5t-58 -128.5q0 -74 51.5 -113t173.5 -51l99 -10q282 -27 282 -262q0 -142 -97 -223.5t-277 -81.5z" />
    <glyph glyph-name="t" unicode="t" horiz-adv-x="636" 
d="M522 -6h-53q-138 0 -196 60t-58 204v608q0 13 -12 13h-103q-20 0 -20 20v57q0 21 20 21h103q12 0 12 12v281q0 20 21 20h69q21 0 21 -20v-281q0 -12 12 -12h184q9 0 15 -6t6 -15v-57q0 -20 -21 -20h-184q-12 0 -12 -13v-602q0 -96 35 -130t122 -34h39q21 0 21 -20v-66
q0 -20 -21 -20z" />
    <glyph glyph-name="u" unicode="u" horiz-adv-x="1095" 
d="M887 0h-70q-20 0 -20 20v115h-2q-37 -73 -111.5 -114t-173.5 -41q-162 0 -250 96.5t-88 273.5v606q0 9 6 15t15 6h69q9 0 15 -6t6 -15v-577q0 -148 62.5 -220.5t189.5 -72.5q113 0 187.5 74t74.5 198v598q0 21 20 21h70q20 0 20 -21v-936q0 -20 -20 -20z" />
    <glyph glyph-name="v" unicode="v" horiz-adv-x="958" 
d="M512 0h-66q-17 0 -24 20l-354 936q-3 9 1.5 15t14.5 6h76q17 0 26 -21l295 -782h2l289 782q9 21 27 21h75q10 0 15 -6t2 -15l-354 -936q-7 -20 -25 -20z" />
    <glyph glyph-name="w" unicode="w" horiz-adv-x="1507" 
d="M1098 0h-64q-18 0 -24 20l-254 781h-2l-258 -781q-6 -20 -25 -20h-61q-19 0 -25 20l-305 936q-7 21 14 21h74q18 0 27 -21l249 -780h2l254 780q7 21 25 21h59q18 0 25 -21l258 -780h2l244 780q9 21 26 21h74q21 0 14 -21l-305 -936q-6 -20 -24 -20z" />
    <glyph glyph-name="x" unicode="x" horiz-adv-x="948" 
d="M858 0h-84q-18 0 -29 16l-270 398h-2l-272 -398q-11 -16 -29 -16h-82q-10 0 -13.5 6t1.5 14l334 492l-301 444q-5 8 -1.5 14.5t13.5 6.5h84q18 0 29 -16l237 -353h2l240 353q11 16 28 16h82q10 0 14 -6.5t-1 -14.5l-303 -444l335 -492q5 -8 1.5 -14t-13.5 -6z" />
    <glyph glyph-name="y" unicode="y" horiz-adv-x="956" 
d="M211 -369h-43q-9 0 -15 6t-6 15v65q0 9 6 15t15 6h37q65 0 104.5 37.5t79.5 144.5l39 100l-360 936q-7 21 14 21h78q17 0 26 -21l297 -784h2l289 784q6 21 25 21h78q9 0 13 -6t1 -15l-399 -1050q-42 -112 -83 -172t-86 -81.5t-112 -21.5z" />
    <glyph glyph-name="z" unicode="z" horiz-adv-x="956" 
d="M821 0h-682q-20 0 -20 20v62q0 14 10 27l580 759v2h-543q-9 0 -15 6t-6 15v65q0 9 6 15t15 6h655q9 0 15 -6t6 -15v-65q0 -13 -11 -27l-577 -755v-5h567q21 0 21 -20v-64q0 -20 -21 -20z" />
    <glyph glyph-name="braceleft" unicode="{" horiz-adv-x="651" 
d="M541 -172h-70q-98 0 -143 51t-45 164v408q0 91 -29.5 130t-87.5 42q-21 3 -21 20v66q0 17 21 20q58 3 87.5 42t29.5 130v399q0 113 45.5 164.5t142.5 51.5h70q20 0 20 -21v-55q0 -21 -20 -21h-54q-52 0 -76 -26.5t-24 -87.5v-392q0 -78 -11 -124.5t-32.5 -71t-60.5 -39.5
v-4q58 -23 81 -72t23 -164v-399q0 -61 24 -88t76 -27h54q20 0 20 -20v-56q0 -20 -20 -20z" />
    <glyph glyph-name="bar" unicode="|" horiz-adv-x="503" 
d="M281 -172h-58q-20 0 -20 20v1647q0 21 20 21h58q20 0 20 -21v-1647q0 -20 -20 -20z" />
    <glyph glyph-name="braceright" unicode="}" horiz-adv-x="651" 
d="M180 -172h-69q-21 0 -21 20v56q0 20 21 20h53q52 0 76 27t24 88v399q0 115 23.5 164t81.5 72v4q-58 23 -81.5 72.5t-23.5 162.5v392q0 61 -24 87.5t-76 26.5h-53q-9 0 -15 6t-6 15v55q0 9 6 15t15 6h69q98 0 143.5 -51.5t45.5 -164.5v-399q0 -91 29.5 -130t86.5 -42
q21 -3 21 -20v-66q0 -17 -21 -20q-57 -3 -86.5 -42t-29.5 -130v-408q0 -113 -45.5 -164t-143.5 -51z" />
    <glyph glyph-name="asciitilde" unicode="~" 
d="M719 442q-39 0 -78.5 13t-63.5 27.5t-59 39.5q-30 21 -49 32.5t-47.5 22.5t-54.5 11q-53 0 -91 -27t-75 -90q-10 -17 -29 -4l-41 27q-14 9 -6 28q38 75 103 118.5t141 43.5q40 0 79.5 -13.5t62 -27t58.5 -39.5q93 -65 152 -65q53 0 90.5 27t75.5 89q11 18 31 4l38 -24
q17 -11 7 -29q-39 -76 -103 -120t-141 -44z" />
    <glyph glyph-name="uni00A0" unicode="&#xa0;" horiz-adv-x="503" 
 />
    <glyph glyph-name="exclamdown" unicode="&#xa1;" horiz-adv-x="544" 
d="M295 614q20 0 20 -20l17 -989q0 -9 -6 -15t-15 -6h-80q-20 0 -20 21l16 989q0 20 21 20h47zM344 956v-137q0 -20 -20 -20h-103q-20 0 -20 20v137q0 21 20 21h103q20 0 20 -21z" />
    <glyph glyph-name="cent" unicode="&#xa2;" 
d="M606 1163v-166q215 -12 307 -182q10 -16 -6 -29l-49 -41q-6 -6 -15 -3.5t-14 10.5q-42 70 -92.5 102.5t-130.5 36.5v-805q79 4 130.5 37.5t92.5 101.5q5 8 14 10t15 -4l49 -41q14 -14 6 -30q-46 -78 -124 -126t-183 -54v-168q0 -21 -20 -21h-37q-9 0 -15 6t-6 15v172
q-120 10 -201.5 74.5t-115.5 174.5q-33 108 -33 254q0 144 33 256q34 108 116 174t201 76v170q0 9 6 15t15 6h37q20 0 20 -21zM291 487q0 -137 28 -219q50 -159 209 -180v799q-159 -21 -209 -180q-28 -82 -28 -220z" />
    <glyph glyph-name="sterling" unicode="&#xa3;" 
d="M901 0h-672q-20 0 -20 20v64q0 12 10 22q48 48 64 89t16 120v281q0 12 -12 12h-103q-20 0 -20 21v55q0 21 20 21h103q12 0 12 12v346q0 166 84 258t227 92q117 0 194.5 -67t104.5 -179q3 -18 -16 -24l-66 -19q-20 -7 -24 15q-19 80 -69.5 124t-125.5 44q-90 0 -143 -58
t-53 -172v-360q0 -12 12 -12h278q9 0 15 -6t6 -15v-55q0 -9 -6 -15t-15 -6h-278q-12 0 -12 -12v-268q0 -145 -66 -219v-3h555q21 0 21 -20v-66q0 -20 -21 -20z" />
    <glyph glyph-name="currency" unicode="&#xa4;" 
d="M987 264l-41 -47q-16 -12 -28 0l-134 133q-105 -78 -237 -78q-135 0 -240 78l-131 -131q-14 -15 -29 0l-41 45q-14 14 0 29l130 129q-76 102 -76 240q0 134 78 239l-132 131q-14 14 0 29l41 45q15 14 29 0l133 -133q100 78 238 78q130 0 235 -78l133 133q16 16 29 0
l41 -45q16 -16 0 -29l-131 -131q78 -105 78 -239q0 -136 -76 -238l131 -131q13 -16 0 -29zM547 369q123 0 203.5 84.5t80.5 208.5t-80.5 208t-203.5 84q-124 0 -205.5 -84t-81.5 -208t81.5 -208.5t205.5 -84.5z" />
    <glyph glyph-name="yen" unicode="&#xa5;" 
d="M580 0h-70q-21 0 -21 20v297q0 13 -12 13h-270q-21 0 -21 20v51q0 9 6 15t15 6h270q12 0 12 12v123q0 12 -12 12h-270q-9 0 -15 6t-6 15v51q0 9 6 15t15 6h246v2l-330 702q-5 10 -0.5 18.5t16.5 8.5h72q22 0 31 -21l303 -670h4l301 670q9 21 31 21h69q12 0 17 -8t0 -19
l-330 -702v-2h246q20 0 20 -21v-51q0 -21 -20 -21h-271q-12 0 -12 -12v-123q0 -12 12 -12h271q20 0 20 -21v-51q0 -20 -20 -20h-271q-12 0 -12 -13v-297q0 -20 -20 -20z" />
    <glyph glyph-name="brokenbar" unicode="&#xa6;" horiz-adv-x="503" 
d="M281 795h-58q-20 0 -20 20v680q0 21 20 21h58q20 0 20 -21v-680q0 -20 -20 -20zM281 -172h-58q-20 0 -20 20v689q0 20 20 20h58q20 0 20 -20v-689q0 -20 -20 -20z" />
    <glyph glyph-name="section" unicode="&#xa7;" horiz-adv-x="1085" 
d="M537 -389q-149 0 -235 79.5t-91 219.5q0 19 16 22l66 15q18 6 22 -15q0 -114 61 -167.5t161 -53.5q101 0 161 53.5t60 153.5q0 98 -65 151.5t-218 84.5q-287 59 -287 364q0 122 56.5 212.5t167.5 121.5v2q-94 45 -136.5 107t-42.5 161q0 126 89 208.5t225 82.5
q144 0 224.5 -80t82.5 -196q0 -20 -14 -23l-66 -14q-9 -3 -14.5 1.5t-5.5 12.5q-5 93 -57.5 146t-147.5 53q-96 0 -151.5 -50.5t-55.5 -140.5q0 -99 59 -153t209 -86q287 -66 287 -365q0 -123 -56 -212t-161 -122v-2q87 -35 135.5 -98.5t48.5 -169.5q0 -139 -92.5 -221
t-234.5 -82zM543 254q111 0 179.5 69t68.5 195q0 125 -68.5 193.5t-179.5 68.5q-112 0 -180 -68t-68 -194t68 -195t180 -69z" />
    <glyph glyph-name="dieresis" unicode="&#xa8;" horiz-adv-x="862" 
d="M676 1237h-82q-21 0 -21 20v115q0 9 6 15t15 6h82q20 0 20 -21v-115q0 -20 -20 -20zM268 1237h-82q-20 0 -20 20v115q0 21 20 21h82q9 0 15 -6t6 -15v-115q0 -20 -21 -20z" />
    <glyph glyph-name="copyright" unicode="&#xa9;" horiz-adv-x="1699" 
d="M850 -20q-201 0 -365.5 93.5t-258 257.5t-93.5 365q0 151 55 284t150 228t228 150t284 55t284 -55t228 -150t150 -228t55 -284q0 -201 -93.5 -365t-258 -257.5t-365.5 -93.5zM850 66q177 0 321 82t226 226.5t82 321.5q0 133 -48.5 250t-131.5 200.5t-200 132t-249 48.5
t-249 -48.5t-200 -132t-131.5 -200.5t-48.5 -250q0 -177 82 -321.5t226 -226.5t321 -82zM864 295q-109 0 -186 53.5t-109 155.5q-22 68 -22 192q0 125 22 193q32 102 109 155.5t186 53.5q91 0 160.5 -39.5t108.5 -104.5q9 -15 -9 -26l-34 -33q-16 -7 -29 6q-71 109 -197 109
q-158 0 -207 -148q-18 -55 -18 -166q0 -110 18 -166q49 -147 207 -147q126 0 197 109q13 13 29 6l34 -33q19 -11 9 -27q-39 -65 -108.5 -104t-160.5 -39z" />
    <glyph glyph-name="ordfeminine" unicode="&#xaa;" horiz-adv-x="696" 
d="M563 803h-49q-20 0 -20 20v41h-5q-50 -73 -190 -73q-92 0 -149.5 46t-57.5 130q0 186 246 186h141q13 0 13 12v41q0 63 -33 89t-123 26q-96 0 -154 -39q-17 -13 -28 2l-21 39q-12 20 4 29q72 55 207 55q132 0 186 -45t54 -154v-385q0 -20 -21 -20zM324 872
q73 0 120.5 31.5t47.5 79.5v80q0 12 -13 12h-133q-162 0 -162 -100q0 -49 37.5 -76t102.5 -27z" />
    <glyph glyph-name="guillemotleft" unicode="&#xab;" horiz-adv-x="1081" 
d="M905 166l-350 360q-6 6 -6 14.5t6 14.5l350 360q6 6 13.5 3.5t7.5 -11.5v-92q0 -22 -15 -37l-227 -229q-8 -9 0 -17l227 -229q15 -15 15 -37v-92q0 -9 -7.5 -11.5t-13.5 3.5zM492 166l-351 360q-6 6 -6 14.5t6 14.5l351 360q6 6 13 3.5t7 -11.5v-92q0 -23 -14 -37
l-228 -229q-8 -9 0 -17l228 -229q14 -14 14 -37v-92q0 -9 -7 -11.5t-13 3.5z" />
    <glyph glyph-name="logicalnot" unicode="&#xac;" 
d="M934 240h-66q-20 0 -20 20v242q0 12 -12 12h-680q-9 0 -15 6t-6 15v61q0 20 21 20h778q20 0 20 -20v-336q0 -20 -20 -20z" />
    <glyph glyph-name="uni00AD" unicode="&#xad;" horiz-adv-x="763" 
d="M645 494h-524q-21 0 -21 20v64q0 20 21 20h524q21 0 21 -20v-64q0 -20 -21 -20z" />
    <glyph glyph-name="registered" unicode="&#xae;" horiz-adv-x="940" 
d="M471 614q-169 0 -282 113.5t-113 282.5q0 167 113 280t282 113q167 0 280 -113t113 -280q0 -169 -113 -282.5t-280 -113.5zM471 674q142 0 237 95.5t95 240.5q0 144 -95 238.5t-237 94.5q-145 0 -239.5 -94t-94.5 -239q0 -146 94.5 -241t239.5 -95zM371 791h-31
q-18 0 -18 18v405q0 19 18 19h162q65 0 102 -35t37 -94q0 -45 -22 -77t-64 -44l86 -172q11 -20 -12 -20h-35q-12 0 -21 14l-86 170h-92q-6 0 -6 -4v-162q0 -18 -18 -18zM500 1036q78 0 78 68q0 70 -78 70h-105q-6 0 -6 -5v-129q0 -4 6 -4h105z" />
    <glyph glyph-name="macron" unicode="&#xaf;" horiz-adv-x="862" 
d="M676 1266h-492q-20 0 -20 20v53q0 21 20 21h492q20 0 20 -21v-53q0 -20 -20 -20z" />
    <glyph glyph-name="degree" unicode="&#xb0;" horiz-adv-x="917" 
d="M457 821q-125 0 -208 83.5t-83 209.5t83 209.5t208 83.5q126 0 209.5 -83.5t83.5 -209.5t-83.5 -209.5t-209.5 -83.5zM457 899q90 0 149.5 61t59.5 154q0 92 -59 153.5t-150 61.5t-149 -61.5t-58 -153.5q0 -93 58.5 -154t148.5 -61z" />
    <glyph glyph-name="plusminus" unicode="&#xb1;" 
d="M578 221h-66q-20 0 -20 21v327q0 13 -13 13h-323q-21 0 -21 20v62q0 20 21 20h323q13 0 13 12v328q0 20 20 20h66q20 0 20 -20v-328q0 -12 12 -12h324q20 0 20 -20v-62q0 -20 -20 -20h-324q-12 0 -12 -13v-327q0 -21 -20 -21zM934 0h-778q-21 0 -21 20v62q0 20 21 20h778
q20 0 20 -20v-62q0 -20 -20 -20z" />
    <glyph glyph-name="twosuperior" unicode="&#xb2;" horiz-adv-x="677" 
d="M569 881h-460q-21 0 -21 20v47q0 14 12 29l320 371q69 79 69 151q0 61 -39 100t-104 39q-61 0 -100 -32t-53 -90q-1 -9 -8.5 -14t-16.5 -3l-47 10q-22 4 -19 25q13 78 78.5 135t165.5 57q110 0 174 -65t64 -162q0 -55 -21.5 -102.5t-68.5 -104.5l-281 -319v-4h356
q9 0 15 -6t6 -15v-47q0 -20 -21 -20z" />
    <glyph glyph-name="threesuperior" unicode="&#xb3;" horiz-adv-x="677" 
d="M340 866q-101 0 -167 46.5t-89 123.5q-6 19 12 25l51 14q16 5 25 -12q21 -48 62.5 -78.5t103.5 -30.5q73 0 117.5 44t44.5 112t-46 113t-120 45h-37q-21 0 -21 20v47q0 9 6 15t15 6h31q69 0 111 38.5t42 104.5q0 63 -40 101t-109 38q-112 0 -150 -96q-6 -19 -22 -16
l-47 12q-20 3 -17 23q16 70 78 117.5t160 47.5q111 0 176 -62t65 -161q0 -115 -106 -184v-2q49 -21 87 -73.5t38 -131.5q0 -108 -70.5 -177t-183.5 -69z" />
    <glyph glyph-name="acute" unicode="&#xb4;" horiz-adv-x="862" 
d="M354 1143h-51q-9 0 -12.5 5.5t0.5 14.5l158 250q12 21 34 21h78q9 0 12.5 -7t-2.5 -14l-180 -250q-17 -20 -37 -20z" />
    <glyph glyph-name="mu" unicode="&#xb5;" horiz-adv-x="1114" 
d="M905 0h-71q-21 0 -21 20v117h-2q-33 -73 -105.5 -115t-168.5 -42q-168 0 -234 104h-4v-432q0 -21 -20 -21h-70q-9 0 -15 6t-6 15v1304q0 9 6 15t15 6h70q20 0 20 -21v-598q0 -133 64 -202.5t188 -69.5q115 0 188.5 73t73.5 199v598q0 9 6 15t15 6h71q9 0 15 -6t6 -15
v-936q0 -20 -21 -20z" />
    <glyph glyph-name="mu" unicode="&#x3bc;" horiz-adv-x="1114" 
d="M905 0h-71q-21 0 -21 20v117h-2q-33 -73 -105.5 -115t-168.5 -42q-168 0 -234 104h-4v-432q0 -21 -20 -21h-70q-9 0 -15 6t-6 15v1304q0 9 6 15t15 6h70q20 0 20 -21v-598q0 -133 64 -202.5t188 -69.5q115 0 188.5 73t73.5 199v598q0 9 6 15t15 6h71q9 0 15 -6t6 -15
v-936q0 -20 -21 -20z" />
    <glyph glyph-name="paragraph" unicode="&#xb6;" horiz-adv-x="1167" 
d="M965 -369h-64q-20 0 -20 21v1626q0 12 -13 12h-196q-13 0 -13 -12v-1626q0 -21 -20 -21h-64q-20 0 -20 21v893q-182 10 -288.5 128t-106.5 296q0 186 118 305t332 119h355q20 0 20 -21v-1720q0 -21 -20 -21z" />
    <glyph glyph-name="periodcentered" unicode="&#xb7;" horiz-adv-x="448" 
d="M274 455h-100q-20 0 -20 20v137q0 21 20 21h100q9 0 15 -6t6 -15v-137q0 -20 -21 -20z" />
    <glyph glyph-name="cedilla" unicode="&#xb8;" horiz-adv-x="862" 
d="M410 -303h-64q-9 0 -13 5.5t-1 14.5l110 283q9 20 27 20h53q9 0 13.5 -5.5t1.5 -14.5l-95 -283q-8 -20 -32 -20z" />
    <glyph glyph-name="onesuperior" unicode="&#xb9;" horiz-adv-x="677" 
d="M401 881h-53q-20 0 -20 20v694h-2l-142 -96q-8 -5 -14 -2t-6 12v66q0 21 14 29l139 96q18 12 33 12h51q21 0 21 -20v-791q0 -20 -21 -20z" />
    <glyph glyph-name="ordmasculine" unicode="&#xba;" horiz-adv-x="708" 
d="M354 788q-188 0 -243 164q-21 65 -21 146q0 80 21 145q55 164 243 164q189 0 244 -164q20 -62 20 -145q0 -84 -20 -146q-55 -164 -244 -164zM354 877q116 0 150 106q16 46 16 115q0 68 -16 114q-34 107 -150 107q-115 0 -149 -107q-17 -49 -17 -114q0 -66 17 -115
q34 -106 149 -106z" />
    <glyph glyph-name="guillemotright" unicode="&#xbb;" horiz-adv-x="1081" 
d="M590 166q-6 -6 -13.5 -3.5t-7.5 11.5v92q0 22 15 37l227 229q9 8 0 17l-227 229q-15 15 -15 37v92q0 9 7.5 11.5t13.5 -3.5l350 -360q14 -15 0 -29zM176 166q-6 -6 -13 -3.5t-7 11.5v92q0 23 14 37l227 229q9 8 0 17l-227 229q-14 14 -14 37v92q0 9 7 11.5t13 -3.5
l350 -360q14 -15 0 -29z" />
    <glyph glyph-name="onequarter" unicode="&#xbc;" horiz-adv-x="1695" 
d="M438 561h-53q-20 0 -20 21v694h-3l-141 -96q-7 -5 -13.5 -2t-6.5 12v65q0 21 14 29l139 96q20 13 33 13h51q9 0 15 -6t6 -15v-790q0 -9 -6 -15t-15 -6zM1370 0h-51q-21 0 -21 20v123q0 13 -12 13h-330q-20 0 -20 20v45q0 17 8 33l273 557q9 20 26 20h60q9 0 12.5 -6.5
t-0.5 -13.5l-273 -565v-2h244q12 0 12 12v201q0 20 21 20h51q21 0 21 -20v-201q0 -12 12 -12h74q20 0 20 -21v-47q0 -20 -20 -20h-74q-12 0 -12 -13v-123q0 -20 -21 -20zM434 -20h-55q-9 0 -12.5 5.5t0.5 14.5l807 1393q11 20 28 20h55q9 0 13 -5.5t0 -14.5l-807 -1393
q-11 -20 -29 -20z" />
    <glyph glyph-name="onehalf" unicode="&#xbd;" horiz-adv-x="1759" 
d="M438 561h-53q-20 0 -20 21v694h-3l-141 -96q-7 -5 -13.5 -2t-6.5 12v65q0 21 14 29l139 96q20 13 33 13h51q9 0 15 -6t6 -15v-790q0 -9 -6 -15t-15 -6zM1538 0h-461q-20 0 -20 20v48q0 13 12 28l320 371q69 79 69 151q0 61 -39 100.5t-104 39.5q-61 0 -100.5 -32.5
t-53.5 -90.5q-3 -20 -24 -17l-47 11q-22 4 -19 24q13 78 78.5 135.5t165.5 57.5q110 0 173.5 -65t63.5 -163q0 -55 -21.5 -102t-68.5 -104l-280 -320v-4h356q21 0 21 -20v-48q0 -20 -21 -20zM434 -20h-55q-9 0 -12.5 5.5t0.5 14.5l807 1393q11 20 28 20h55q9 0 13 -5.5
t0 -14.5l-807 -1393q-11 -20 -29 -20z" />
    <glyph glyph-name="threequarters" unicode="&#xbe;" horiz-adv-x="1837" 
d="M1509 0h-51q-20 0 -20 20v123q0 13 -13 13h-329q-21 0 -21 20v45q0 17 8 33l273 557q9 20 26 20h60q9 0 12.5 -6.5t-0.5 -13.5l-272 -565v-2h243q13 0 13 12v201q0 20 20 20h51q21 0 21 -20v-201q0 -12 12 -12h74q20 0 20 -21v-47q0 -20 -20 -20h-74q-12 0 -12 -13v-123
q0 -20 -21 -20zM575 -20h-55q-9 0 -12.5 5.5t0.5 14.5l807 1393q11 20 28 20h56q9 0 12.5 -5.5t-0.5 -14.5l-807 -1393q-11 -20 -29 -20zM457 547q-101 0 -167 46.5t-89 123.5q-6 18 12 24l51 15q16 5 25 -13q21 -47 62.5 -77.5t103.5 -30.5q73 0 117 44t44 112t-45.5 112.5
t-119.5 44.5h-37q-9 0 -15 6t-6 15v47q0 20 21 20h30q69 0 111.5 39t42.5 105q0 63 -40 101t-109 38q-112 0 -150 -96q-7 -20 -23 -17l-47 13q-19 3 -16 22q16 70 78 118t160 48q111 0 176 -62t65 -161q0 -116 -106 -185v-2q49 -21 87 -73t38 -131q0 -108 -70.5 -177
t-183.5 -69z" />
    <glyph glyph-name="questiondown" unicode="&#xbf;" horiz-adv-x="913" 
d="M518 600v-80q0 -65 -14 -109t-51 -92l-113 -149q-75 -92 -100 -147t-25 -121q0 -108 68 -170t174 -62q101 0 166.5 59.5t87.5 170.5q3 19 22 16l70 -12q20 -3 16 -25q-22 -142 -118.5 -228.5t-245.5 -86.5q-157 0 -255 94.5t-98 243.5q0 82 28 147t97 148l113 151
q41 50 53.5 85.5t12.5 94.5v72q0 21 20 21h72q20 0 20 -21zM535 956v-137q0 -20 -21 -20h-102q-21 0 -21 20v137q0 9 6 15t15 6h102q9 0 15 -6t6 -15z" />
    <glyph glyph-name="Agrave" unicode="&#xc0;" horiz-adv-x="1220" 
d="M63 20l488 1352q7 21 24 21h74q18 0 25 -21l483 -1352q3 -9 -1 -14.5t-13 -5.5h-80q-22 0 -27 20l-123 342h-606l-123 -342q-8 -20 -26 -20h-80q-9 0 -13.5 5.5t-1.5 14.5zM346 475h528l-260 729h-6zM637 1565h-53q-21 0 -37 18l-197 215q-6 8 -3.5 14.5t11.5 6.5h82
q22 0 37 -21l168 -213q7 -9 4 -14.5t-12 -5.5z" />
    <glyph glyph-name="Aacute" unicode="&#xc1;" horiz-adv-x="1220" 
d="M63 20l488 1352q7 21 24 21h74q18 0 25 -21l483 -1352q3 -9 -1 -14.5t-13 -5.5h-80q-22 0 -27 20l-123 342h-606l-123 -342q-8 -20 -26 -20h-80q-9 0 -13.5 5.5t-1.5 14.5zM346 475h528l-260 729h-6zM643 1565h-53q-10 0 -12.5 5.5t4.5 14.5l168 213q15 21 36 21h82
q9 0 12 -6.5t-3 -14.5l-197 -215q-16 -18 -37 -18z" />
    <glyph glyph-name="Acircumflex" unicode="&#xc2;" horiz-adv-x="1220" 
d="M63 20l488 1352q7 21 24 21h74q18 0 25 -21l483 -1352q3 -9 -1 -14.5t-13 -5.5h-80q-22 0 -27 20l-123 342h-606l-123 -342q-8 -20 -26 -20h-80q-9 0 -13.5 5.5t-1.5 14.5zM346 475h528l-260 729h-6zM842 1544h-51q-19 0 -35 21l-146 174h-4l-143 -174q-18 -21 -35 -21
h-51q-9 0 -11.5 7t3.5 14l184 252q13 18 33 18h47q18 0 31 -18l186 -252q6 -7 3.5 -14t-11.5 -7z" />
    <glyph glyph-name="Atilde" unicode="&#xc3;" horiz-adv-x="1220" 
d="M63 20l488 1352q7 21 24 21h74q18 0 25 -21l483 -1352q3 -9 -1 -14.5t-13 -5.5h-80q-22 0 -27 20l-123 342h-606l-123 -342q-8 -20 -26 -20h-80q-9 0 -13.5 5.5t-1.5 14.5zM346 475h528l-260 729h-6zM717 1602q-54 0 -123 43q-59 36 -100 36q-32 0 -58.5 -16.5
t-60.5 -50.5q-7 -6 -13 -4t-6 10v61q0 14 17 31q55 62 125 62q51 0 123 -41q53 -37 100 -37q57 0 121 67q6 6 11 4t5 -10v-61q0 -17 -14 -33q-61 -61 -127 -61z" />
    <glyph glyph-name="Adieresis" unicode="&#xc4;" horiz-adv-x="1220" 
d="M63 20l488 1352q7 21 24 21h74q18 0 25 -21l483 -1352q3 -9 -1 -14.5t-13 -5.5h-80q-22 0 -27 20l-123 342h-606l-123 -342q-8 -20 -26 -20h-80q-9 0 -13.5 5.5t-1.5 14.5zM346 475h528l-260 729h-6zM854 1610h-80q-20 0 -20 20v115q0 20 20 20h80q20 0 20 -20v-115
q0 -20 -20 -20zM444 1610h-79q-21 0 -21 20v115q0 20 21 20h79q21 0 21 -20v-115q0 -20 -21 -20z" />
    <glyph glyph-name="Aring" unicode="&#xc5;" horiz-adv-x="1220" 
d="M63 20l488 1352q7 21 24 21h74q18 0 25 -21l483 -1352q3 -9 -1 -14.5t-13 -5.5h-80q-22 0 -27 20l-123 342h-606l-123 -342q-8 -20 -26 -20h-80q-9 0 -13.5 5.5t-1.5 14.5zM346 475h528l-260 729h-6zM788 1692q0 -78 -51 -129.5t-129 -51.5t-129 51.5t-51 129.5t51 129
t129 51t129 -51t51 -129zM717 1692q0 50 -30 82t-79 32t-78.5 -32t-29.5 -82t29.5 -82.5t78.5 -32.5t79 32.5t30 82.5z" />
    <glyph glyph-name="AE" unicode="&#xc6;" horiz-adv-x="1927" 
d="M1798 0h-797q-20 0 -20 20v330q0 12 -12 12h-559l-213 -342q-10 -20 -29 -20h-90q-9 0 -12.5 6t0.5 14l833 1354q13 19 31 19h868q9 0 15 -6t6 -15v-69q0 -9 -6 -15t-15 -6h-688q-12 0 -12 -12v-496q0 -12 12 -12h592q20 0 20 -21v-69q0 -21 -20 -21h-592q-12 0 -12 -12
v-516q0 -12 12 -12h688q9 0 15 -6t6 -15v-70q0 -20 -21 -20zM977 1280l-498 -805h490q12 0 12 12v793h-4z" />
    <glyph glyph-name="Ccedilla" unicode="&#xc7;" horiz-adv-x="1138" 
d="M537 -303h-64q-9 0 -13 5.5t-1 14.5l102 265q-294 19 -391 309q-37 113 -37 405q0 293 37 406q104 311 440 311q144 0 252.5 -66t167.5 -192q8 -19 -6 -27l-68 -32q-16 -9 -26 8q-105 199 -320 199q-246 0 -327 -232q-31 -95 -31 -375q0 -279 31 -374q81 -232 327 -232
q215 0 320 199q10 17 26 8l68 -33q13 -8 6 -26q-108 -231 -373 -256l-88 -265q-7 -20 -32 -20z" />
    <glyph glyph-name="Egrave" unicode="&#xc8;" horiz-adv-x="1138" 
d="M672 1565h-54q-20 0 -36 18l-197 215q-6 8 -3.5 14.5t11.5 6.5h82q22 0 37 -21l168 -213q7 -9 4.5 -14.5t-12.5 -5.5zM193 20v1352q0 21 20 21h797q20 0 20 -21v-69q0 -21 -20 -21h-688q-13 0 -13 -12v-496q0 -12 13 -12h591q9 0 15 -6t6 -15v-69q0 -9 -6 -15t-15 -6
h-591q-13 0 -13 -12v-516q0 -12 13 -12h688q20 0 20 -21v-70q0 -20 -20 -20h-797q-20 0 -20 20z" />
    <glyph glyph-name="Eacute" unicode="&#xc9;" horiz-adv-x="1138" 
d="M580 1565h-54q-10 0 -12.5 5.5t4.5 14.5l168 213q15 21 37 21h82q9 0 11.5 -6.5t-3.5 -14.5l-197 -215q-16 -18 -36 -18zM193 20v1352q0 21 20 21h797q20 0 20 -21v-69q0 -21 -20 -21h-688q-13 0 -13 -12v-496q0 -12 13 -12h591q9 0 15 -6t6 -15v-69q0 -9 -6 -15t-15 -6
h-591q-13 0 -13 -12v-516q0 -12 13 -12h688q20 0 20 -21v-70q0 -20 -20 -20h-797q-20 0 -20 20z" />
    <glyph glyph-name="Ecircumflex" unicode="&#xca;" horiz-adv-x="1138" 
d="M193 20v1352q0 21 20 21h797q20 0 20 -21v-69q0 -21 -20 -21h-688q-13 0 -13 -12v-496q0 -12 13 -12h591q9 0 15 -6t6 -15v-69q0 -9 -6 -15t-15 -6h-591q-13 0 -13 -12v-516q0 -12 13 -12h688q20 0 20 -21v-70q0 -20 -20 -20h-797q-20 0 -20 20zM844 1544h-51
q-19 0 -35 21l-146 174h-4l-143 -174q-18 -21 -35 -21h-51q-9 0 -11.5 7t3.5 14l184 252q13 18 33 18h47q18 0 31 -18l186 -252q6 -7 3.5 -14t-11.5 -7z" />
    <glyph glyph-name="Edieresis" unicode="&#xcb;" horiz-adv-x="1138" 
d="M846 1610h-80q-21 0 -21 20v115q0 20 21 20h80q20 0 20 -20v-115q0 -20 -20 -20zM436 1610h-80q-20 0 -20 20v115q0 20 20 20h80q21 0 21 -20v-115q0 -20 -21 -20zM193 20v1352q0 21 20 21h797q20 0 20 -21v-69q0 -21 -20 -21h-688q-13 0 -13 -12v-496q0 -12 13 -12h591
q9 0 15 -6t6 -15v-69q0 -9 -6 -15t-15 -6h-591q-13 0 -13 -12v-516q0 -12 13 -12h688q20 0 20 -21v-70q0 -20 -20 -20h-797q-20 0 -20 20z" />
    <glyph glyph-name="Igrave" unicode="&#xcc;" horiz-adv-x="501" 
d="M193 20v1352q0 21 20 21h76q20 0 20 -21v-1352q0 -20 -20 -20h-76q-20 0 -20 20zM287 1565h-54q-20 0 -36 18l-197 215q-6 8 -3.5 14.5t11.5 6.5h82q22 0 37 -21l168 -213q7 -9 4 -14.5t-12 -5.5z" />
    <glyph glyph-name="Iacute" unicode="&#xcd;" horiz-adv-x="501" 
d="M193 20v1352q0 21 20 21h76q20 0 20 -21v-1352q0 -20 -20 -20h-76q-20 0 -20 20zM283 1565h-54q-9 0 -12 5.5t4 14.5l168 213q15 21 37 21h82q9 0 11.5 -6.5t-3.5 -14.5l-197 -215q-16 -18 -36 -18z" />
    <glyph glyph-name="Icircumflex" unicode="&#xce;" horiz-adv-x="501" 
d="M193 20v1352q0 21 20 21h76q20 0 20 -21v-1352q0 -20 -20 -20h-76q-20 0 -20 20zM485 1544h-51q-19 0 -35 21l-145 174h-4l-144 -174q-18 -21 -34 -21h-52q-9 0 -11.5 7t3.5 14l185 252q13 18 32 18h47q18 0 31 -18l187 -252q6 -7 3 -14t-12 -7z" />
    <glyph glyph-name="Idieresis" unicode="&#xcf;" horiz-adv-x="501" 
d="M193 20v1352q0 21 20 21h76q20 0 20 -21v-1352q0 -20 -20 -20h-76q-20 0 -20 20zM498 1610h-80q-21 0 -21 20v115q0 20 21 20h80q20 0 20 -20v-115q0 -20 -20 -20zM88 1610h-80q-20 0 -20 20v115q0 20 20 20h80q21 0 21 -20v-115q0 -20 -21 -20z" />
    <glyph glyph-name="Eth" unicode="&#xd0;" horiz-adv-x="1269" 
d="M649 0h-436q-20 0 -20 20v623q0 12 -13 12h-82q-20 0 -20 21v61q0 21 20 21h82q13 0 13 12v602q0 21 20 21h436q354 0 445 -283q22 -66 30.5 -149.5t8.5 -264.5t-8.5 -264t-30.5 -149q-91 -283 -445 -283zM633 111q278 0 348 211q18 54 25.5 129.5t7.5 244.5t-7.5 245
t-25.5 130q-70 211 -348 211h-311q-13 0 -13 -12v-500q0 -12 13 -12h266q20 0 20 -21v-61q0 -21 -20 -21h-266q-13 0 -13 -12v-520q0 -12 13 -12h311z" />
    <glyph glyph-name="Ntilde" unicode="&#xd1;" horiz-adv-x="1333" 
d="M774 1602q-54 0 -123 43q-59 36 -100 36q-32 0 -58.5 -16.5t-60.5 -50.5q-8 -6 -13 -4t-5 10v61q0 15 16 31q55 62 125 62q51 0 123 -41q53 -37 100 -37q57 0 121 67q6 6 11 4t5 -10v-61q0 -17 -14 -33q-61 -61 -127 -61zM193 20v1352q0 21 20 21h76q25 0 35 -21
l694 -1145h6v1145q0 21 20 21h76q9 0 15 -6t6 -15v-1352q0 -20 -21 -20h-80q-22 0 -34 20l-689 1147h-8v-1147q0 -20 -20 -20h-76q-20 0 -20 20z" />
    <glyph glyph-name="Ograve" unicode="&#xd2;" horiz-adv-x="1247" 
d="M684 1565h-53q-21 0 -37 18l-197 215q-6 8 -3 14.5t12 6.5h81q22 0 37 -21l168 -213q7 -9 4.5 -14.5t-12.5 -5.5zM625 -20q-170 0 -285 79.5t-166 233.5q-21 62 -31 148.5t-10 254.5t10 255t31 149q51 154 166 233.5t285 79.5q169 0 283 -79.5t165 -233.5q21 -62 31 -149
t10 -255t-10 -254.5t-31 -148.5q-51 -154 -165 -233.5t-283 -79.5zM995 696q0 267 -34 371q-78 236 -336 236q-260 0 -338 -236q-35 -107 -35 -371q0 -263 35 -370q78 -236 338 -236q258 0 336 236q34 104 34 370z" />
    <glyph glyph-name="Oacute" unicode="&#xd3;" horiz-adv-x="1247" 
d="M614 1565h-53q-9 0 -12 5.5t4 14.5l168 213q15 21 37 21h82q9 0 11.5 -6.5t-3.5 -14.5l-197 -215q-16 -18 -37 -18zM625 -20q-170 0 -285 79.5t-166 233.5q-21 62 -31 148.5t-10 254.5t10 255t31 149q51 154 166 233.5t285 79.5q169 0 283 -79.5t165 -233.5
q21 -62 31 -149t10 -255t-10 -254.5t-31 -148.5q-51 -154 -165 -233.5t-283 -79.5zM995 696q0 267 -34 371q-78 236 -336 236q-260 0 -338 -236q-35 -107 -35 -371q0 -263 35 -370q78 -236 338 -236q258 0 336 236q34 104 34 370z" />
    <glyph glyph-name="Ocircumflex" unicode="&#xd4;" horiz-adv-x="1247" 
d="M625 -20q-170 0 -285 79.5t-166 233.5q-21 62 -31 148.5t-10 254.5t10 255t31 149q51 154 166 233.5t285 79.5q169 0 283 -79.5t165 -233.5q21 -62 31 -149t10 -255t-10 -254.5t-31 -148.5q-51 -154 -165 -233.5t-283 -79.5zM995 696q0 267 -34 371q-78 236 -336 236
q-260 0 -338 -236q-35 -107 -35 -371q0 -263 35 -370q78 -236 338 -236q258 0 336 236q34 104 34 370zM856 1544h-51q-19 0 -35 21l-145 174h-4l-144 -174q-18 -21 -35 -21h-51q-9 0 -11.5 7t3.5 14l184 252q13 18 33 18h47q18 0 31 -18l186 -252q6 -7 3.5 -14t-11.5 -7z
" />
    <glyph glyph-name="Otilde" unicode="&#xd5;" horiz-adv-x="1247" 
d="M733 1602q-54 0 -123 43q-59 36 -100 36q-32 0 -58.5 -16.5t-60.5 -50.5q-7 -6 -12.5 -4t-5.5 10v61q0 15 16 31q55 62 125 62q51 0 123 -41q53 -37 100 -37q57 0 121 67q6 6 11 4t5 -10v-61q0 -17 -14 -33q-61 -61 -127 -61zM625 -20q-170 0 -285 79.5t-166 233.5
q-21 62 -31 148.5t-10 254.5t10 255t31 149q51 154 166 233.5t285 79.5q169 0 283 -79.5t165 -233.5q21 -62 31 -149t10 -255t-10 -254.5t-31 -148.5q-51 -154 -165 -233.5t-283 -79.5zM995 696q0 267 -34 371q-78 236 -336 236q-260 0 -338 -236q-35 -107 -35 -371
q0 -263 35 -370q78 -236 338 -236q258 0 336 236q34 104 34 370z" />
    <glyph glyph-name="Odieresis" unicode="&#xd6;" horiz-adv-x="1247" 
d="M868 1610h-80q-20 0 -20 20v115q0 20 20 20h80q21 0 21 -20v-115q0 -20 -21 -20zM459 1610h-80q-21 0 -21 20v115q0 20 21 20h80q20 0 20 -20v-115q0 -20 -20 -20zM625 -20q-170 0 -285 79.5t-166 233.5q-21 62 -31 148.5t-10 254.5t10 255t31 149q51 154 166 233.5
t285 79.5q169 0 283 -79.5t165 -233.5q21 -62 31 -149t10 -255t-10 -254.5t-31 -148.5q-51 -154 -165 -233.5t-283 -79.5zM995 696q0 267 -34 371q-78 236 -336 236q-260 0 -338 -236q-35 -107 -35 -371q0 -263 35 -370q78 -236 338 -236q258 0 336 236q34 104 34 370z" />
    <glyph glyph-name="multiply" unicode="&#xd7;" 
d="M885 268l-41 -45q-6 -6 -14.5 -6t-14.5 6l-260 260q-8 8 -16 0l-263 -260q-14 -14 -28 0l-41 45q-6 6 -6 14.5t6 14.5l260 260q8 8 0 16l-260 261q-14 14 0 28l41 45q14 14 28 0l263 -260q8 -8 16 0l260 260q6 6 14.5 6t14.5 -6l41 -45q14 -14 0 -28l-260 -261
q-8 -8 0 -16l260 -260q6 -6 6 -14.5t-6 -14.5z" />
    <glyph glyph-name="Oslash" unicode="&#xd8;" horiz-adv-x="1247" 
d="M625 -20q-189 0 -310 98l-67 -119q-10 -20 -31 -20h-49q-9 0 -12.5 5.5t0.5 14.5l100 176q-52 67 -82 158q-21 62 -31 148.5t-10 254.5t10 255t31 149q51 154 166 233.5t285 79.5q188 0 307 -98l67 119q10 20 31 20h49q9 0 13 -5.5t0 -14.5l-103 -179q54 -66 84 -155
q21 -62 31 -149t10 -255t-10 -254.5t-31 -148.5q-51 -154 -165 -233.5t-283 -79.5zM287 326q10 -37 35 -78l550 964q-94 91 -247 91q-260 0 -338 -236q-35 -107 -35 -371q0 -263 35 -370zM995 696q0 267 -34 371q-17 47 -35 76l-551 -965q91 -88 250 -88q258 0 336 236
q34 104 34 370z" />
    <glyph glyph-name="Ugrave" unicode="&#xd9;" horiz-adv-x="1300" 
d="M709 1565h-54q-21 0 -37 18l-196 215q-6 8 -3.5 14.5t11.5 6.5h82q22 0 37 -21l168 -213q7 -9 4 -14.5t-12 -5.5zM295 1372v-893q0 -193 92.5 -291t261.5 -98q171 0 264 98t93 291v893q0 21 20 21h76q20 0 20 -21v-891q0 -249 -125 -375t-348 -126q-221 0 -346 126
t-125 375v891q0 9 6 15t15 6h75q9 0 15 -6t6 -15z" />
    <glyph glyph-name="Uacute" unicode="&#xda;" horiz-adv-x="1300" 
d="M639 1565h-53q-10 0 -12.5 5.5t4.5 14.5l167 213q15 21 37 21h82q9 0 11.5 -6.5t-3.5 -14.5l-196 -215q-16 -18 -37 -18zM295 1372v-893q0 -193 92.5 -291t261.5 -98q171 0 264 98t93 291v893q0 21 20 21h76q20 0 20 -21v-891q0 -249 -125 -375t-348 -126
q-221 0 -346 126t-125 375v891q0 9 6 15t15 6h75q9 0 15 -6t6 -15z" />
    <glyph glyph-name="Ucircumflex" unicode="&#xdb;" horiz-adv-x="1300" 
d="M295 1372v-893q0 -193 92.5 -291t261.5 -98q171 0 264 98t93 291v893q0 21 20 21h76q20 0 20 -21v-891q0 -249 -125 -375t-348 -126q-221 0 -346 126t-125 375v891q0 9 6 15t15 6h75q9 0 15 -6t6 -15zM883 1544h-52q-18 0 -34 21l-146 174h-4l-143 -174q-18 -21 -35 -21
h-51q-9 0 -11.5 7t3.5 14l184 252q13 18 33 18h47q18 0 31 -18l186 -252q6 -7 3.5 -14t-11.5 -7z" />
    <glyph glyph-name="Udieresis" unicode="&#xdc;" horiz-adv-x="1300" 
d="M895 1610h-80q-20 0 -20 20v115q0 20 20 20h80q20 0 20 -20v-115q0 -20 -20 -20zM485 1610h-79q-21 0 -21 20v115q0 20 21 20h79q21 0 21 -20v-115q0 -20 -21 -20zM295 1372v-893q0 -193 92.5 -291t261.5 -98q171 0 264 98t93 291v893q0 21 20 21h76q20 0 20 -21v-891
q0 -249 -125 -375t-348 -126q-221 0 -346 126t-125 375v891q0 9 6 15t15 6h75q9 0 15 -6t6 -15z" />
    <glyph glyph-name="Yacute" unicode="&#xdd;" horiz-adv-x="1054" 
d="M565 0h-76q-20 0 -20 20v551l-418 799q-3 8 2 15.5t15 7.5h79q21 0 31 -21l350 -665h7l344 665q6 12 12 16.5t18 4.5h78q11 0 15.5 -7.5t1.5 -15.5l-418 -799v-551q0 -20 -21 -20zM535 1565h-54q-9 0 -12 5.5t4 14.5l168 213q15 21 37 21h82q9 0 11.5 -6.5t-3.5 -14.5
l-197 -215q-16 -18 -36 -18z" />
    <glyph glyph-name="Thorn" unicode="&#xde;" horiz-adv-x="1198" 
d="M289 0h-76q-20 0 -20 20v1352q0 21 20 21h76q20 0 20 -21v-256q0 -12 13 -12h356q199 0 313.5 -105t114.5 -288t-114.5 -289.5t-313.5 -106.5h-356q-13 0 -13 -12v-283q0 -20 -20 -20zM674 426q152 0 233.5 75t81.5 210t-81 208.5t-234 73.5h-352q-13 0 -13 -12v-543
q0 -12 13 -12h352z" />
    <glyph glyph-name="germandbls" unicode="&#xdf;" horiz-adv-x="1103" 
d="M608 -10h-30q-21 0 -21 20v66q0 20 21 20h28q96 0 151 30t79 101q18 53 18 226q0 175 -20 231q-22 71 -79.5 101t-152.5 32h-24q-9 0 -15 6t-6 15v65q0 9 6 15t15 6h30q117 0 171.5 45t54.5 143q0 94 -65 145.5t-189 51.5q-152 0 -216.5 -68t-64.5 -225v-996
q0 -20 -20 -20h-70q-21 0 -21 20v996q0 198 92 297.5t298 99.5q180 0 273 -79.5t93 -221.5q0 -177 -145 -238v-4q106 -40 143 -151q23 -73 23 -266q0 -185 -23 -271q-34 -102 -117 -147t-217 -45z" />
    <glyph glyph-name="agrave" unicode="&#xe0;" horiz-adv-x="1050" 
d="M512 895q-156 0 -246 -74q-17 -14 -30 2l-35 51q-10 16 6 29q112 94 311 94q193 0 274.5 -72.5t81.5 -250.5v-654q0 -20 -20 -20h-66q-20 0 -20 20v103h-2q-31 -64 -109 -103.5t-194 -39.5q-151 0 -239.5 74.5t-88.5 213.5q0 144 95 216.5t276 72.5h248q12 0 12 12v101
q0 123 -54 174t-200 51zM485 82q126 0 203.5 60t77.5 159v150q0 12 -12 12h-234q-144 0 -210 -47.5t-66 -145.5q0 -92 62 -140t179 -48zM629 1143h-51q-20 0 -37 20l-181 250q-6 7 -2 14t13 7h78q20 0 32 -21l158 -250q6 -9 2.5 -14.5t-12.5 -5.5z" />
    <glyph glyph-name="aacute" unicode="&#xe1;" horiz-adv-x="1050" 
d="M512 895q-156 0 -246 -74q-17 -14 -30 2l-35 51q-10 16 6 29q112 94 311 94q193 0 274.5 -72.5t81.5 -250.5v-654q0 -20 -20 -20h-66q-20 0 -20 20v103h-2q-31 -64 -109 -103.5t-194 -39.5q-151 0 -239.5 74.5t-88.5 213.5q0 144 95 216.5t276 72.5h248q12 0 12 12v101
q0 123 -54 174t-200 51zM485 82q126 0 203.5 60t77.5 159v150q0 12 -12 12h-234q-144 0 -210 -47.5t-66 -145.5q0 -92 62 -140t179 -48zM535 1143h-52q-9 0 -12.5 5.5t0.5 14.5l158 250q12 21 35 21h77q9 0 13 -7t-2 -14l-181 -250q-17 -20 -36 -20z" />
    <glyph glyph-name="acircumflex" unicode="&#xe2;" horiz-adv-x="1050" 
d="M512 895q-156 0 -246 -74q-17 -14 -30 2l-35 51q-10 16 6 29q112 94 311 94q193 0 274.5 -72.5t81.5 -250.5v-654q0 -20 -20 -20h-66q-20 0 -20 20v103h-2q-31 -64 -109 -103.5t-194 -39.5q-151 0 -239.5 74.5t-88.5 213.5q0 144 95 216.5t276 72.5h248q12 0 12 12v101
q0 123 -54 174t-200 51zM485 82q126 0 203.5 60t77.5 159v150q0 12 -12 12h-234q-144 0 -210 -47.5t-66 -145.5q0 -92 62 -140t179 -48zM758 1143h-51q-20 0 -35 20l-146 174h-4l-143 -174q-17 -20 -35 -20h-51q-9 0 -11.5 6.5t3.5 13.5l184 252q14 19 33 19h47q17 0 31 -19
l186 -252q6 -7 3.5 -13.5t-11.5 -6.5z" />
    <glyph glyph-name="atilde" unicode="&#xe3;" horiz-adv-x="1050" 
d="M512 895q-156 0 -246 -74q-17 -14 -30 2l-35 51q-10 16 6 29q112 94 311 94q193 0 274.5 -72.5t81.5 -250.5v-654q0 -20 -20 -20h-66q-20 0 -20 20v103h-2q-31 -64 -109 -103.5t-194 -39.5q-151 0 -239.5 74.5t-88.5 213.5q0 144 95 216.5t276 72.5h248q12 0 12 12v101
q0 123 -54 174t-200 51zM485 82q126 0 203.5 60t77.5 159v150q0 12 -12 12h-234q-144 0 -210 -47.5t-66 -145.5q0 -92 62 -140t179 -48zM633 1221q-54 0 -123 43q-59 36 -100 36q-32 0 -58.5 -16.5t-60.5 -50.5q-7 -6 -13 -4t-6 10v61q0 14 17 31q55 62 125 62q51 0 123 -41
q53 -37 100 -37q57 0 121 67q6 6 11 4t5 -10v-61q0 -17 -14 -33q-61 -61 -127 -61z" />
    <glyph glyph-name="adieresis" unicode="&#xe4;" horiz-adv-x="1050" 
d="M512 895q-156 0 -246 -74q-17 -14 -30 2l-35 51q-10 16 6 29q112 94 311 94q193 0 274.5 -72.5t81.5 -250.5v-654q0 -20 -20 -20h-66q-20 0 -20 20v103h-2q-31 -64 -109 -103.5t-194 -39.5q-151 0 -239.5 74.5t-88.5 213.5q0 144 95 216.5t276 72.5h248q12 0 12 12v101
q0 123 -54 174t-200 51zM485 82q126 0 203.5 60t77.5 159v150q0 12 -12 12h-234q-144 0 -210 -47.5t-66 -145.5q0 -92 62 -140t179 -48zM768 1237h-82q-20 0 -20 20v115q0 21 20 21h82q20 0 20 -21v-115q0 -20 -20 -20zM360 1237h-81q-21 0 -21 20v115q0 9 6 15t15 6h81
q9 0 15 -6t6 -15v-115q0 -20 -21 -20z" />
    <glyph glyph-name="aring" unicode="&#xe5;" horiz-adv-x="1050" 
d="M512 895q-156 0 -246 -74q-17 -14 -30 2l-35 51q-10 16 6 29q112 94 311 94q193 0 274.5 -72.5t81.5 -250.5v-654q0 -20 -20 -20h-66q-20 0 -20 20v103h-2q-31 -64 -109 -103.5t-194 -39.5q-151 0 -239.5 74.5t-88.5 213.5q0 144 95 216.5t276 72.5h248q12 0 12 12v101
q0 123 -54 174t-200 51zM485 82q126 0 203.5 60t77.5 159v150q0 12 -12 12h-234q-144 0 -210 -47.5t-66 -145.5q0 -92 62 -140t179 -48zM709 1288q0 -78 -51.5 -129t-129.5 -51t-129 51t-51 129t51 129t129 51t129.5 -51t51.5 -129zM637 1288q0 50 -30 82.5t-79 32.5
t-78.5 -32.5t-29.5 -82.5t29.5 -82t78.5 -32t79 32t30 82z" />
    <glyph glyph-name="ae" unicode="&#xe6;" horiz-adv-x="1667" 
d="M512 895q-156 0 -246 -74q-17 -14 -30 2l-35 51q-10 16 6 29q112 94 311 94q136 0 215.5 -38t106.5 -125h4q94 163 309 163q133 0 229.5 -66t135.5 -188q28 -85 28 -260q0 -20 -22 -20h-637q-13 0 -13 -14q0 -105 21 -173q66 -190 276 -190q174 0 273 125q13 17 29 4
l47 -43q15 -12 2 -29q-56 -75 -148 -119t-209 -44q-244 0 -342 190h-2q-80 -190 -358 -190q-151 0 -239.5 74.5t-88.5 213.5q0 144 95 216.5t276 72.5h248q12 0 12 12v101q0 123 -54 174t-200 51zM887 557h534q13 0 13 12q0 80 -19 142q-29 90 -96.5 137t-165.5 47
q-96 0 -163.5 -47t-96.5 -137q-19 -62 -19 -142q0 -12 13 -12zM485 82q126 0 203.5 60t77.5 159v150q0 12 -12 12h-234q-144 0 -210 -47.5t-66 -145.5q0 -92 62 -140t179 -48z" />
    <glyph glyph-name="ccedilla" unicode="&#xe7;" horiz-adv-x="962" 
d="M444 -303h-63q-9 0 -13 5.5t-1 14.5l102 267q-117 11 -199 75.5t-116 173.5q-31 105 -31 254q0 151 31 256q38 120 133.5 187t230.5 67q219 0 330 -184q10 -17 -6 -27l-58 -36q-16 -9 -26 8q-44 69 -100 101t-140 32q-96 0 -161.5 -47t-94.5 -137q-26 -77 -26 -220
q0 -140 26 -217q29 -90 94.5 -137t161.5 -47q84 0 140 32t100 101q10 17 26 8l58 -37q16 -10 6 -26q-103 -165 -283 -182l-88 -265q-7 -20 -33 -20z" />
    <glyph glyph-name="egrave" unicode="&#xe8;" horiz-adv-x="1028" 
d="M526 -20q-142 0 -237.5 66t-136.5 192q-29 95 -29 251q0 159 29 254q39 122 134 188t228 66t229.5 -66t135.5 -188q28 -85 28 -260q0 -20 -22 -20h-637q-12 0 -12 -14q0 -109 20 -173q66 -190 276 -190q174 0 273 125q13 17 29 4l47 -43q15 -12 2 -29q-56 -75 -148 -119
t-209 -44zM248 557h534q13 0 13 12q0 80 -19 142q-29 90 -96.5 137t-165.5 47q-96 0 -163.5 -47t-96.5 -137q-18 -59 -18 -142q0 -12 12 -12zM573 1143h-51q-20 0 -37 20l-180 250q-6 7 -2.5 14t12.5 7h78q21 0 33 -21l158 -250q6 -9 2 -14.5t-13 -5.5z" />
    <glyph glyph-name="eacute" unicode="&#xe9;" horiz-adv-x="1028" 
d="M512 1143h-51q-9 0 -12.5 5.5t0.5 14.5l157 250q12 21 35 21h78q9 0 12.5 -7t-2.5 -14l-180 -250q-17 -20 -37 -20zM526 -20q-142 0 -237.5 66t-136.5 192q-29 95 -29 251q0 159 29 254q39 122 134 188t228 66t229.5 -66t135.5 -188q28 -85 28 -260q0 -20 -22 -20h-637
q-12 0 -12 -14q0 -109 20 -173q66 -190 276 -190q174 0 273 125q13 17 29 4l47 -43q15 -12 2 -29q-56 -75 -148 -119t-209 -44zM248 557h534q13 0 13 12q0 80 -19 142q-29 90 -96.5 137t-165.5 47q-96 0 -163.5 -47t-96.5 -137q-18 -59 -18 -142q0 -12 12 -12z" />
    <glyph glyph-name="ecircumflex" unicode="&#xea;" horiz-adv-x="1028" 
d="M745 1143h-51q-20 0 -35 20l-145 174h-4l-143 -174q-18 -20 -35 -20h-51q-9 0 -12 6.5t3 13.5l185 252q14 19 32 19h48q16 0 30 -19l187 -252q6 -7 3 -13.5t-12 -6.5zM526 -20q-142 0 -237.5 66t-136.5 192q-29 95 -29 251q0 159 29 254q39 122 134 188t228 66t229.5 -66
t135.5 -188q28 -85 28 -260q0 -20 -22 -20h-637q-12 0 -12 -14q0 -109 20 -173q66 -190 276 -190q174 0 273 125q13 17 29 4l47 -43q15 -12 2 -29q-56 -75 -148 -119t-209 -44zM248 557h534q13 0 13 12q0 80 -19 142q-29 90 -96.5 137t-165.5 47q-96 0 -163.5 -47
t-96.5 -137q-18 -59 -18 -142q0 -12 12 -12z" />
    <glyph glyph-name="edieresis" unicode="&#xeb;" horiz-adv-x="1028" 
d="M758 1237h-82q-21 0 -21 20v115q0 9 6 15t15 6h82q20 0 20 -21v-115q0 -20 -20 -20zM350 1237h-82q-20 0 -20 20v115q0 21 20 21h82q9 0 15 -6t6 -15v-115q0 -20 -21 -20zM526 -20q-142 0 -237.5 66t-136.5 192q-29 95 -29 251q0 159 29 254q39 122 134 188t228 66
t229.5 -66t135.5 -188q28 -85 28 -260q0 -20 -22 -20h-637q-12 0 -12 -14q0 -109 20 -173q66 -190 276 -190q174 0 273 125q13 17 29 4l47 -43q15 -12 2 -29q-56 -75 -148 -119t-209 -44zM248 557h534q13 0 13 12q0 80 -19 142q-29 90 -96.5 137t-165.5 47q-96 0 -163.5 -47
t-96.5 -137q-18 -59 -18 -142q0 -12 12 -12z" />
    <glyph glyph-name="igrave" unicode="&#xec;" horiz-adv-x="487" 
d="M279 0h-70q-21 0 -21 20v936q0 9 6 15t15 6h70q20 0 20 -21v-936q0 -20 -20 -20zM272 1143h-51q-20 0 -37 20l-180 250q-6 7 -2.5 14t12.5 7h78q21 0 33 -21l158 -250q6 -9 2 -14.5t-13 -5.5z" />
    <glyph glyph-name="iacute" unicode="&#xed;" horiz-adv-x="487" 
d="M270 1143h-51q-9 0 -12.5 5.5t0.5 14.5l158 250q12 21 34 21h78q9 0 12.5 -7t-2.5 -14l-180 -250q-17 -20 -37 -20zM279 0h-70q-21 0 -21 20v936q0 9 6 15t15 6h70q20 0 20 -21v-936q0 -20 -20 -20z" />
    <glyph glyph-name="icircumflex" unicode="&#xee;" horiz-adv-x="487" 
d="M477 1143h-51q-20 0 -35 20l-145 174h-4l-144 -174q-18 -20 -35 -20h-51q-9 0 -11.5 6.5t3.5 13.5l184 252q14 19 33 19h47q17 0 31 -19l186 -252q6 -7 3.5 -13.5t-11.5 -6.5zM279 0h-70q-21 0 -21 20v936q0 9 6 15t15 6h70q20 0 20 -21v-936q0 -20 -20 -20z" />
    <glyph glyph-name="idieresis" unicode="&#xef;" horiz-adv-x="487" 
d="M489 1237h-81q-21 0 -21 20v115q0 9 6 15t15 6h81q9 0 15 -6t6 -15v-115q0 -20 -21 -20zM82 1237h-82q-20 0 -20 20v115q0 21 20 21h82q20 0 20 -21v-115q0 -20 -20 -20zM279 0h-70q-21 0 -21 20v936q0 9 6 15t15 6h70q20 0 20 -21v-936q0 -20 -20 -20z" />
    <glyph glyph-name="eth" unicode="&#xf0;" horiz-adv-x="1042" 
d="M756 1227l-156 -47l80 -97q131 -162 185.5 -292.5t54.5 -290.5q0 -162 -31 -267q-40 -121 -136 -187t-231 -66q-136 0 -231 65.5t-135 187.5q-33 101 -33 244q0 145 33 246q38 118 128 184t212 66q98 0 180 -55h2l-184 229l-197 -60q-10 -3 -18.5 2t-10.5 13l-14 51
q-3 19 16 25l160 47l-117 147q-6 8 -2 14.5t13 6.5h86q16 0 34 -21l93 -115l192 58q24 7 27 -12l14 -50q3 -20 -14 -26zM522 86q94 0 161.5 46.5t96.5 133.5q27 82 27 211q0 127 -27 207q-29 88 -96 137t-162 49t-163 -47t-97 -135q-26 -77 -26 -211q0 -132 26 -211
q29 -87 96.5 -133.5t163.5 -46.5z" />
    <glyph glyph-name="ntilde" unicode="&#xf1;" horiz-adv-x="1107" 
d="M911 0h-69q-21 0 -21 20v578q0 293 -256 293q-115 0 -190.5 -74t-75.5 -199v-598q0 -20 -20 -20h-70q-21 0 -21 20v936q0 9 6 15t15 6h70q20 0 20 -21v-116h2q37 73 112.5 115t176.5 42q163 0 252.5 -97t89.5 -275v-605q0 -20 -21 -20zM662 1221q-54 0 -123 43
q-59 36 -101 36q-32 0 -58.5 -16.5t-60.5 -50.5q-7 -6 -12.5 -4t-5.5 10v61q0 15 16 31q55 62 125 62q51 0 123 -41q53 -37 101 -37q33 0 60.5 16.5t59.5 50.5q6 6 11.5 4t5.5 -10v-61q0 -15 -15 -33q-61 -61 -126 -61z" />
    <glyph glyph-name="ograve" unicode="&#xf2;" horiz-adv-x="1042" 
d="M520 -20q-134 0 -229 66t-135 187q-33 109 -33 256q0 145 33 254q40 121 135 187.5t229 66.5q135 0 231 -66.5t136 -187.5q33 -109 33 -254q0 -147 -33 -256q-40 -121 -136 -187t-231 -66zM520 86q95 0 163 47t97 135q27 83 27 221q0 137 -27 220q-29 88 -97 135t-163 47
q-94 0 -161.5 -47.5t-96.5 -134.5q-26 -79 -26 -220q0 -142 26 -221q29 -87 96.5 -134.5t161.5 -47.5zM573 1143h-51q-20 0 -37 20l-180 250q-6 7 -2.5 14t12.5 7h78q21 0 33 -21l158 -250q6 -9 2 -14.5t-13 -5.5z" />
    <glyph glyph-name="oacute" unicode="&#xf3;" horiz-adv-x="1042" 
d="M518 1143h-51q-9 0 -12.5 5.5t0.5 14.5l157 250q12 21 35 21h78q9 0 12.5 -7t-2.5 -14l-180 -250q-17 -20 -37 -20zM520 -20q-134 0 -229 66t-135 187q-33 109 -33 256q0 145 33 254q40 121 135 187.5t229 66.5q135 0 231 -66.5t136 -187.5q33 -109 33 -254
q0 -147 -33 -256q-40 -121 -136 -187t-231 -66zM520 86q95 0 163 47t97 135q27 83 27 221q0 137 -27 220q-29 88 -97 135t-163 47q-94 0 -161.5 -47.5t-96.5 -134.5q-26 -79 -26 -220q0 -142 26 -221q29 -87 96.5 -134.5t161.5 -47.5z" />
    <glyph glyph-name="ocircumflex" unicode="&#xf4;" horiz-adv-x="1042" 
d="M752 1143h-52q-19 0 -34 20l-146 174h-4l-143 -174q-18 -20 -35 -20h-51q-9 0 -11.5 6.5t3.5 13.5l184 252q14 19 33 19h47q16 0 30 -19l187 -252q6 -7 3.5 -13.5t-11.5 -6.5zM520 -20q-134 0 -229 66t-135 187q-33 109 -33 256q0 145 33 254q40 121 135 187.5t229 66.5
q135 0 231 -66.5t136 -187.5q33 -109 33 -254q0 -147 -33 -256q-40 -121 -136 -187t-231 -66zM520 86q95 0 163 47t97 135q27 83 27 221q0 137 -27 220q-29 88 -97 135t-163 47q-94 0 -161.5 -47.5t-96.5 -134.5q-26 -79 -26 -220q0 -142 26 -221q29 -87 96.5 -134.5
t161.5 -47.5z" />
    <glyph glyph-name="otilde" unicode="&#xf5;" horiz-adv-x="1042" 
d="M520 -20q-134 0 -229 66t-135 187q-33 109 -33 256q0 145 33 254q40 121 135 187.5t229 66.5q135 0 231 -66.5t136 -187.5q33 -109 33 -254q0 -147 -33 -256q-40 -121 -136 -187t-231 -66zM520 86q95 0 163 47t97 135q27 83 27 221q0 137 -27 220q-29 88 -97 135t-163 47
q-94 0 -161.5 -47.5t-96.5 -134.5q-26 -79 -26 -220q0 -142 26 -221q29 -87 96.5 -134.5t161.5 -47.5zM629 1221q-54 0 -123 43q-59 36 -100 36q-32 0 -58.5 -16.5t-60.5 -50.5q-7 -6 -13 -4t-6 10v61q0 14 17 31q55 62 125 62q50 0 122 -41q53 -37 101 -37q57 0 121 67
q6 6 11 4t5 -10v-61q0 -17 -14 -33q-61 -61 -127 -61z" />
    <glyph glyph-name="odieresis" unicode="&#xf6;" horiz-adv-x="1042" 
d="M764 1237h-82q-20 0 -20 20v115q0 21 20 21h82q20 0 20 -21v-115q0 -20 -20 -20zM356 1237h-82q-20 0 -20 20v115q0 21 20 21h82q9 0 15 -6t6 -15v-115q0 -20 -21 -20zM520 -20q-134 0 -229 66t-135 187q-33 109 -33 256q0 145 33 254q40 121 135 187.5t229 66.5
q135 0 231 -66.5t136 -187.5q33 -109 33 -254q0 -147 -33 -256q-40 -121 -136 -187t-231 -66zM520 86q95 0 163 47t97 135q27 83 27 221q0 137 -27 220q-29 88 -97 135t-163 47q-94 0 -161.5 -47.5t-96.5 -134.5q-26 -79 -26 -220q0 -142 26 -221q29 -87 96.5 -134.5
t161.5 -47.5z" />
    <glyph glyph-name="divide" unicode="&#xf7;" 
d="M457 866q0 37 25.5 62.5t62.5 25.5t62.5 -25.5t25.5 -62.5t-25.5 -62.5t-62.5 -25.5t-62.5 25.5t-25.5 62.5zM934 514h-778q-9 0 -15 6t-6 15v61q0 20 21 20h778q20 0 20 -20v-61q0 -21 -20 -21zM457 264q0 37 25.5 62.5t62.5 25.5t62.5 -25.5t25.5 -62.5t-25.5 -62.5
t-62.5 -25.5t-62.5 25.5t-25.5 62.5z" />
    <glyph glyph-name="oslash" unicode="&#xf8;" horiz-adv-x="1042" 
d="M520 -20q-148 0 -246 79l-67 -100q-14 -20 -35 -20h-35q-9 0 -12 6.5t2 13.5l96 147q-44 56 -67 127q-33 109 -33 256q0 145 33 254q40 121 135 187.5t229 66.5q146 0 248 -79l68 100q14 20 34 20h35q9 0 12 -6t-2 -14l-98 -150q45 -50 70 -125q33 -109 33 -254
q0 -147 -33 -256q-40 -121 -136 -187t-231 -66zM262 268q10 -31 29 -63l416 620q-72 66 -187 66q-94 0 -161.5 -47.5t-96.5 -134.5q-26 -79 -26 -220q0 -142 26 -221zM520 86q95 0 163 47t97 135q27 83 27 221q0 137 -27 220q-14 39 -28 63l-416 -620q72 -66 184 -66z" />
    <glyph glyph-name="ugrave" unicode="&#xf9;" horiz-adv-x="1095" 
d="M887 0h-70q-20 0 -20 20v115h-2q-37 -73 -111.5 -114t-173.5 -41q-162 0 -250 96.5t-88 273.5v606q0 9 6 15t15 6h69q9 0 15 -6t6 -15v-577q0 -148 62.5 -220.5t189.5 -72.5q113 0 187.5 74t74.5 198v598q0 21 20 21h70q20 0 20 -21v-936q0 -20 -20 -20zM606 1143h-51
q-20 0 -37 20l-180 250q-6 7 -2.5 14t12.5 7h78q21 0 33 -21l157 -250q6 -9 2.5 -14.5t-12.5 -5.5z" />
    <glyph glyph-name="uacute" unicode="&#xfa;" horiz-adv-x="1095" 
d="M541 1143h-52q-9 0 -12.5 5.5t0.5 14.5l158 250q12 21 35 21h78q9 0 12.5 -7t-2.5 -14l-180 -250q-17 -20 -37 -20zM887 0h-70q-20 0 -20 20v115h-2q-37 -73 -111.5 -114t-173.5 -41q-162 0 -250 96.5t-88 273.5v606q0 9 6 15t15 6h69q9 0 15 -6t6 -15v-577
q0 -148 62.5 -220.5t189.5 -72.5q113 0 187.5 74t74.5 198v598q0 21 20 21h70q20 0 20 -21v-936q0 -20 -20 -20z" />
    <glyph glyph-name="ucircumflex" unicode="&#xfb;" horiz-adv-x="1095" 
d="M778 1143h-51q-20 0 -35 20l-145 174h-4l-144 -174q-17 -20 -34 -20h-52q-9 0 -11.5 6.5t3.5 13.5l184 252q14 19 33 19h47q17 0 31 -19l186 -252q6 -7 3.5 -13.5t-11.5 -6.5zM887 0h-70q-20 0 -20 20v115h-2q-37 -73 -111.5 -114t-173.5 -41q-162 0 -250 96.5t-88 273.5
v606q0 9 6 15t15 6h69q9 0 15 -6t6 -15v-577q0 -148 62.5 -220.5t189.5 -72.5q113 0 187.5 74t74.5 198v598q0 21 20 21h70q20 0 20 -21v-936q0 -20 -20 -20z" />
    <glyph glyph-name="udieresis" unicode="&#xfc;" horiz-adv-x="1095" 
d="M791 1237h-82q-21 0 -21 20v115q0 9 6 15t15 6h82q20 0 20 -21v-115q0 -20 -20 -20zM383 1237h-82q-20 0 -20 20v115q0 21 20 21h82q20 0 20 -21v-115q0 -20 -20 -20zM887 0h-70q-20 0 -20 20v115h-2q-37 -73 -111.5 -114t-173.5 -41q-162 0 -250 96.5t-88 273.5v606
q0 9 6 15t15 6h69q9 0 15 -6t6 -15v-577q0 -148 62.5 -220.5t189.5 -72.5q113 0 187.5 74t74.5 198v598q0 21 20 21h70q20 0 20 -21v-936q0 -20 -20 -20z" />
    <glyph glyph-name="yacute" unicode="&#xfd;" horiz-adv-x="956" 
d="M211 -369h-43q-9 0 -15 6t-6 15v65q0 9 6 15t15 6h37q65 0 104.5 37.5t79.5 144.5l39 100l-360 936q-7 21 14 21h78q17 0 26 -21l297 -784h2l289 784q6 21 25 21h78q9 0 13 -6t1 -15l-399 -1050q-42 -112 -83 -172t-86 -81.5t-112 -21.5zM481 1143h-51q-9 0 -12.5 5.5
t0.5 14.5l157 250q12 21 35 21h78q9 0 12.5 -7t-2.5 -14l-180 -250q-17 -20 -37 -20z" />
    <glyph glyph-name="thorn" unicode="&#xfe;" horiz-adv-x="1087" 
d="M279 -369h-70q-9 0 -15 6t-6 15v1720q0 9 6 15t15 6h70q20 0 20 -21v-534h2q81 159 297 159q256 0 332 -233q35 -112 35 -277q0 -162 -35 -274q-76 -233 -332 -233q-216 0 -297 159h-2v-487q0 -21 -20 -21zM575 86q193 0 250 172q27 82 27 229q0 150 -27 232
q-57 172 -250 172q-93 0 -157.5 -43.5t-91.5 -128.5q-27 -79 -27 -232q0 -149 27 -229q27 -85 91.5 -128.5t157.5 -43.5z" />
    <glyph glyph-name="ydieresis" unicode="&#xff;" horiz-adv-x="956" 
d="M211 -369h-43q-9 0 -15 6t-6 15v65q0 9 6 15t15 6h37q65 0 104.5 37.5t79.5 144.5l39 100l-360 936q-7 21 14 21h78q17 0 26 -21l297 -784h2l289 784q6 21 25 21h78q9 0 13 -6t1 -15l-399 -1050q-42 -112 -83 -172t-86 -81.5t-112 -21.5zM725 1237h-82q-20 0 -20 20v115
q0 21 20 21h82q20 0 20 -21v-115q0 -20 -20 -20zM317 1237h-81q-21 0 -21 20v115q0 9 6 15t15 6h81q9 0 15 -6t6 -15v-115q0 -20 -21 -20z" />
    <glyph glyph-name="Amacron" unicode="&#x100;" horiz-adv-x="1220" 
d="M63 20l488 1352q7 21 24 21h74q18 0 25 -21l483 -1352q3 -9 -1 -14.5t-13 -5.5h-80q-22 0 -27 20l-123 342h-606l-123 -342q-8 -20 -26 -20h-80q-9 0 -13.5 5.5t-1.5 14.5zM346 475h528l-260 729h-6zM856 1638h-491q-9 0 -15 6t-6 15v53q0 9 6 15t15 6h491q9 0 15 -6
t6 -15v-53q0 -9 -6 -15t-15 -6z" />
    <glyph glyph-name="amacron" unicode="&#x101;" horiz-adv-x="1050" 
d="M512 895q-156 0 -246 -74q-17 -14 -30 2l-35 51q-10 16 6 29q112 94 311 94q193 0 274.5 -72.5t81.5 -250.5v-654q0 -20 -20 -20h-66q-20 0 -20 20v103h-2q-31 -64 -109 -103.5t-194 -39.5q-151 0 -239.5 74.5t-88.5 213.5q0 144 95 216.5t276 72.5h248q12 0 12 12v101
q0 123 -54 174t-200 51zM485 82q126 0 203.5 60t77.5 159v150q0 12 -12 12h-234q-144 0 -210 -47.5t-66 -145.5q0 -92 62 -140t179 -48zM770 1266h-491q-21 0 -21 20v53q0 9 6 15t15 6h491q9 0 15 -6t6 -15v-53q0 -20 -21 -20z" />
    <glyph glyph-name="Abreve" unicode="&#x102;" horiz-adv-x="1220" 
d="M63 20l488 1352q7 21 24 21h74q18 0 25 -21l483 -1352q3 -9 -1 -14.5t-13 -5.5h-80q-22 0 -27 20l-123 342h-606l-123 -342q-8 -20 -26 -20h-80q-9 0 -13.5 5.5t-1.5 14.5zM346 475h528l-260 729h-6zM608 1573q-103 0 -172.5 58t-81.5 153q-1 9 4.5 14.5t14.5 5.5h39
q18 0 24 -20q35 -121 172 -121q138 0 176 121q6 20 23 20h39q21 0 18 -20q-14 -95 -83 -153t-173 -58z" />
    <glyph glyph-name="abreve" unicode="&#x103;" horiz-adv-x="1050" 
d="M512 895q-156 0 -246 -74q-17 -14 -30 2l-35 51q-10 16 6 29q112 94 311 94q193 0 274.5 -72.5t81.5 -250.5v-654q0 -20 -20 -20h-66q-20 0 -20 20v103h-2q-31 -64 -109 -103.5t-194 -39.5q-151 0 -239.5 74.5t-88.5 213.5q0 144 95 216.5t276 72.5h248q12 0 12 12v101
q0 123 -54 174t-200 51zM485 82q126 0 203.5 60t77.5 159v150q0 12 -12 12h-234q-144 0 -210 -47.5t-66 -145.5q0 -92 62 -140t179 -48zM524 1167q-103 0 -172.5 59t-81.5 154q-1 9 4.5 15t14.5 6h39q17 0 24 -21q35 -123 172 -123q138 0 176 123q7 21 23 21h39q9 0 14 -6
t4 -15q-14 -95 -83 -154t-173 -59z" />
    <glyph glyph-name="Aogonek" unicode="&#x104;" horiz-adv-x="1220" 
d="M1040 8l-127 357h-606l-123 -345q-8 -20 -26 -20h-78q-11 0 -15.5 5.5t-1.5 14.5l488 1352q7 21 24 21h74q18 0 25 -21l483 -1352q5 -12 -8 -22q-104 -72 -137 -115.5t-33 -81.5q0 -57 59 -57q28 0 58 18q16 10 26 -6l23 -43q6 -15 -8 -26q-53 -39 -115 -39
q-65 0 -104 37t-39 102q0 53 37 105.5t124 115.5zM608 1204l-266 -731h535l-263 731h-6z" />
    <glyph glyph-name="aogonek" unicode="&#x105;" horiz-adv-x="1050" 
d="M768 18v105h-2q-31 -64 -109 -103.5t-194 -39.5q-151 0 -239.5 74.5t-88.5 213.5q0 144 95 216.5t276 72.5h248q12 0 12 12v101q0 123 -54 174t-200 51q-156 0 -246 -74q-17 -14 -30 2l-35 51q-10 16 6 29q112 94 311 94q193 0 274.5 -72.5t81.5 -250.5v-654
q0 -12 -10 -20q-98 -73 -134 -118t-36 -81q0 -27 16 -42t44 -15q27 0 57 18q17 10 27 -6l22 -43q6 -15 -8 -26q-53 -39 -115 -39q-65 0 -104 36.5t-39 98.5q0 56 38 111t136 124zM485 82q126 0 203.5 60t77.5 159v150q0 12 -12 12h-234q-144 0 -210 -47.5t-66 -145.5
q0 -92 62 -140t179 -48z" />
    <glyph glyph-name="Cacute" unicode="&#x106;" horiz-adv-x="1138" 
d="M170 291q-37 113 -37 405q0 293 37 406q104 311 440 311q144 0 252.5 -66t167.5 -192q8 -19 -6 -27l-68 -32q-16 -9 -26 8q-105 199 -320 199q-246 0 -327 -232q-31 -95 -31 -375q0 -279 31 -374q81 -232 327 -232q215 0 320 199q10 17 26 8l68 -33q13 -8 6 -26
q-59 -126 -167.5 -192t-252.5 -66q-336 0 -440 311zM590 1565h-53q-10 0 -13 5.5t4 14.5l168 213q15 21 37 21h82q9 0 11.5 -6.5t-3.5 -14.5l-196 -215q-16 -18 -37 -18z" />
    <glyph glyph-name="cacute" unicode="&#x107;" horiz-adv-x="962" 
d="M508 1143h-51q-9 0 -13 5.5t0 14.5l158 250q12 21 35 21h78q9 0 12.5 -7t-2.5 -14l-180 -250q-17 -20 -37 -20zM123 487q0 151 31 256q38 120 133.5 187t230.5 67q219 0 330 -184q10 -17 -6 -27l-58 -36q-16 -9 -26 8q-44 69 -100 101t-140 32q-96 0 -161.5 -47
t-94.5 -137q-26 -77 -26 -220q0 -140 26 -217q29 -90 94.5 -137t161.5 -47q84 0 140 32t100 101q10 17 26 8l58 -37q16 -10 6 -26q-111 -184 -330 -184q-135 0 -230.5 66.5t-133.5 186.5q-31 105 -31 254z" />
    <glyph glyph-name="Ccircumflex" unicode="&#x108;" horiz-adv-x="1138" 
d="M170 291q-37 113 -37 405q0 293 37 406q104 311 440 311q144 0 252.5 -66t167.5 -192q8 -19 -6 -27l-68 -32q-16 -9 -26 8q-105 199 -320 199q-246 0 -327 -232q-31 -95 -31 -375q0 -279 31 -374q81 -232 327 -232q215 0 320 199q10 17 26 8l68 -33q13 -8 6 -26
q-59 -126 -167.5 -192t-252.5 -66q-336 0 -440 311zM838 1544h-52q-18 0 -34 21l-146 174h-4l-143 -174q-18 -21 -35 -21h-51q-9 0 -11.5 7t3.5 14l184 252q13 18 33 18h47q17 0 30 -18l187 -252q6 -7 3.5 -14t-11.5 -7z" />
    <glyph glyph-name="ccircumflex" unicode="&#x109;" horiz-adv-x="962" 
d="M752 1143h-52q-19 0 -34 20l-146 174h-4l-143 -174q-18 -20 -35 -20h-51q-9 0 -11.5 6.5t3.5 13.5l184 252q14 19 33 19h47q16 0 30 -19l187 -252q6 -7 3.5 -13.5t-11.5 -6.5zM123 487q0 151 31 256q38 120 133.5 187t230.5 67q219 0 330 -184q10 -17 -6 -27l-58 -36
q-16 -9 -26 8q-44 69 -100 101t-140 32q-96 0 -161.5 -47t-94.5 -137q-26 -77 -26 -220q0 -140 26 -217q29 -90 94.5 -137t161.5 -47q84 0 140 32t100 101q10 17 26 8l58 -37q16 -10 6 -26q-111 -184 -330 -184q-135 0 -230.5 66.5t-133.5 186.5q-31 105 -31 254z" />
    <glyph glyph-name="Cdotaccent" unicode="&#x10a;" horiz-adv-x="1138" 
d="M649 1610h-90q-20 0 -20 20v115q0 20 20 20h90q21 0 21 -20v-115q0 -20 -21 -20zM170 291q-37 113 -37 405q0 293 37 406q104 311 440 311q144 0 252.5 -66t167.5 -192q8 -19 -6 -27l-68 -32q-16 -9 -26 8q-105 199 -320 199q-246 0 -327 -232q-31 -95 -31 -375
q0 -279 31 -374q81 -232 327 -232q215 0 320 199q10 17 26 8l68 -33q13 -8 6 -26q-59 -126 -167.5 -192t-252.5 -66q-336 0 -440 311z" />
    <glyph glyph-name="cdotaccent" unicode="&#x10b;" horiz-adv-x="962" 
d="M123 487q0 151 31 256q38 120 133.5 187t230.5 67q219 0 330 -184q10 -17 -6 -27l-58 -36q-16 -9 -26 8q-44 69 -100 101t-140 32q-96 0 -161.5 -47t-94.5 -137q-26 -77 -26 -220q0 -140 26 -217q29 -90 94.5 -137t161.5 -47q84 0 140 32t100 101q10 17 26 8l58 -37
q16 -10 6 -26q-111 -184 -330 -184q-135 0 -230.5 66.5t-133.5 186.5q-31 105 -31 254zM561 1237h-90q-20 0 -20 20v115q0 21 20 21h90q9 0 15 -6t6 -15v-115q0 -20 -21 -20z" />
    <glyph glyph-name="Ccaron" unicode="&#x10c;" horiz-adv-x="1138" 
d="M170 291q-37 113 -37 405q0 293 37 406q104 311 440 311q144 0 252.5 -66t167.5 -192q8 -19 -6 -27l-68 -32q-16 -9 -26 8q-105 199 -320 199q-246 0 -327 -232q-31 -95 -31 -375q0 -279 31 -374q81 -232 327 -232q215 0 320 199q10 17 26 8l68 -33q13 -8 6 -26
q-59 -126 -167.5 -192t-252.5 -66q-336 0 -440 311zM629 1544h-47q-19 0 -33 19l-184 249q-6 8 -3.5 14.5t11.5 6.5h51q17 0 35 -21l143 -174h4l146 174q16 21 34 21h52q9 0 11.5 -6.5t-3.5 -14.5l-187 -249q-14 -19 -30 -19z" />
    <glyph glyph-name="ccaron" unicode="&#x10d;" horiz-adv-x="962" 
d="M541 1143h-47q-20 0 -33 18l-185 250q-6 7 -3 14t12 7h51q17 0 35 -21l143 -174h4l146 174q16 21 34 21h52q9 0 11.5 -7t-3.5 -14l-187 -250q-13 -18 -30 -18zM123 487q0 151 31 256q38 120 133.5 187t230.5 67q219 0 330 -184q10 -17 -6 -27l-58 -36q-16 -9 -26 8
q-44 69 -100 101t-140 32q-96 0 -161.5 -47t-94.5 -137q-26 -77 -26 -220q0 -140 26 -217q29 -90 94.5 -137t161.5 -47q84 0 140 32t100 101q10 17 26 8l58 -37q16 -10 6 -26q-111 -184 -330 -184q-135 0 -230.5 66.5t-133.5 186.5q-31 105 -31 254z" />
    <glyph glyph-name="Dcaron" unicode="&#x10e;" horiz-adv-x="1269" 
d="M633 1544h-47q-19 0 -33 19l-184 249q-6 8 -3.5 14.5t11.5 6.5h51q17 0 35 -21l143 -174h4l146 174q16 21 35 21h51q9 0 11.5 -6.5t-3.5 -14.5l-186 -249q-14 -19 -31 -19zM193 20v1352q0 21 20 21h436q354 0 445 -283q22 -66 30.5 -149.5t8.5 -264.5t-8.5 -264
t-30.5 -149q-91 -283 -445 -283h-436q-20 0 -20 20zM309 123q0 -12 13 -12h311q278 0 348 211q18 54 25.5 129.5t7.5 244.5t-7.5 245t-25.5 130q-70 211 -348 211h-311q-13 0 -13 -12v-1147z" />
    <glyph glyph-name="dcaron" unicode="&#x10f;" horiz-adv-x="1087" 
d="M1034 1096q-18 0 -18 20v256q0 21 20 21h76q9 0 15 -6t6 -15v-98q0 -21 -11 -43l-65 -117q-9 -18 -23 -18zM879 0h-70q-21 0 -21 20v119h-2q-81 -159 -297 -159q-258 0 -331 233q-35 104 -35 274q0 173 35 277q73 233 331 233q216 0 297 -159h2v534q0 9 6 15t15 6h70
q20 0 20 -21v-1352q0 -20 -20 -20zM512 86q94 0 158.5 43.5t91.5 128.5q26 77 26 229q0 155 -26 232q-27 85 -91.5 128.5t-158.5 43.5q-95 0 -158.5 -44t-91.5 -128q-26 -79 -26 -232q0 -150 26 -229q28 -84 91.5 -128t158.5 -44z" />
    <glyph glyph-name="Dcroat" unicode="&#x110;" horiz-adv-x="1269" 
d="M649 0h-436q-20 0 -20 20v623q0 12 -13 12h-82q-20 0 -20 21v61q0 21 20 21h82q13 0 13 12v602q0 21 20 21h436q354 0 445 -283q22 -66 30.5 -149.5t8.5 -264.5t-8.5 -264t-30.5 -149q-91 -283 -445 -283zM633 111q278 0 348 211q18 54 25.5 129.5t7.5 244.5t-7.5 245
t-25.5 130q-70 211 -348 211h-311q-13 0 -13 -12v-500q0 -12 13 -12h266q20 0 20 -21v-61q0 -21 -20 -21h-266q-13 0 -13 -12v-520q0 -12 13 -12h311z" />
    <glyph glyph-name="dcroat" unicode="&#x111;" horiz-adv-x="1087" 
d="M879 0h-70q-21 0 -21 20v119h-2q-81 -159 -297 -159q-258 0 -331 233q-35 104 -35 274q0 173 35 277q73 233 331 233q216 0 297 -159h2v303q0 12 -12 12h-268q-9 0 -15 6t-6 15v53q0 20 21 20h268q12 0 12 13v112q0 9 6 15t15 6h70q20 0 20 -21v-112q0 -13 12 -13h62
q20 0 20 -20v-53q0 -21 -20 -21h-62q-12 0 -12 -12v-1121q0 -20 -20 -20zM512 86q94 0 158.5 43.5t91.5 128.5q26 77 26 229q0 155 -26 232q-27 85 -91.5 128.5t-158.5 43.5q-95 0 -158.5 -44t-91.5 -128q-26 -79 -26 -232q0 -150 26 -229q28 -84 91.5 -128t158.5 -44z" />
    <glyph glyph-name="Emacron" unicode="&#x112;" horiz-adv-x="1138" 
d="M840 1638h-492q-20 0 -20 21v53q0 21 20 21h492q20 0 20 -21v-53q0 -21 -20 -21zM193 20v1352q0 21 20 21h797q20 0 20 -21v-69q0 -21 -20 -21h-688q-13 0 -13 -12v-496q0 -12 13 -12h591q9 0 15 -6t6 -15v-69q0 -9 -6 -15t-15 -6h-591q-13 0 -13 -12v-516q0 -12 13 -12
h688q20 0 20 -21v-70q0 -20 -20 -20h-797q-20 0 -20 20z" />
    <glyph glyph-name="emacron" unicode="&#x113;" horiz-adv-x="1028" 
d="M526 -20q-142 0 -237.5 66t-136.5 192q-29 95 -29 251q0 159 29 254q39 122 134 188t228 66t229.5 -66t135.5 -188q28 -85 28 -260q0 -20 -22 -20h-637q-12 0 -12 -14q0 -109 20 -173q66 -190 276 -190q174 0 273 125q13 17 29 4l47 -43q15 -12 2 -29q-56 -75 -148 -119
t-209 -44zM248 557h534q13 0 13 12q0 80 -19 142q-29 90 -96.5 137t-165.5 47q-96 0 -163.5 -47t-96.5 -137q-18 -59 -18 -142q0 -12 12 -12zM758 1266h-492q-20 0 -20 20v53q0 21 20 21h492q20 0 20 -21v-53q0 -20 -20 -20z" />
    <glyph glyph-name="Ebreve" unicode="&#x114;" horiz-adv-x="1138" 
d="M604 1573q-103 0 -172.5 58t-81.5 153q-1 9 4.5 14.5t14.5 5.5h39q18 0 24 -20q35 -121 172 -121q138 0 176 121q6 20 23 20h39q21 0 18 -20q-14 -95 -83 -153t-173 -58zM193 20v1352q0 21 20 21h797q20 0 20 -21v-69q0 -21 -20 -21h-688q-13 0 -13 -12v-496
q0 -12 13 -12h591q9 0 15 -6t6 -15v-69q0 -9 -6 -15t-15 -6h-591q-13 0 -13 -12v-516q0 -12 13 -12h688q20 0 20 -21v-70q0 -20 -20 -20h-797q-20 0 -20 20z" />
    <glyph glyph-name="ebreve" unicode="&#x115;" horiz-adv-x="1028" 
d="M526 -20q-142 0 -237.5 66t-136.5 192q-29 95 -29 251q0 159 29 254q39 122 134 188t228 66t229.5 -66t135.5 -188q28 -85 28 -260q0 -20 -22 -20h-637q-12 0 -12 -14q0 -109 20 -173q66 -190 276 -190q174 0 273 125q13 17 29 4l47 -43q15 -12 2 -29q-56 -75 -148 -119
t-209 -44zM248 557h534q13 0 13 12q0 80 -19 142q-29 90 -96.5 137t-165.5 47q-96 0 -163.5 -47t-96.5 -137q-18 -59 -18 -142q0 -12 12 -12zM512 1167q-103 0 -172.5 59t-81.5 154q-1 9 4 15t14 6h39q18 0 25 -21q35 -123 172 -123q138 0 176 123q7 21 23 21h39q9 0 14 -6
t4 -15q-14 -95 -83 -154t-173 -59z" />
    <glyph glyph-name="Edotaccent" unicode="&#x116;" horiz-adv-x="1138" 
d="M655 1610h-90q-20 0 -20 20v115q0 20 20 20h90q21 0 21 -20v-115q0 -20 -21 -20zM193 20v1352q0 21 20 21h797q20 0 20 -21v-69q0 -21 -20 -21h-688q-13 0 -13 -12v-496q0 -12 13 -12h591q9 0 15 -6t6 -15v-69q0 -9 -6 -15t-15 -6h-591q-13 0 -13 -12v-516q0 -12 13 -12
h688q20 0 20 -21v-70q0 -20 -20 -20h-797q-20 0 -20 20z" />
    <glyph glyph-name="edotaccent" unicode="&#x117;" horiz-adv-x="1028" 
d="M526 -20q-142 0 -237.5 66t-136.5 192q-29 95 -29 251q0 159 29 254q39 122 134 188t228 66t229.5 -66t135.5 -188q28 -85 28 -260q0 -20 -22 -20h-637q-12 0 -12 -14q0 -109 20 -173q66 -190 276 -190q174 0 273 125q13 17 29 4l47 -43q15 -12 2 -29q-56 -75 -148 -119
t-209 -44zM248 557h534q13 0 13 12q0 80 -19 142q-29 90 -96.5 137t-165.5 47q-96 0 -163.5 -47t-96.5 -137q-18 -59 -18 -142q0 -12 12 -12zM557 1237h-90q-21 0 -21 20v115q0 9 6 15t15 6h90q9 0 15 -6t6 -15v-115q0 -20 -21 -20z" />
    <glyph glyph-name="Eogonek" unicode="&#x118;" horiz-adv-x="1138" 
d="M1010 0h-17q-99 -72 -134.5 -117t-35.5 -82q0 -27 16 -42t44 -15q27 0 57 18q17 10 27 -6l22 -43q6 -15 -8 -26q-53 -39 -115 -39q-65 0 -104 37t-39 102q0 53 32.5 102.5t114.5 110.5h-657q-20 0 -20 20v1352q0 21 20 21h797q20 0 20 -21v-69q0 -21 -20 -21h-688
q-13 0 -13 -12v-496q0 -12 13 -12h591q9 0 15 -6t6 -15v-69q0 -9 -6 -15t-15 -6h-591q-13 0 -13 -12v-516q0 -12 13 -12h688q20 0 20 -21v-70q0 -20 -20 -20z" />
    <glyph glyph-name="eogonek" unicode="&#x119;" horiz-adv-x="1028" 
d="M680 -352q-65 0 -104 37t-39 102q0 86 102 205q-53 -12 -113 -12q-142 0 -237.5 66t-136.5 192q-29 95 -29 251q0 159 29 254q39 122 134 188t228 66t229.5 -66t135.5 -188q28 -85 28 -260q0 -20 -22 -20h-637q-12 0 -12 -14q0 -109 20 -173q66 -190 276 -190
q174 0 273 125q13 17 29 4l47 -43q15 -12 2 -29q-21 -29 -70 -71q-108 -115 -142 -172t-34 -99q0 -57 59 -57q28 0 58 18q16 10 26 -6l23 -43q6 -15 -8 -26q-53 -39 -115 -39zM248 557h534q13 0 13 12q0 80 -19 142q-29 90 -96.5 137t-165.5 47q-96 0 -163.5 -47t-96.5 -137
q-18 -59 -18 -142q0 -12 12 -12z" />
    <glyph glyph-name="Ecaron" unicode="&#x11a;" horiz-adv-x="1138" 
d="M633 1544h-47q-19 0 -33 19l-184 249q-6 8 -3.5 14.5t11.5 6.5h51q17 0 35 -21l143 -174h4l146 174q16 21 35 21h51q9 0 11.5 -6.5t-3.5 -14.5l-186 -249q-14 -19 -31 -19zM193 20v1352q0 21 20 21h797q20 0 20 -21v-69q0 -21 -20 -21h-688q-13 0 -13 -12v-496
q0 -12 13 -12h591q9 0 15 -6t6 -15v-69q0 -9 -6 -15t-15 -6h-591q-13 0 -13 -12v-516q0 -12 13 -12h688q20 0 20 -21v-70q0 -20 -20 -20h-797q-20 0 -20 20z" />
    <glyph glyph-name="ecaron" unicode="&#x11b;" horiz-adv-x="1028" 
d="M537 1143h-48q-19 0 -32 18l-185 250q-6 7 -3 14t12 7h51q17 0 35 -21l143 -174h4l145 174q16 21 35 21h51q9 0 12 -7t-3 -14l-187 -250q-13 -18 -30 -18zM526 -20q-142 0 -237.5 66t-136.5 192q-29 95 -29 251q0 159 29 254q39 122 134 188t228 66t229.5 -66t135.5 -188
q28 -85 28 -260q0 -20 -22 -20h-637q-12 0 -12 -14q0 -109 20 -173q66 -190 276 -190q174 0 273 125q13 17 29 4l47 -43q15 -12 2 -29q-56 -75 -148 -119t-209 -44zM248 557h534q13 0 13 12q0 80 -19 142q-29 90 -96.5 137t-165.5 47q-96 0 -163.5 -47t-96.5 -137
q-18 -59 -18 -142q0 -12 12 -12z" />
    <glyph glyph-name="Gcircumflex" unicode="&#x11c;" horiz-adv-x="1247" 
d="M172 293q-39 119 -39 403q0 285 39 404q51 154 167.5 233.5t287.5 79.5q162 0 271.5 -70.5t164.5 -187.5q8 -19 -8 -27l-66 -32q-17 -7 -26 8q-54 99 -135.5 149t-202.5 50q-129 0 -215.5 -60t-124.5 -176q-33 -97 -33 -371q0 -273 33 -370q38 -116 124.5 -176t215.5 -60
q127 0 214.5 59.5t125.5 172.5q32 94 32 266q0 12 -12 12h-315q-9 0 -15 6t-6 15v67q0 9 6 15t15 6h424q20 0 20 -21v-84q0 -192 -37 -309q-49 -154 -165.5 -234.5t-284.5 -80.5q-171 0 -287.5 79.5t-167.5 233.5zM856 1544h-51q-19 0 -35 21l-145 174h-4l-144 -174
q-18 -21 -35 -21h-51q-9 0 -11.5 7t3.5 14l184 252q13 18 33 18h47q18 0 31 -18l186 -252q6 -7 3.5 -14t-11.5 -7z" />
    <glyph glyph-name="gcircumflex" unicode="&#x11d;" horiz-adv-x="1069" 
d="M745 1143h-51q-20 0 -35 20l-145 174h-4l-143 -174q-18 -20 -35 -20h-51q-9 0 -12 6.5t3 13.5l185 252q14 19 32 19h48q16 0 30 -19l187 -252q6 -7 3 -13.5t-12 -6.5zM489 -389q-104 0 -193 40t-130 101q-10 17 4 29l51 45q16 13 29 -4q91 -105 242 -105q278 0 278 297
v142h-2q-75 -160 -289 -160q-122 0 -205 60t-120 173q-33 100 -33 267q0 166 33 266q37 113 120 174t205 61q214 0 289 -159h2v118q0 9 6 15t15 6h69q9 0 15 -6t6 -15v-938q0 -201 -103 -304t-289 -103zM502 100q185 0 243 172q25 76 25 224q0 147 -25 223q-57 172 -243 172
q-183 0 -240 -170q-29 -83 -29 -225q0 -144 29 -224q56 -172 240 -172z" />
    <glyph glyph-name="Gbreve" unicode="&#x11e;" horiz-adv-x="1247" 
d="M623 1573q-103 0 -172.5 58t-81.5 153q-3 20 18 20h39q19 0 25 -20q35 -121 172 -121q138 0 176 121q3 11 7.5 15.5t14.5 4.5h39q9 0 14.5 -5.5t4.5 -14.5q-14 -95 -83 -153t-173 -58zM172 293q-39 119 -39 403q0 285 39 404q51 154 167.5 233.5t287.5 79.5
q162 0 271.5 -70.5t164.5 -187.5q8 -19 -8 -27l-66 -32q-17 -7 -26 8q-54 99 -135.5 149t-202.5 50q-129 0 -215.5 -60t-124.5 -176q-33 -97 -33 -371q0 -273 33 -370q38 -116 124.5 -176t215.5 -60q127 0 214.5 59.5t125.5 172.5q32 94 32 266q0 12 -12 12h-315q-9 0 -15 6
t-6 15v67q0 9 6 15t15 6h424q20 0 20 -21v-84q0 -192 -37 -309q-49 -154 -165.5 -234.5t-284.5 -80.5q-171 0 -287.5 79.5t-167.5 233.5z" />
    <glyph glyph-name="gbreve" unicode="&#x11f;" horiz-adv-x="1069" 
d="M489 -389q-104 0 -193 40t-130 101q-10 17 4 29l51 45q16 13 29 -4q91 -105 242 -105q278 0 278 297v142h-2q-75 -160 -289 -160q-122 0 -205 60t-120 173q-33 100 -33 267q0 166 33 266q37 113 120 174t205 61q214 0 289 -159h2v118q0 9 6 15t15 6h69q9 0 15 -6t6 -15
v-938q0 -201 -103 -304t-289 -103zM502 100q185 0 243 172q25 76 25 224q0 147 -25 223q-57 172 -243 172q-183 0 -240 -170q-29 -83 -29 -225q0 -144 29 -224q56 -172 240 -172zM518 1167q-103 0 -172.5 59t-81.5 154q-1 9 4.5 15t14.5 6h39q17 0 24 -21q35 -123 172 -123
q138 0 176 123q7 21 23 21h39q9 0 14 -6t4 -15q-14 -95 -83 -154t-173 -59z" />
    <glyph glyph-name="Gdotaccent" unicode="&#x120;" horiz-adv-x="1247" 
d="M668 1610h-90q-21 0 -21 20v115q0 20 21 20h90q20 0 20 -20v-115q0 -20 -20 -20zM172 293q-39 119 -39 403q0 285 39 404q51 154 167.5 233.5t287.5 79.5q162 0 271.5 -70.5t164.5 -187.5q8 -19 -8 -27l-66 -32q-17 -7 -26 8q-54 99 -135.5 149t-202.5 50
q-129 0 -215.5 -60t-124.5 -176q-33 -97 -33 -371q0 -273 33 -370q38 -116 124.5 -176t215.5 -60q127 0 214.5 59.5t125.5 172.5q32 94 32 266q0 12 -12 12h-315q-9 0 -15 6t-6 15v67q0 9 6 15t15 6h424q20 0 20 -21v-84q0 -192 -37 -309q-49 -154 -165.5 -234.5
t-284.5 -80.5q-171 0 -287.5 79.5t-167.5 233.5z" />
    <glyph glyph-name="gdotaccent" unicode="&#x121;" horiz-adv-x="1069" 
d="M489 -389q-104 0 -193 40t-130 101q-10 17 4 29l51 45q16 13 29 -4q91 -105 242 -105q278 0 278 297v142h-2q-75 -160 -289 -160q-122 0 -205 60t-120 173q-33 100 -33 267q0 166 33 266q37 113 120 174t205 61q214 0 289 -159h2v118q0 9 6 15t15 6h69q9 0 15 -6t6 -15
v-938q0 -201 -103 -304t-289 -103zM502 100q185 0 243 172q25 76 25 224q0 147 -25 223q-57 172 -243 172q-183 0 -240 -170q-29 -83 -29 -225q0 -144 29 -224q56 -172 240 -172zM563 1237h-90q-20 0 -20 20v115q0 21 20 21h90q9 0 15 -6t6 -15v-115q0 -20 -21 -20z" />
    <glyph glyph-name="Gcommaaccent" unicode="&#x122;" horiz-adv-x="1247" 
d="M584 -399q-19 0 -19 18v246q0 20 21 20h76q20 0 20 -20v-86q0 -25 -10 -45l-66 -117q-8 -16 -22 -16zM172 293q-39 119 -39 403q0 285 39 404q51 154 167.5 233.5t287.5 79.5q162 0 271.5 -70.5t164.5 -187.5q8 -19 -8 -27l-66 -32q-17 -7 -26 8q-54 99 -135.5 149
t-202.5 50q-129 0 -215.5 -60t-124.5 -176q-33 -97 -33 -371q0 -273 33 -370q38 -116 124.5 -176t215.5 -60q127 0 214.5 59.5t125.5 172.5q32 94 32 266q0 12 -12 12h-315q-9 0 -15 6t-6 15v67q0 9 6 15t15 6h424q20 0 20 -21v-84q0 -192 -37 -309q-49 -154 -165.5 -234.5
t-284.5 -80.5q-171 0 -287.5 79.5t-167.5 233.5z" />
    <glyph glyph-name="gcommaaccent" unicode="&#x123;" horiz-adv-x="1069" 
d="M553 1171h-76q-20 0 -20 21v94q0 25 10 45l65 117q8 16 23 16q18 0 18 -18v-254q0 -21 -20 -21zM489 -389q-104 0 -193 40t-130 101q-10 17 4 29l51 45q16 13 29 -4q91 -105 242 -105q278 0 278 297v142h-2q-75 -160 -289 -160q-122 0 -205 60t-120 173q-33 100 -33 267
q0 166 33 266q37 113 120 174t205 61q214 0 289 -159h2v118q0 9 6 15t15 6h69q9 0 15 -6t6 -15v-938q0 -201 -103 -304t-289 -103zM502 100q185 0 243 172q25 76 25 224q0 147 -25 223q-57 172 -243 172q-183 0 -240 -170q-29 -83 -29 -225q0 -144 29 -224q56 -172 240 -172
z" />
    <glyph glyph-name="Hcircumflex" unicode="&#x124;" horiz-adv-x="1331" 
d="M193 20v1352q0 21 20 21h76q20 0 20 -21v-598q0 -12 13 -12h688q12 0 12 12v598q0 21 20 21h76q9 0 15 -6t6 -15v-1352q0 -20 -21 -20h-76q-20 0 -20 20v619q0 12 -12 12h-688q-13 0 -13 -12v-619q0 -20 -20 -20h-76q-20 0 -20 20zM897 1544h-51q-19 0 -35 21l-145 174
h-4l-144 -174q-18 -21 -35 -21h-51q-9 0 -11.5 7t3.5 14l184 252q13 18 33 18h47q18 0 31 -18l186 -252q6 -7 3.5 -14t-11.5 -7z" />
    <glyph glyph-name="hcircumflex" unicode="&#x125;" horiz-adv-x="1107" 
d="M911 0h-69q-21 0 -21 20v578q0 293 -256 293q-115 0 -190.5 -74t-75.5 -199v-598q0 -20 -20 -20h-70q-21 0 -21 20v1352q0 9 6 15t15 6h70q20 0 20 -21v-532h2q37 73 112.5 115t176.5 42q163 0 252.5 -97t89.5 -275v-605q0 -20 -21 -20zM797 1544h-52q-18 0 -34 21
l-146 174h-4l-143 -174q-18 -21 -35 -21h-51q-9 0 -11.5 7t3.5 14l184 252q13 18 33 18h47q17 0 30 -18l187 -252q6 -7 3.5 -14t-11.5 -7z" />
    <glyph glyph-name="Hbar" unicode="&#x126;" horiz-adv-x="1331" 
d="M1118 0h-76q-20 0 -20 20v619q0 12 -12 12h-688q-13 0 -13 -12v-619q0 -20 -20 -20h-76q-20 0 -20 20v990q0 12 -13 12h-82q-20 0 -20 20v58q0 20 20 20h82q13 0 13 13v239q0 21 20 21h76q20 0 20 -21v-239q0 -13 13 -13h688q12 0 12 13v239q0 21 20 21h76q9 0 15 -6
t6 -15v-239q0 -13 12 -13h82q20 0 20 -20v-58q0 -20 -20 -20h-82q-12 0 -12 -12v-990q0 -20 -21 -20zM1010 762q12 0 12 12v236q0 12 -12 12h-688q-13 0 -13 -12v-236q0 -12 13 -12h688z" />
    <glyph glyph-name="hbar" unicode="&#x127;" horiz-adv-x="1107" 
d="M911 0h-69q-21 0 -21 20v578q0 293 -256 293q-115 0 -190.5 -74t-75.5 -199v-598q0 -20 -20 -20h-70q-21 0 -21 20v1121q0 12 -12 12h-61q-9 0 -15 6t-6 15v53q0 20 21 20h61q12 0 12 13v112q0 9 6 15t15 6h70q20 0 20 -21v-112q0 -13 12 -13h269q20 0 20 -20v-53
q0 -21 -20 -21h-269q-12 0 -12 -12v-301h2q37 73 112.5 115t176.5 42q163 0 252.5 -97t89.5 -275v-605q0 -20 -21 -20z" />
    <glyph glyph-name="Itilde" unicode="&#x128;" horiz-adv-x="501" 
d="M193 20v1352q0 21 20 21h76q20 0 20 -21v-1352q0 -20 -20 -20h-76q-20 0 -20 20zM362 1602q-53 0 -122 43q-59 36 -101 36q-32 0 -58.5 -16.5t-60.5 -50.5q-8 -6 -13 -4t-5 10v61q0 15 16 31q55 62 125 62q51 0 123 -41q53 -37 101 -37q33 0 60.5 16.5t59.5 50.5
q6 6 11.5 4t5.5 -10v-61q0 -16 -15 -33q-61 -61 -127 -61z" />
    <glyph glyph-name="itilde" unicode="&#x129;" horiz-adv-x="487" 
d="M279 0h-70q-21 0 -21 20v936q0 9 6 15t15 6h70q20 0 20 -21v-936q0 -20 -20 -20zM354 1221q-54 0 -123 43q-59 36 -100 36q-32 0 -58.5 -16.5t-60.5 -50.5q-8 -6 -13 -4t-5 10v61q0 15 16 31q55 62 125 62q51 0 123 -41q53 -37 100 -37q57 0 121 67q6 6 11.5 4t5.5 -10
v-61q0 -15 -15 -33q-61 -61 -127 -61z" />
    <glyph glyph-name="Imacron" unicode="&#x12a;" horiz-adv-x="501" 
d="M193 20v1352q0 21 20 21h76q20 0 20 -21v-1352q0 -20 -20 -20h-76q-20 0 -20 20zM498 1638h-492q-20 0 -20 21v53q0 21 20 21h492q20 0 20 -21v-53q0 -21 -20 -21z" />
    <glyph glyph-name="imacron" unicode="&#x12b;" horiz-adv-x="487" 
d="M279 0h-70q-21 0 -21 20v936q0 9 6 15t15 6h70q20 0 20 -21v-936q0 -20 -20 -20zM492 1266h-492q-20 0 -20 20v53q0 21 20 21h492q20 0 20 -21v-53q0 -20 -20 -20z" />
    <glyph glyph-name="Ibreve" unicode="&#x12c;" horiz-adv-x="501" 
d="M193 20v1352q0 21 20 21h76q20 0 20 -21v-1352q0 -20 -20 -20h-76q-20 0 -20 20zM252 1573q-103 0 -172.5 58t-81.5 153q-3 20 18 20h39q19 0 25 -20q35 -121 172 -121q138 0 176 121q6 20 23 20h38q9 0 14.5 -5.5t4.5 -14.5q-14 -95 -83 -153t-173 -58z" />
    <glyph glyph-name="ibreve" unicode="&#x12d;" horiz-adv-x="487" 
d="M279 0h-70q-21 0 -21 20v936q0 9 6 15t15 6h70q20 0 20 -21v-936q0 -20 -20 -20zM244 1167q-103 0 -172.5 59t-81.5 154q-1 9 4 15t14 6h39q18 0 25 -21q35 -123 172 -123q138 0 176 123q7 21 22 21h39q9 0 14.5 -6t4.5 -15q-14 -95 -83 -154t-173 -59z" />
    <glyph glyph-name="Iogonek" unicode="&#x12e;" horiz-adv-x="501" 
d="M70 -213q0 91 123 217v1368q0 21 20 21h76q20 0 20 -21v-1352q0 -10 -8 -18q-81 -86 -106 -126t-25 -75q0 -57 59 -57q28 0 58 18q16 10 26 -6l23 -43q6 -15 -8 -26q-53 -39 -115 -39q-65 0 -104 37t-39 102z" />
    <glyph glyph-name="iogonek" unicode="&#x12f;" horiz-adv-x="487" 
d="M289 1237h-90q-21 0 -21 20v115q0 9 6 15t15 6h90q20 0 20 -21v-115q0 -20 -20 -20zM203 -352q-65 0 -104.5 37t-39.5 102q0 50 27.5 97.5t101.5 123.5v948q0 9 6 15t15 6h70q20 0 20 -21v-936q0 -10 -8 -18q-80 -78 -105.5 -121t-25.5 -80q0 -57 59 -57q27 0 57 18
q17 10 27 -6l23 -43q6 -14 -9 -26q-53 -39 -114 -39z" />
    <glyph glyph-name="Idotaccent" unicode="&#x130;" horiz-adv-x="501" 
d="M193 20v1352q0 21 20 21h76q20 0 20 -21v-1352q0 -20 -20 -20h-76q-20 0 -20 20zM297 1610h-90q-21 0 -21 20v115q0 20 21 20h90q20 0 20 -20v-115q0 -20 -20 -20z" />
    <glyph glyph-name="dotlessi" unicode="&#x131;" horiz-adv-x="487" 
d="M279 0h-70q-21 0 -21 20v936q0 9 6 15t15 6h70q20 0 20 -21v-936q0 -20 -20 -20z" />
    <glyph glyph-name="Jcircumflex" unicode="&#x134;" horiz-adv-x="970" 
d="M82 94q-16 16 -2 29l55 51q14 14 31 0q42 -35 100 -59.5t119 -24.5q137 0 213 80t76 248v954q0 21 20 21h76q9 0 15 -6t6 -15v-954q0 -218 -108 -328t-300 -110q-87 0 -168 32t-133 82zM961 1544h-52q-19 0 -35 21l-145 174h-4l-143 -174q-18 -21 -35 -21h-51q-9 0 -12 7
t3 14l185 252q13 18 33 18h47q17 0 30 -18l187 -252q6 -7 3.5 -14t-11.5 -7z" />
    <glyph glyph-name="jcircumflex" unicode="&#x135;" horiz-adv-x="487" 
d="M47 -369h-22q-9 0 -15 6t-6 15v65q0 9 6 15t15 6h18q85 0 115 30t30 119v1069q0 9 6 15t15 6h70q20 0 20 -21v-1067q0 -141 -58 -199.5t-194 -58.5zM477 1143h-51q-20 0 -35 20l-145 174h-4l-144 -174q-18 -20 -35 -20h-51q-9 0 -11.5 6.5t3.5 13.5l184 252q14 19 33 19
h47q17 0 31 -19l186 -252q6 -7 3.5 -13.5t-11.5 -6.5z" />
    <glyph glyph-name="Kcommaaccent" unicode="&#x136;" horiz-adv-x="1222" 
d="M573 -399q-18 0 -18 18v246q0 20 20 20h76q21 0 21 -20v-86q0 -25 -10 -45l-66 -117q-8 -16 -23 -16zM193 20v1352q0 21 20 21h76q20 0 20 -21v-803l664 805q19 19 35 19h96q9 0 12 -7.5t-4 -15.5l-440 -526l475 -821q6 -9 2.5 -16t-12.5 -7h-93q-18 0 -30 18l-420 732
l-285 -340v-390q0 -20 -20 -20h-76q-20 0 -20 20z" />
    <glyph glyph-name="kcommaaccent" unicode="&#x137;" horiz-adv-x="1024" 
d="M475 -399q-18 0 -18 18v246q0 20 20 20h76q20 0 20 -20v-86q0 -25 -10 -45l-65 -117q-8 -16 -23 -16zM934 0h-84q-18 0 -31 20l-311 506l-209 -245v-261q0 -20 -20 -20h-70q-21 0 -21 20v1352q0 9 6 15t15 6h70q20 0 20 -21v-938l442 522q18 21 35 21h84q9 0 12.5 -7.5
t-2.5 -13.5l-288 -342l364 -594q4 -8 0.5 -14t-12.5 -6z" />
    <glyph glyph-name="kgreenlandic" unicode="&#x138;" horiz-adv-x="1024" 
d="M934 0h-84q-18 0 -31 20l-311 506l-209 -245v-261q0 -20 -20 -20h-70q-21 0 -21 20v936q0 9 6 15t15 6h70q20 0 20 -21v-522l442 522q18 21 35 21h84q9 0 12.5 -7.5t-2.5 -13.5l-288 -342l364 -594q4 -8 0.5 -14t-12.5 -6z" />
    <glyph glyph-name="Lacute" unicode="&#x139;" horiz-adv-x="1085" 
d="M311 1565h-53q-10 0 -12.5 5.5t4.5 14.5l168 213q15 21 37 21h82q9 0 11.5 -6.5t-3.5 -14.5l-197 -215q-16 -18 -37 -18zM193 20v1352q0 21 20 21h76q20 0 20 -21v-1249q0 -12 13 -12h688q20 0 20 -21v-70q0 -20 -20 -20h-797q-20 0 -20 20z" />
    <glyph glyph-name="lacute" unicode="&#x13a;" horiz-adv-x="536" 
d="M272 1565h-53q-9 0 -12 5.5t4 14.5l168 213q15 21 37 21h82q9 0 11.5 -6.5t-3.5 -14.5l-197 -215q-16 -18 -37 -18zM436 -6h-47q-110 0 -156.5 53.5t-46.5 175.5v1149q0 9 6 15t15 6h69q9 0 15 -6t6 -15v-1145q0 -71 24 -99t80 -28h35q21 0 21 -20v-66q0 -20 -21 -20z
" />
    <glyph glyph-name="Lcommaaccent" unicode="&#x13b;" horiz-adv-x="1085" 
d="M575 -399q-18 0 -18 18v246q0 20 21 20h75q21 0 21 -20v-86q0 -25 -10 -45l-66 -117q-8 -16 -23 -16zM193 20v1352q0 21 20 21h76q20 0 20 -21v-1249q0 -12 13 -12h688q20 0 20 -21v-70q0 -20 -20 -20h-797q-20 0 -20 20z" />
    <glyph glyph-name="lcommaaccent" unicode="&#x13c;" horiz-adv-x="536" 
d="M285 -399q-19 0 -19 18v246q0 20 21 20h75q21 0 21 -20v-86q0 -25 -10 -45l-66 -117q-8 -16 -22 -16zM436 -6h-47q-110 0 -156.5 53.5t-46.5 175.5v1149q0 9 6 15t15 6h69q9 0 15 -6t6 -15v-1145q0 -71 24 -99t80 -28h35q21 0 21 -20v-66q0 -20 -21 -20z" />
    <glyph glyph-name="Lcaron" unicode="&#x13d;" horiz-adv-x="1085" 
d="M518 1096q-18 0 -18 20v256q0 21 20 21h76q20 0 20 -21v-98q0 -23 -10 -43l-65 -117q-9 -18 -23 -18zM193 20v1352q0 21 20 21h76q20 0 20 -21v-1249q0 -12 13 -12h688q20 0 20 -21v-70q0 -20 -20 -20h-797q-20 0 -20 20z" />
    <glyph glyph-name="lcaron" unicode="&#x13e;" horiz-adv-x="536" 
d="M432 1096q-18 0 -18 20v256q0 21 20 21h76q20 0 20 -21v-98q0 -23 -10 -43l-65 -117q-9 -18 -23 -18zM436 -6h-47q-110 0 -156.5 53.5t-46.5 175.5v1149q0 9 6 15t15 6h69q9 0 15 -6t6 -15v-1145q0 -71 24 -99t80 -28h35q21 0 21 -20v-66q0 -20 -21 -20z" />
    <glyph glyph-name="Ldot" unicode="&#x13f;" horiz-adv-x="1085" 
d="M193 20v1352q0 21 20 21h76q20 0 20 -21v-1249q0 -12 13 -12h688q20 0 20 -21v-70q0 -20 -20 -20h-797q-20 0 -20 20zM844 580h-101q-20 0 -20 20v137q0 21 20 21h101q20 0 20 -21v-137q0 -20 -20 -20z" />
    <glyph glyph-name="ldot" unicode="&#x140;" horiz-adv-x="604" 
d="M436 -6h-47q-110 0 -156.5 53.5t-46.5 175.5v1149q0 9 6 15t15 6h69q9 0 15 -6t6 -15v-1145q0 -71 24 -99t80 -28h35q21 0 21 -20v-66q0 -20 -21 -20zM594 586h-100q-21 0 -21 20v137q0 9 6 15t15 6h100q20 0 20 -21v-137q0 -20 -20 -20z" />
    <glyph glyph-name="Lslash" unicode="&#x141;" horiz-adv-x="1085" 
d="M1010 0h-797q-20 0 -20 20v576l-117 -59q-9 -4 -15 -0.5t-6 12.5v74q0 17 21 28l117 60v661q0 21 20 21h76q20 0 20 -21v-602l324 166q9 4 14.5 0.5t5.5 -12.5v-74q0 -19 -20 -29l-324 -166v-532q0 -12 13 -12h688q20 0 20 -21v-70q0 -20 -20 -20z" />
    <glyph glyph-name="lslash" unicode="&#x142;" horiz-adv-x="536" 
d="M436 784l-139 -73v-484q0 -71 24 -99t80 -28h35q21 0 21 -20v-66q0 -20 -21 -20h-47q-110 0 -156.5 53.5t-46.5 175.5v436l-80 -41q-9 -4 -14.5 0t-5.5 13v67q0 19 20 29l80 41v604q0 9 6 15t15 6h69q9 0 15 -6t6 -15v-553l139 74q9 4 15 0.5t6 -12.5v-68q0 -19 -21 -29z
" />
    <glyph glyph-name="Nacute" unicode="&#x143;" horiz-adv-x="1333" 
d="M637 1565h-53q-10 0 -13 5.5t4 14.5l168 213q15 21 37 21h82q9 0 11.5 -6.5t-3.5 -14.5l-196 -215q-16 -18 -37 -18zM193 20v1352q0 21 20 21h76q25 0 35 -21l694 -1145h6v1145q0 21 20 21h76q9 0 15 -6t6 -15v-1352q0 -20 -21 -20h-80q-22 0 -34 20l-689 1147h-8v-1147
q0 -20 -20 -20h-76q-20 0 -20 20z" />
    <glyph glyph-name="nacute" unicode="&#x144;" horiz-adv-x="1107" 
d="M514 1143h-51q-9 0 -12.5 5.5t0.5 14.5l157 250q12 21 35 21h78q9 0 12.5 -7t-2.5 -14l-180 -250q-17 -20 -37 -20zM911 0h-69q-21 0 -21 20v578q0 293 -256 293q-115 0 -190.5 -74t-75.5 -199v-598q0 -20 -20 -20h-70q-21 0 -21 20v936q0 9 6 15t15 6h70q20 0 20 -21
v-116h2q37 73 112.5 115t176.5 42q163 0 252.5 -97t89.5 -275v-605q0 -20 -21 -20z" />
    <glyph glyph-name="Ncommaaccent" unicode="&#x145;" horiz-adv-x="1333" 
d="M639 -399q-18 0 -18 18v246q0 20 20 20h76q20 0 20 -20v-86q0 -25 -10 -45l-65 -117q-8 -16 -23 -16zM193 20v1352q0 21 20 21h76q25 0 35 -21l694 -1145h6v1145q0 21 20 21h76q9 0 15 -6t6 -15v-1352q0 -20 -21 -20h-80q-22 0 -34 20l-689 1147h-8v-1147q0 -20 -20 -20
h-76q-20 0 -20 20z" />
    <glyph glyph-name="ncommaaccent" unicode="&#x146;" horiz-adv-x="1107" 
d="M514 -399q-18 0 -18 18v246q0 20 20 20h76q20 0 20 -20v-86q0 -25 -10 -45l-65 -117q-8 -16 -23 -16zM911 0h-69q-21 0 -21 20v578q0 293 -256 293q-115 0 -190.5 -74t-75.5 -199v-598q0 -20 -20 -20h-70q-21 0 -21 20v936q0 9 6 15t15 6h70q20 0 20 -21v-116h2
q37 73 112.5 115t176.5 42q163 0 252.5 -97t89.5 -275v-605q0 -20 -21 -20z" />
    <glyph glyph-name="Ncaron" unicode="&#x147;" horiz-adv-x="1333" 
d="M690 1544h-47q-19 0 -33 19l-184 249q-6 8 -3.5 14.5t11.5 6.5h51q17 0 35 -21l144 -174h4l145 174q16 21 35 21h51q9 0 11.5 -6.5t-3.5 -14.5l-186 -249q-14 -19 -31 -19zM193 20v1352q0 21 20 21h76q25 0 35 -21l694 -1145h6v1145q0 21 20 21h76q9 0 15 -6t6 -15v-1352
q0 -20 -21 -20h-80q-22 0 -34 20l-689 1147h-8v-1147q0 -20 -20 -20h-76q-20 0 -20 20z" />
    <glyph glyph-name="ncaron" unicode="&#x148;" horiz-adv-x="1107" 
d="M578 1143h-48q-19 0 -32 18l-185 250q-6 7 -3 14t12 7h51q17 0 35 -21l143 -174h4l145 174q16 21 35 21h51q9 0 12 -7t-3 -14l-187 -250q-13 -18 -30 -18zM911 0h-69q-21 0 -21 20v578q0 293 -256 293q-115 0 -190.5 -74t-75.5 -199v-598q0 -20 -20 -20h-70q-21 0 -21 20
v936q0 9 6 15t15 6h70q20 0 20 -21v-116h2q37 73 112.5 115t176.5 42q163 0 252.5 -97t89.5 -275v-605q0 -20 -21 -20z" />
    <glyph glyph-name="Eng" unicode="&#x14a;" horiz-adv-x="1333" 
d="M842 -369h-29q-20 0 -20 21v72q0 20 20 20h25q98 0 144 43.5t46 144.5v52l-711 1183h-8v-1147q0 -20 -20 -20h-76q-20 0 -20 20v1352q0 21 20 21h76q26 0 35 -21l694 -1143h6v1143q0 21 20 21h76q9 0 15 -6t6 -15v-1429q0 -163 -73.5 -237.5t-225.5 -74.5z" />
    <glyph glyph-name="eng" unicode="&#x14b;" horiz-adv-x="1107" 
d="M678 -369h-23q-20 0 -20 21v65q0 21 20 21h21q84 0 114.5 30t30.5 119v711q0 293 -256 293q-115 0 -190.5 -74t-75.5 -199v-598q0 -20 -20 -20h-70q-21 0 -21 20v936q0 9 6 15t15 6h70q20 0 20 -21v-116h2q37 73 112.5 115t176.5 42q163 0 252.5 -97t89.5 -275v-736
q0 -141 -59 -199.5t-195 -58.5z" />
    <glyph glyph-name="Omacron" unicode="&#x14c;" horiz-adv-x="1247" 
d="M868 1638h-491q-9 0 -15 6t-6 15v53q0 9 6 15t15 6h491q9 0 15 -6t6 -15v-53q0 -9 -6 -15t-15 -6zM625 -20q-170 0 -285 79.5t-166 233.5q-21 62 -31 148.5t-10 254.5t10 255t31 149q51 154 166 233.5t285 79.5q169 0 283 -79.5t165 -233.5q21 -62 31 -149t10 -255
t-10 -254.5t-31 -148.5q-51 -154 -165 -233.5t-283 -79.5zM995 696q0 267 -34 371q-78 236 -336 236q-260 0 -338 -236q-35 -107 -35 -371q0 -263 35 -370q78 -236 338 -236q258 0 336 236q34 104 34 370z" />
    <glyph glyph-name="omacron" unicode="&#x14d;" horiz-adv-x="1042" 
d="M764 1266h-492q-20 0 -20 20v53q0 21 20 21h492q20 0 20 -21v-53q0 -20 -20 -20zM520 -20q-134 0 -229 66t-135 187q-33 109 -33 256q0 145 33 254q40 121 135 187.5t229 66.5q135 0 231 -66.5t136 -187.5q33 -109 33 -254q0 -147 -33 -256q-40 -121 -136 -187t-231 -66z
M520 86q95 0 163 47t97 135q27 83 27 221q0 137 -27 220q-29 88 -97 135t-163 47q-94 0 -161.5 -47.5t-96.5 -134.5q-26 -79 -26 -220q0 -142 26 -221q29 -87 96.5 -134.5t161.5 -47.5z" />
    <glyph glyph-name="Obreve" unicode="&#x14e;" horiz-adv-x="1247" 
d="M623 1573q-103 0 -172.5 58t-81.5 153q-3 20 18 20h39q19 0 25 -20q35 -121 172 -121q138 0 176 121q3 11 7.5 15.5t14.5 4.5h39q9 0 14.5 -5.5t4.5 -14.5q-14 -95 -83 -153t-173 -58zM625 -20q-170 0 -285 79.5t-166 233.5q-21 62 -31 148.5t-10 254.5t10 255t31 149
q51 154 166 233.5t285 79.5q169 0 283 -79.5t165 -233.5q21 -62 31 -149t10 -255t-10 -254.5t-31 -148.5q-51 -154 -165 -233.5t-283 -79.5zM995 696q0 267 -34 371q-78 236 -336 236q-260 0 -338 -236q-35 -107 -35 -371q0 -263 35 -370q78 -236 338 -236q258 0 336 236
q34 104 34 370z" />
    <glyph glyph-name="obreve" unicode="&#x14f;" horiz-adv-x="1042" 
d="M520 -20q-134 0 -229 66t-135 187q-33 109 -33 256q0 145 33 254q40 121 135 187.5t229 66.5q135 0 231 -66.5t136 -187.5q33 -109 33 -254q0 -147 -33 -256q-40 -121 -136 -187t-231 -66zM520 86q95 0 163 47t97 135q27 83 27 221q0 137 -27 220q-29 88 -97 135t-163 47
q-94 0 -161.5 -47.5t-96.5 -134.5q-26 -79 -26 -220q0 -142 26 -221q29 -87 96.5 -134.5t161.5 -47.5zM518 1167q-103 0 -172.5 59t-81.5 154q-1 9 4.5 15t14.5 6h39q17 0 24 -21q35 -123 172 -123q138 0 176 123q7 21 23 21h39q9 0 14 -6t4 -15q-14 -95 -83 -154t-173 -59z
" />
    <glyph glyph-name="Ohungarumlaut" unicode="&#x150;" horiz-adv-x="1247" 
d="M625 -20q-170 0 -285 79.5t-166 233.5q-21 62 -31 148.5t-10 254.5t10 255t31 149q51 154 166 233.5t285 79.5q169 0 283 -79.5t165 -233.5q21 -62 31 -149t10 -255t-10 -254.5t-31 -148.5q-51 -154 -165 -233.5t-283 -79.5zM995 696q0 267 -34 371q-78 236 -336 236
q-260 0 -338 -236q-35 -107 -35 -371q0 -263 35 -370q78 -236 338 -236q258 0 336 236q34 104 34 370zM770 1565h-51q-9 0 -11.5 6.5t3.5 13.5l137 215q15 21 33 21h69q9 0 11.5 -6.5t-3.5 -14.5l-155 -215q-14 -20 -33 -20zM516 1565h-51q-9 0 -11.5 6.5t3.5 13.5l137 215
q12 21 33 21h67q9 0 11.5 -6.5t-3.5 -14.5l-153 -215q-14 -20 -33 -20z" />
    <glyph glyph-name="ohungarumlaut" unicode="&#x151;" horiz-adv-x="1042" 
d="M672 1143h-49q-21 0 -11 20l138 250q12 21 32 21h66q9 0 12 -7t-2 -14l-156 -252q-12 -18 -30 -18zM418 1143h-49q-9 0 -13 5.5t0 14.5l138 250q12 21 32 21h68q9 0 12 -7t-2 -14l-155 -252q-12 -18 -31 -18zM520 -20q-134 0 -229 66t-135 187q-33 109 -33 256
q0 145 33 254q40 121 135 187.5t229 66.5q135 0 231 -66.5t136 -187.5q33 -109 33 -254q0 -147 -33 -256q-40 -121 -136 -187t-231 -66zM520 86q95 0 163 47t97 135q27 83 27 221q0 137 -27 220q-29 88 -97 135t-163 47q-94 0 -161.5 -47.5t-96.5 -134.5q-26 -79 -26 -220
q0 -142 26 -221q29 -87 96.5 -134.5t161.5 -47.5z" />
    <glyph glyph-name="OE" unicode="&#x152;" horiz-adv-x="1943" 
d="M627 -20q-170 0 -285 79.5t-166 233.5q-21 62 -31 148.5t-10 254.5t10 255t31 149q51 154 166 233.5t285 79.5q262 0 368 -201h2v160q0 9 6 15t15 6h797q20 0 20 -21v-69q0 -21 -20 -21h-689q-12 0 -12 -12v-496q0 -12 12 -12h592q9 0 15 -6t6 -15v-69q0 -9 -6 -15
t-15 -6h-592q-12 0 -12 -12v-516q0 -12 12 -12h689q20 0 20 -21v-70q0 -20 -20 -20h-797q-21 0 -21 20v160h-2q-105 -200 -368 -200zM627 90q258 0 336 236q34 104 34 370q0 267 -34 371q-78 236 -336 236q-260 0 -338 -236q-35 -107 -35 -371q0 -263 35 -370
q78 -236 338 -236z" />
    <glyph glyph-name="oe" unicode="&#x153;" horiz-adv-x="1712" 
d="M1208 -20q-253 0 -344 204h-4q-44 -100 -131.5 -152t-208.5 -52q-135 0 -230.5 66t-133.5 187q-33 95 -33 254q0 161 33 256q38 120 133.5 187t230.5 67q119 0 207.5 -52.5t132.5 -151.5h2q45 100 132 152t204 52q133 0 227.5 -66t135.5 -188q28 -95 28 -260
q0 -20 -22 -20h-637q-12 0 -12 -14q3 -111 22 -173q62 -190 274 -190q180 0 275 125q16 16 31 4l43 -43q15 -12 2 -29q-56 -75 -148 -119t-209 -44zM1464 557q13 0 13 12q0 80 -19 142q-31 90 -97.5 137t-162.5 47t-163.5 -47t-96.5 -137q-20 -65 -20 -142q0 -12 12 -12h534
zM520 86q95 0 163 47t97 135q27 83 27 221q0 137 -27 220q-29 88 -97 135t-163 47q-94 0 -161.5 -47.5t-96.5 -134.5q-26 -79 -26 -220q0 -142 26 -221q29 -87 96.5 -134.5t161.5 -47.5z" />
    <glyph glyph-name="Racute" unicode="&#x154;" horiz-adv-x="1259" 
d="M1112 0h-94q-17 0 -25 18l-293 605h-20h-358q-13 0 -13 -13v-590q0 -20 -20 -20h-76q-20 0 -20 20v1352q0 21 20 21h467q197 0 310.5 -103.5t113.5 -281.5q0 -144 -75.5 -240.5t-209.5 -128.5l303 -616q6 -9 2.5 -16t-12.5 -7zM678 733q149 0 229 71.5t80 203.5
q0 131 -80 202.5t-229 71.5h-356q-13 0 -13 -12v-525q0 -12 13 -12h356zM573 1565h-53q-10 0 -12.5 5.5t4.5 14.5l168 213q15 21 37 21h82q9 0 11.5 -6.5t-3.5 -14.5l-197 -215q-16 -18 -37 -18z" />
    <glyph glyph-name="racute" unicode="&#x155;" horiz-adv-x="811" 
d="M414 1143h-52q-9 0 -12.5 5.5t0.5 14.5l158 250q12 21 35 21h78q9 0 12.5 -7t-2.5 -14l-180 -250q-17 -20 -37 -20zM279 0h-70q-21 0 -21 20v936q0 9 6 15t15 6h70q20 0 20 -21v-125h2q29 76 96 121t166 45q120 0 197 -67q17 -10 4 -27l-41 -57q-11 -14 -31 -4
q-76 49 -155 49q-83 0 -137.5 -46t-77.5 -118t-23 -166v-541q0 -20 -20 -20z" />
    <glyph glyph-name="Rcommaaccent" unicode="&#x156;" horiz-adv-x="1259" 
d="M590 -399q-19 0 -19 18v246q0 20 21 20h76q20 0 20 -20v-86q0 -25 -10 -45l-66 -117q-8 -16 -22 -16zM1112 0h-94q-17 0 -25 18l-293 605h-20h-358q-13 0 -13 -13v-590q0 -20 -20 -20h-76q-20 0 -20 20v1352q0 21 20 21h467q197 0 310.5 -103.5t113.5 -281.5
q0 -144 -75.5 -240.5t-209.5 -128.5l303 -616q6 -9 2.5 -16t-12.5 -7zM678 733q149 0 229 71.5t80 203.5q0 131 -80 202.5t-229 71.5h-356q-13 0 -13 -12v-525q0 -12 13 -12h356z" />
    <glyph glyph-name="rcommaaccent" unicode="&#x157;" horiz-adv-x="811" 
d="M205 -399q-19 0 -19 18v246q0 20 21 20h76q20 0 20 -20v-86q0 -25 -10 -45l-66 -117q-8 -16 -22 -16zM279 0h-70q-21 0 -21 20v936q0 9 6 15t15 6h70q20 0 20 -21v-125h2q29 76 96 121t166 45q120 0 197 -67q17 -10 4 -27l-41 -57q-11 -14 -31 -4q-76 49 -155 49
q-83 0 -137.5 -46t-77.5 -118t-23 -166v-541q0 -20 -20 -20z" />
    <glyph glyph-name="Rcaron" unicode="&#x158;" horiz-adv-x="1259" 
d="M610 1544h-47q-19 0 -33 19l-184 249q-6 8 -3.5 14.5t11.5 6.5h52q16 0 34 -21l144 -174h4l145 174q16 21 35 21h51q9 0 11.5 -6.5t-3.5 -14.5l-186 -249q-14 -19 -31 -19zM1112 0h-94q-17 0 -25 18l-293 605h-20h-358q-13 0 -13 -13v-590q0 -20 -20 -20h-76
q-20 0 -20 20v1352q0 21 20 21h467q197 0 310.5 -103.5t113.5 -281.5q0 -144 -75.5 -240.5t-209.5 -128.5l303 -616q6 -9 2.5 -16t-12.5 -7zM678 733q149 0 229 71.5t80 203.5q0 131 -80 202.5t-229 71.5h-356q-13 0 -13 -12v-525q0 -12 13 -12h356z" />
    <glyph glyph-name="rcaron" unicode="&#x159;" horiz-adv-x="811" 
d="M481 1143h-47q-20 0 -33 18l-184 250q-6 7 -3.5 14t11.5 7h51q17 0 35 -21l144 -174h4l145 174q16 21 35 21h51q9 0 11.5 -7t-3.5 -14l-186 -250q-13 -18 -31 -18zM279 0h-70q-21 0 -21 20v936q0 9 6 15t15 6h70q20 0 20 -21v-125h2q29 76 96 121t166 45q120 0 197 -67
q17 -10 4 -27l-41 -57q-11 -14 -31 -4q-76 49 -155 49q-83 0 -137.5 -46t-77.5 -118t-23 -166v-541q0 -20 -20 -20z" />
    <glyph glyph-name="Sacute" unicode="&#x15a;" horiz-adv-x="1220" 
d="M594 -20q-130 0 -257 47t-204 114q-15 15 -2 29l49 61q14 17 29 2q78 -61 182 -102t217 -41q166 0 263.5 77.5t97.5 207.5q0 110 -76 178.5t-258 91.5l-64 8q-201 26 -301 120t-100 249q0 181 119 286t319 105q113 0 219 -31.5t179 -85.5q18 -11 4 -28l-41 -64
q-12 -14 -29 -4q-168 103 -338 103q-147 0 -231 -75t-84 -198q0 -110 77 -175.5t250 -88.5l64 -8q407 -53 407 -375q0 -183 -127 -293t-364 -110zM596 1565h-53q-9 0 -12 5.5t4 14.5l167 213q15 21 37 21h82q9 0 11.5 -6.5t-3.5 -14.5l-196 -215q-16 -18 -37 -18z" />
    <glyph glyph-name="sacute" unicode="&#x15b;" horiz-adv-x="985" 
d="M485 1143h-51q-9 0 -12.5 5.5t0.5 14.5l158 250q12 21 34 21h78q9 0 12.5 -7t-2.5 -14l-180 -250q-17 -20 -37 -20zM494 -20q-216 0 -381 137q-14 14 0 28l45 52q12 12 28 0q143 -115 318 -115q124 0 189 50.5t65 137.5q0 78 -47 118t-176 54l-99 11q-138 14 -211 79.5
t-73 180.5q0 133 91.5 208.5t252.5 75.5q181 0 325 -94q16 -13 4 -29l-37 -49q-10 -17 -28 -6q-53 31 -126.5 53.5t-144.5 22.5q-111 0 -169 -45.5t-58 -128.5q0 -74 51.5 -113t173.5 -51l99 -10q282 -27 282 -262q0 -142 -97 -223.5t-277 -81.5z" />
    <glyph glyph-name="Scircumflex" unicode="&#x15c;" horiz-adv-x="1220" 
d="M594 -20q-130 0 -257 47t-204 114q-15 15 -2 29l49 61q14 17 29 2q78 -61 182 -102t217 -41q166 0 263.5 77.5t97.5 207.5q0 110 -76 178.5t-258 91.5l-64 8q-201 26 -301 120t-100 249q0 181 119 286t319 105q113 0 219 -31.5t179 -85.5q18 -11 4 -28l-41 -64
q-12 -14 -29 -4q-168 103 -338 103q-147 0 -231 -75t-84 -198q0 -110 77 -175.5t250 -88.5l64 -8q407 -53 407 -375q0 -183 -127 -293t-364 -110zM842 1544h-51q-19 0 -35 21l-146 174h-4l-143 -174q-18 -21 -35 -21h-51q-9 0 -11.5 7t3.5 14l184 252q13 18 33 18h47
q18 0 31 -18l186 -252q6 -7 3.5 -14t-11.5 -7z" />
    <glyph glyph-name="scircumflex" unicode="&#x15d;" horiz-adv-x="985" 
d="M727 1143h-51q-20 0 -35 20l-145 174h-4l-144 -174q-18 -20 -35 -20h-51q-9 0 -11.5 6.5t3.5 13.5l184 252q14 19 33 19h47q17 0 31 -19l186 -252q6 -7 3.5 -13.5t-11.5 -6.5zM494 -20q-216 0 -381 137q-14 14 0 28l45 52q12 12 28 0q143 -115 318 -115q124 0 189 50.5
t65 137.5q0 78 -47 118t-176 54l-99 11q-138 14 -211 79.5t-73 180.5q0 133 91.5 208.5t252.5 75.5q181 0 325 -94q16 -13 4 -29l-37 -49q-10 -17 -28 -6q-53 31 -126.5 53.5t-144.5 22.5q-111 0 -169 -45.5t-58 -128.5q0 -74 51.5 -113t173.5 -51l99 -10q282 -27 282 -262
q0 -142 -97 -223.5t-277 -81.5z" />
    <glyph glyph-name="Scedilla" unicode="&#x15e;" horiz-adv-x="1220" 
d="M545 -303h-64q-9 0 -13 5.5t-1 14.5l102 263q-124 4 -243 50.5t-193 110.5q-15 15 -2 29l49 61q14 17 29 2q78 -61 182 -102t217 -41q166 0 263.5 77.5t97.5 207.5q0 110 -76 178.5t-258 91.5l-64 8q-201 26 -301 120t-100 249q0 181 119 286t319 105q113 0 219 -31.5
t179 -85.5q18 -11 4 -28l-41 -64q-12 -14 -29 -4q-168 103 -338 103q-147 0 -231 -75t-84 -198q0 -110 77 -175.5t250 -88.5l64 -8q407 -53 407 -375q0 -167 -108.5 -274.5t-310.5 -124.5l-88 -267q-8 -20 -33 -20z" />
    <glyph glyph-name="scedilla" unicode="&#x15f;" horiz-adv-x="985" 
d="M434 -303h-63q-9 0 -13.5 5.5t-1.5 14.5l103 263q-196 10 -346 137q-14 14 0 28l45 52q12 12 28 0q143 -115 318 -115q124 0 189 50.5t65 137.5q0 78 -47 118t-176 54l-99 11q-138 14 -211 79.5t-73 180.5q0 133 91.5 208.5t252.5 75.5q181 0 325 -94q16 -13 4 -29
l-37 -49q-10 -17 -28 -6q-53 31 -126.5 53.5t-144.5 22.5q-111 0 -169 -45.5t-58 -128.5q0 -74 51.5 -113t173.5 -51l99 -10q282 -27 282 -262q0 -128 -80 -209t-233 -94l-88 -265q-7 -20 -33 -20z" />
    <glyph glyph-name="Scaron" unicode="&#x160;" horiz-adv-x="1220" 
d="M594 -20q-130 0 -257 47t-204 114q-15 15 -2 29l49 61q14 17 29 2q78 -61 182 -102t217 -41q166 0 263.5 77.5t97.5 207.5q0 110 -76 178.5t-258 91.5l-64 8q-201 26 -301 120t-100 249q0 181 119 286t319 105q113 0 219 -31.5t179 -85.5q18 -11 4 -28l-41 -64
q-12 -14 -29 -4q-168 103 -338 103q-147 0 -231 -75t-84 -198q0 -110 77 -175.5t250 -88.5l64 -8q407 -53 407 -375q0 -183 -127 -293t-364 -110zM633 1544h-47q-19 0 -33 19l-184 249q-6 8 -3.5 14.5t11.5 6.5h51q17 0 35 -21l143 -174h4l146 174q16 21 35 21h51
q9 0 11.5 -6.5t-3.5 -14.5l-186 -249q-14 -19 -31 -19z" />
    <glyph glyph-name="scaron" unicode="&#x161;" horiz-adv-x="985" 
d="M518 1143h-47q-20 0 -33 18l-184 250q-6 7 -3.5 14t11.5 7h51q17 0 35 -21l144 -174h4l145 174q16 21 35 21h51q9 0 11.5 -7t-3.5 -14l-186 -250q-13 -18 -31 -18zM494 -20q-216 0 -381 137q-14 14 0 28l45 52q12 12 28 0q143 -115 318 -115q124 0 189 50.5t65 137.5
q0 78 -47 118t-176 54l-99 11q-138 14 -211 79.5t-73 180.5q0 133 91.5 208.5t252.5 75.5q181 0 325 -94q16 -13 4 -29l-37 -49q-10 -17 -28 -6q-53 31 -126.5 53.5t-144.5 22.5q-111 0 -169 -45.5t-58 -128.5q0 -74 51.5 -113t173.5 -51l99 -10q282 -27 282 -262
q0 -142 -97 -223.5t-277 -81.5z" />
    <glyph glyph-name="Tcommaaccent" unicode="&#x162;" horiz-adv-x="1075" 
d="M498 -399q-19 0 -19 18v246q0 20 21 20h75q21 0 21 -20v-86q0 -25 -10 -45l-66 -117q-8 -16 -22 -16zM575 0h-75q-21 0 -21 20v1250q0 12 -12 12h-401q-9 0 -15 6t-6 15v69q0 9 6 15t15 6h944q20 0 20 -21v-69q0 -21 -20 -21h-402q-12 0 -12 -12v-1250q0 -20 -21 -20z
" />
    <glyph glyph-name="tcommaaccent" unicode="&#x163;" horiz-adv-x="636" 
d="M330 -399q-19 0 -19 18v246q0 20 21 20h76q20 0 20 -20v-86q0 -25 -10 -45l-66 -117q-8 -16 -22 -16zM522 -6h-53q-138 0 -196 60t-58 204v608q0 13 -12 13h-103q-20 0 -20 20v57q0 21 20 21h103q12 0 12 12v281q0 20 21 20h69q21 0 21 -20v-281q0 -12 12 -12h184
q9 0 15 -6t6 -15v-57q0 -20 -21 -20h-184q-12 0 -12 -13v-602q0 -96 35 -130t122 -34h39q21 0 21 -20v-66q0 -20 -21 -20z" />
    <glyph glyph-name="Tcaron" unicode="&#x164;" horiz-adv-x="1075" 
d="M561 1544h-47q-19 0 -33 19l-184 249q-6 8 -3.5 14.5t11.5 6.5h51q17 0 35 -21l144 -174h4l145 174q16 21 35 21h51q9 0 11.5 -6.5t-3.5 -14.5l-186 -249q-14 -19 -31 -19zM575 0h-75q-21 0 -21 20v1250q0 12 -12 12h-401q-9 0 -15 6t-6 15v69q0 9 6 15t15 6h944
q20 0 20 -21v-69q0 -21 -20 -21h-402q-12 0 -12 -12v-1250q0 -20 -21 -20z" />
    <glyph glyph-name="tcaron" unicode="&#x165;" horiz-adv-x="636" 
d="M522 1096q-18 0 -18 20v256q0 21 20 21h76q9 0 15 -6t6 -15v-98q0 -21 -11 -43l-65 -117q-9 -18 -23 -18zM522 -6h-53q-138 0 -196 60t-58 204v608q0 13 -12 13h-103q-20 0 -20 20v57q0 21 20 21h103q12 0 12 12v281q0 20 21 20h69q21 0 21 -20v-281q0 -12 12 -12h184
q9 0 15 -6t6 -15v-57q0 -20 -21 -20h-184q-12 0 -12 -13v-602q0 -96 35 -130t122 -34h39q21 0 21 -20v-66q0 -20 -21 -20z" />
    <glyph glyph-name="Tbar" unicode="&#x166;" horiz-adv-x="1075" 
d="M575 0h-75q-21 0 -21 20v787q0 12 -12 12h-215q-9 0 -15 6t-6 15v61q0 9 6 15t15 6h215q12 0 12 12v336q0 12 -12 12h-401q-9 0 -15 6t-6 15v69q0 9 6 15t15 6h944q20 0 20 -21v-69q0 -21 -20 -21h-402q-12 0 -12 -12v-336q0 -12 12 -12h215q9 0 15 -6t6 -15v-61
q0 -9 -6 -15t-15 -6h-215q-12 0 -12 -12v-787q0 -20 -21 -20z" />
    <glyph glyph-name="tbar" unicode="&#x167;" horiz-adv-x="636" 
d="M522 -6h-53q-138 0 -196 60t-58 204v346q0 12 -12 12h-82q-9 0 -15 6t-6 15v53q0 9 6 15t15 6h82q12 0 12 12v143q0 13 -12 13h-103q-20 0 -20 20v57q0 21 20 21h103q12 0 12 12v281q0 20 21 20h69q21 0 21 -20v-281q0 -12 12 -12h184q9 0 15 -6t6 -15v-57q0 -20 -21 -20
h-184q-12 0 -12 -13v-143q0 -12 12 -12h158q20 0 20 -21v-53q0 -21 -20 -21h-158q-12 0 -12 -12v-340q0 -96 35 -130t122 -34h39q21 0 21 -20v-66q0 -20 -21 -20z" />
    <glyph glyph-name="Utilde" unicode="&#x168;" horiz-adv-x="1300" 
d="M760 1602q-54 0 -123 43q-59 36 -100 36q-32 0 -58.5 -16.5t-60.5 -50.5q-8 -6 -13.5 -4t-5.5 10v61q0 14 17 31q55 62 125 62q51 0 123 -41q53 -37 100 -37q57 0 121 67q6 6 11 4t5 -10v-61q0 -17 -14 -33q-61 -61 -127 -61zM295 1372v-893q0 -193 92.5 -291t261.5 -98
q171 0 264 98t93 291v893q0 21 20 21h76q20 0 20 -21v-891q0 -249 -125 -375t-348 -126q-221 0 -346 126t-125 375v891q0 9 6 15t15 6h75q9 0 15 -6t6 -15z" />
    <glyph glyph-name="utilde" unicode="&#x169;" horiz-adv-x="1095" 
d="M887 0h-70q-20 0 -20 20v115h-2q-37 -73 -111.5 -114t-173.5 -41q-162 0 -250 96.5t-88 273.5v606q0 9 6 15t15 6h69q9 0 15 -6t6 -15v-577q0 -148 62.5 -220.5t189.5 -72.5q113 0 187.5 74t74.5 198v598q0 21 20 21h70q20 0 20 -21v-936q0 -20 -20 -20zM655 1221
q-54 0 -123 43q-59 36 -100 36q-32 0 -58.5 -16.5t-60.5 -50.5q-7 -6 -12.5 -4t-5.5 10v61q0 15 16 31q55 62 125 62q51 0 123 -41q53 -37 100 -37q57 0 121 67q6 6 11.5 4t5.5 -10v-61q0 -15 -15 -33q-61 -61 -127 -61z" />
    <glyph glyph-name="Umacron" unicode="&#x16a;" horiz-adv-x="1300" 
d="M895 1638h-492q-20 0 -20 21v53q0 21 20 21h492q20 0 20 -21v-53q0 -21 -20 -21zM295 1372v-893q0 -193 92.5 -291t261.5 -98q171 0 264 98t93 291v893q0 21 20 21h76q20 0 20 -21v-891q0 -249 -125 -375t-348 -126q-221 0 -346 126t-125 375v891q0 9 6 15t15 6h75
q9 0 15 -6t6 -15z" />
    <glyph glyph-name="umacron" unicode="&#x16b;" horiz-adv-x="1095" 
d="M887 0h-70q-20 0 -20 20v115h-2q-37 -73 -111.5 -114t-173.5 -41q-162 0 -250 96.5t-88 273.5v606q0 9 6 15t15 6h69q9 0 15 -6t6 -15v-577q0 -148 62.5 -220.5t189.5 -72.5q113 0 187.5 74t74.5 198v598q0 21 20 21h70q20 0 20 -21v-936q0 -20 -20 -20zM791 1266h-492
q-20 0 -20 20v53q0 21 20 21h492q20 0 20 -21v-53q0 -20 -20 -20z" />
    <glyph glyph-name="Ubreve" unicode="&#x16c;" horiz-adv-x="1300" 
d="M649 1573q-103 0 -172.5 58t-81.5 153q-1 9 4.5 14.5t14.5 5.5h39q18 0 24 -20q35 -121 172 -121q138 0 176 121q6 20 23 20h39q21 0 18 -20q-14 -95 -83 -153t-173 -58zM295 1372v-893q0 -193 92.5 -291t261.5 -98q171 0 264 98t93 291v893q0 21 20 21h76q20 0 20 -21
v-891q0 -249 -125 -375t-348 -126q-221 0 -346 126t-125 375v891q0 9 6 15t15 6h75q9 0 15 -6t6 -15z" />
    <glyph glyph-name="ubreve" unicode="&#x16d;" horiz-adv-x="1095" 
d="M887 0h-70q-20 0 -20 20v115h-2q-37 -73 -111.5 -114t-173.5 -41q-162 0 -250 96.5t-88 273.5v606q0 9 6 15t15 6h69q9 0 15 -6t6 -15v-577q0 -148 62.5 -220.5t189.5 -72.5q113 0 187.5 74t74.5 198v598q0 21 20 21h70q20 0 20 -21v-936q0 -20 -20 -20zM545 1167
q-103 0 -172.5 59t-81.5 154q-1 9 4 15t14 6h39q18 0 25 -21q35 -123 172 -123q138 0 176 123q7 21 22 21h39q9 0 14.5 -6t4.5 -15q-14 -95 -83 -154t-173 -59z" />
    <glyph glyph-name="Uring" unicode="&#x16e;" horiz-adv-x="1300" 
d="M295 1372v-893q0 -193 92.5 -291t261.5 -98q171 0 264 98t93 291v893q0 21 20 21h76q20 0 20 -21v-891q0 -249 -125 -375t-348 -126q-221 0 -346 126t-125 375v891q0 9 6 15t15 6h75q9 0 15 -6t6 -15zM829 1692q0 -78 -51 -129.5t-129 -51.5t-129 51.5t-51 129.5t51 129
t129 51t129 -51t51 -129zM758 1692q0 50 -30 82t-79 32t-78.5 -32t-29.5 -82t29.5 -82.5t78.5 -32.5t79 32.5t30 82.5z" />
    <glyph glyph-name="uring" unicode="&#x16f;" horiz-adv-x="1095" 
d="M725 1288q0 -78 -51 -129t-129 -51t-129 51t-51 129t51 129t129 51t129 -51t51 -129zM653 1288q0 50 -29.5 82.5t-78.5 32.5t-79 -32.5t-30 -82.5t30 -82t79 -32t78.5 32t29.5 82zM887 0h-70q-20 0 -20 20v115h-2q-37 -73 -111.5 -114t-173.5 -41q-162 0 -250 96.5
t-88 273.5v606q0 9 6 15t15 6h69q9 0 15 -6t6 -15v-577q0 -148 62.5 -220.5t189.5 -72.5q113 0 187.5 74t74.5 198v598q0 21 20 21h70q20 0 20 -21v-936q0 -20 -20 -20z" />
    <glyph glyph-name="Uhungarumlaut" unicode="&#x170;" horiz-adv-x="1300" 
d="M295 1372v-893q0 -193 92.5 -291t261.5 -98q171 0 264 98t93 291v893q0 21 20 21h76q20 0 20 -21v-891q0 -249 -125 -375t-348 -126q-221 0 -346 126t-125 375v891q0 9 6 15t15 6h75q9 0 15 -6t6 -15zM791 1565h-52q-9 0 -11.5 6.5t3.5 13.5l137 215q15 21 33 21h70
q9 0 11.5 -6.5t-3.5 -14.5l-156 -215q-14 -20 -32 -20zM537 1565h-52q-9 0 -11.5 6.5t3.5 13.5l137 215q12 21 33 21h68q9 0 11.5 -6.5t-3.5 -14.5l-154 -215q-14 -20 -32 -20z" />
    <glyph glyph-name="uhungarumlaut" unicode="&#x171;" horiz-adv-x="1095" 
d="M887 0h-70q-20 0 -20 20v115h-2q-37 -73 -111.5 -114t-173.5 -41q-162 0 -250 96.5t-88 273.5v606q0 9 6 15t15 6h69q9 0 15 -6t6 -15v-577q0 -148 62.5 -220.5t189.5 -72.5q113 0 187.5 74t74.5 198v598q0 21 20 21h70q20 0 20 -21v-936q0 -20 -20 -20zM676 1143h-49
q-21 0 -11 20l138 250q12 21 32 21h66q9 0 12 -7t-2 -14l-155 -252q-12 -18 -31 -18zM422 1143h-49q-9 0 -13 5.5t0 14.5l138 250q12 21 32 21h68q9 0 12 -7t-2 -14l-155 -252q-12 -18 -31 -18z" />
    <glyph glyph-name="Uogonek" unicode="&#x172;" horiz-adv-x="1300" 
d="M666 -352q-65 0 -104.5 37t-39.5 102q0 84 101 193q-210 8 -327.5 134t-117.5 367v891q0 9 6 15t15 6h75q9 0 15 -6t6 -15v-893q0 -193 92.5 -291t261.5 -98q171 0 264 98t93 291v893q0 21 20 21h76q20 0 20 -21v-891q0 -224 -102 -348.5t-287 -146.5q-66 -72 -88 -111.5
t-22 -73.5q0 -57 59 -57q27 0 57 18q17 10 27 -6l22 -43q6 -15 -8 -26q-53 -39 -114 -39z" />
    <glyph glyph-name="uogonek" unicode="&#x173;" horiz-adv-x="1095" 
d="M770 -352q-65 0 -104 37t-39 102q0 54 37 106t133 121v121h-2q-37 -73 -111.5 -114t-173.5 -41q-162 0 -250 96.5t-88 273.5v606q0 9 6 15t15 6h69q9 0 15 -6t6 -15v-577q0 -148 62.5 -220.5t189.5 -72.5q113 0 187.5 74t74.5 198v598q0 21 20 21h70q20 0 20 -21v-936
q0 -12 -10 -20q-100 -73 -135 -117t-35 -82q0 -57 59 -57q28 0 58 18q16 10 26 -6l23 -43q6 -15 -8 -26q-53 -39 -115 -39z" />
    <glyph glyph-name="Wcircumflex" unicode="&#x174;" horiz-adv-x="1673" 
d="M1255 0h-67q-17 0 -23 20l-325 1141h-4l-328 -1141q-6 -20 -23 -20h-65q-18 0 -25 20l-329 1350q-7 23 16 23h74q23 0 26 -21l275 -1147h4l321 1147q6 21 25 21h61q19 0 25 -21l326 -1147h4l268 1147q5 21 27 21h73q11 0 15.5 -6.5t1.5 -16.5l-330 -1350q-3 -20 -23 -20z
M1069 1544h-51q-19 0 -35 21l-145 174h-4l-144 -174q-18 -21 -35 -21h-51q-9 0 -11.5 7t3.5 14l184 252q13 18 33 18h47q18 0 31 -18l186 -252q6 -7 3.5 -14t-11.5 -7z" />
    <glyph glyph-name="wcircumflex" unicode="&#x175;" horiz-adv-x="1507" 
d="M985 1143h-51q-20 0 -35 20l-145 174h-4l-144 -174q-18 -20 -35 -20h-51q-9 0 -11.5 6.5t3.5 13.5l184 252q14 19 33 19h47q17 0 31 -19l186 -252q6 -7 3.5 -13.5t-11.5 -6.5zM1098 0h-64q-18 0 -24 20l-254 781h-2l-258 -781q-6 -20 -25 -20h-61q-19 0 -25 20l-305 936
q-7 21 14 21h74q18 0 27 -21l249 -780h2l254 780q7 21 25 21h59q18 0 25 -21l258 -780h2l244 780q9 21 26 21h74q21 0 14 -21l-305 -936q-6 -20 -24 -20z" />
    <glyph glyph-name="Ycircumflex" unicode="&#x176;" horiz-adv-x="1054" 
d="M565 0h-76q-20 0 -20 20v551l-418 799q-3 8 2 15.5t15 7.5h79q21 0 31 -21l350 -665h7l344 665q6 12 12 16.5t18 4.5h78q11 0 15.5 -7.5t1.5 -15.5l-418 -799v-551q0 -20 -21 -20zM760 1544h-51q-19 0 -35 21l-146 174h-4l-143 -174q-18 -21 -35 -21h-51q-9 0 -11.5 7
t3.5 14l184 252q13 18 33 18h47q18 0 31 -18l186 -252q6 -7 3.5 -14t-11.5 -7z" />
    <glyph glyph-name="ycircumflex" unicode="&#x177;" horiz-adv-x="956" 
d="M211 -369h-43q-9 0 -15 6t-6 15v65q0 9 6 15t15 6h37q65 0 104.5 37.5t79.5 144.5l39 100l-360 936q-7 21 14 21h78q17 0 26 -21l297 -784h2l289 784q6 21 25 21h78q9 0 13 -6t1 -15l-399 -1050q-42 -112 -83 -172t-86 -81.5t-112 -21.5zM713 1143h-51q-20 0 -35 20
l-146 174h-4l-143 -174q-18 -20 -35 -20h-51q-9 0 -11.5 6.5t3.5 13.5l184 252q14 19 33 19h47q17 0 31 -19l186 -252q6 -7 3.5 -13.5t-11.5 -6.5z" />
    <glyph glyph-name="Ydieresis" unicode="&#x178;" horiz-adv-x="1054" 
d="M565 0h-76q-20 0 -20 20v551l-418 799q-3 8 2 15.5t15 7.5h79q21 0 31 -21l350 -665h7l344 665q6 12 12 16.5t18 4.5h78q11 0 15.5 -7.5t1.5 -15.5l-418 -799v-551q0 -20 -21 -20zM772 1610h-80q-20 0 -20 20v115q0 20 20 20h80q21 0 21 -20v-115q0 -20 -21 -20z
M362 1610h-79q-21 0 -21 20v115q0 20 21 20h79q21 0 21 -20v-115q0 -20 -21 -20z" />
    <glyph glyph-name="Zacute" unicode="&#x179;" horiz-adv-x="1105" 
d="M975 0h-846q-20 0 -20 20v68q0 14 10 31l739 1161v2h-702q-9 0 -15 6t-6 15v69q0 9 6 15t15 6h819q20 0 20 -21v-67q0 -16 -10 -31l-739 -1161v-2h729q20 0 20 -21v-70q0 -20 -20 -20zM528 1565h-53q-9 0 -12 5.5t4 14.5l168 213q15 21 37 21h82q9 0 11.5 -6.5
t-3.5 -14.5l-197 -215q-16 -18 -37 -18z" />
    <glyph glyph-name="zacute" unicode="&#x17a;" horiz-adv-x="956" 
d="M471 1143h-51q-9 0 -12.5 5.5t0.5 14.5l157 250q12 21 35 21h78q9 0 12.5 -7t-2.5 -14l-180 -250q-17 -20 -37 -20zM821 0h-682q-20 0 -20 20v62q0 14 10 27l580 759v2h-543q-9 0 -15 6t-6 15v65q0 9 6 15t15 6h655q9 0 15 -6t6 -15v-65q0 -13 -11 -27l-577 -755v-5h567
q21 0 21 -20v-64q0 -20 -21 -20z" />
    <glyph glyph-name="Zdotaccent" unicode="&#x17b;" horiz-adv-x="1105" 
d="M598 1610h-90q-21 0 -21 20v115q0 20 21 20h90q20 0 20 -20v-115q0 -20 -20 -20zM975 0h-846q-20 0 -20 20v68q0 14 10 31l739 1161v2h-702q-9 0 -15 6t-6 15v69q0 9 6 15t15 6h819q20 0 20 -21v-67q0 -16 -10 -31l-739 -1161v-2h729q20 0 20 -21v-70q0 -20 -20 -20z" />
    <glyph glyph-name="zdotaccent" unicode="&#x17c;" horiz-adv-x="956" 
d="M821 0h-682q-20 0 -20 20v62q0 14 10 27l580 759v2h-543q-9 0 -15 6t-6 15v65q0 9 6 15t15 6h655q9 0 15 -6t6 -15v-65q0 -13 -11 -27l-577 -755v-5h567q21 0 21 -20v-64q0 -20 -21 -20zM528 1237h-90q-20 0 -20 20v115q0 21 20 21h90q9 0 15 -6t6 -15v-115
q0 -20 -21 -20z" />
    <glyph glyph-name="Zcaron" unicode="&#x17d;" horiz-adv-x="1105" 
d="M578 1544h-48q-18 0 -32 19l-185 249q-6 8 -3 14.5t12 6.5h51q17 0 35 -21l143 -174h4l145 174q16 21 35 21h51q9 0 12 -6.5t-3 -14.5l-187 -249q-14 -19 -30 -19zM975 0h-846q-20 0 -20 20v68q0 14 10 31l739 1161v2h-702q-9 0 -15 6t-6 15v69q0 9 6 15t15 6h819
q20 0 20 -21v-67q0 -16 -10 -31l-739 -1161v-2h729q20 0 20 -21v-70q0 -20 -20 -20z" />
    <glyph glyph-name="zcaron" unicode="&#x17e;" horiz-adv-x="956" 
d="M504 1143h-47q-20 0 -33 18l-184 250q-6 7 -3.5 14t11.5 7h51q17 0 35 -21l143 -174h4l146 174q16 21 35 21h51q9 0 11.5 -7t-3.5 -14l-186 -250q-13 -18 -31 -18zM821 0h-682q-20 0 -20 20v62q0 14 10 27l580 759v2h-543q-9 0 -15 6t-6 15v65q0 9 6 15t15 6h655
q9 0 15 -6t6 -15v-65q0 -13 -11 -27l-577 -755v-5h567q21 0 21 -20v-64q0 -20 -21 -20z" />
    <glyph glyph-name="florin" unicode="&#x192;" 
d="M850 713h-219l-121 -789q-26 -163 -93 -228t-206 -65h-43q-9 0 -15 6t-6 15v63q0 9 6 15t15 6h47q86 0 126.5 39t57.5 143l121 795h-176q-20 0 -20 20v55q0 21 20 21h193l45 293q25 161 92 226t205 65h43q20 0 20 -21v-63q0 -21 -20 -21h-50q-84 0 -124.5 -40t-55.5 -142
l-47 -297h205q20 0 20 -21v-55q0 -20 -20 -20z" />
    <glyph glyph-name="Aringacute" unicode="&#x1fa;" horiz-adv-x="1220" 
d="M633 1612h-53q-9 0 -11.5 6t6.5 14l170 166q21 21 43 21h80q9 0 11 -7.5t-5 -13.5l-196 -168q-24 -18 -45 -18zM793 1374q0 -96 -78 -151l442 -1203q3 -9 -2 -14.5t-14 -5.5h-78q-21 0 -27 20l-125 342h-602l-125 -342q-8 -20 -26 -20h-78q-11 0 -15.5 5.5t-1.5 14.5
l445 1205q-76 50 -76 149q0 78 51 129t129 51t129.5 -51t51.5 -129zM721 1374q0 50 -30 82.5t-79 32.5t-78.5 -32.5t-29.5 -82.5t29.5 -82t78.5 -32t79 32t30 82zM608 1171l-258 -696h520l-256 696h-6z" />
    <glyph glyph-name="aringacute" unicode="&#x1fb;" horiz-adv-x="1050" 
d="M549 1567h-53q-9 0 -12 6.5t3 13.5l166 211q15 21 37 21h80q9 0 12.5 -6.5t-2.5 -14.5l-194 -213q-16 -18 -37 -18zM512 895q-156 0 -246 -74q-17 -14 -30 2l-35 51q-10 16 6 29q112 94 311 94q193 0 274.5 -72.5t81.5 -250.5v-654q0 -20 -20 -20h-66q-20 0 -20 20v103
h-2q-31 -64 -109 -103.5t-194 -39.5q-151 0 -239.5 74.5t-88.5 213.5q0 144 95 216.5t276 72.5h248q12 0 12 12v101q0 123 -54 174t-200 51zM485 82q126 0 203.5 60t77.5 159v150q0 12 -12 12h-234q-144 0 -210 -47.5t-66 -145.5q0 -92 62 -140t179 -48zM709 1288
q0 -78 -51.5 -129t-129.5 -51t-129 51t-51 129t51 129t129 51t129.5 -51t51.5 -129zM637 1288q0 50 -30 82.5t-79 32.5t-78.5 -32.5t-29.5 -82.5t29.5 -82t78.5 -32t79 32t30 82z" />
    <glyph glyph-name="AEacute" unicode="&#x1fc;" horiz-adv-x="1927" 
d="M1081 1565h-53q-10 0 -12.5 5.5t4.5 14.5l168 213q15 21 37 21h82q9 0 11.5 -6.5t-3.5 -14.5l-197 -215q-16 -18 -37 -18zM1798 0h-797q-20 0 -20 20v330q0 12 -12 12h-559l-213 -342q-10 -20 -29 -20h-90q-9 0 -12.5 6t0.5 14l833 1354q13 19 31 19h868q9 0 15 -6t6 -15
v-69q0 -9 -6 -15t-15 -6h-688q-12 0 -12 -12v-496q0 -12 12 -12h592q20 0 20 -21v-69q0 -21 -20 -21h-592q-12 0 -12 -12v-516q0 -12 12 -12h688q9 0 15 -6t6 -15v-70q0 -20 -21 -20zM977 1280l-498 -805h490q12 0 12 12v793h-4z" />
    <glyph glyph-name="aeacute" unicode="&#x1fd;" horiz-adv-x="1667" 
d="M872 1143h-51q-9 0 -12.5 5.5t0.5 14.5l158 250q12 21 34 21h78q9 0 13 -7t-2 -14l-181 -250q-17 -20 -37 -20zM512 895q-156 0 -246 -74q-17 -14 -30 2l-35 51q-10 16 6 29q112 94 311 94q136 0 215.5 -38t106.5 -125h4q94 163 309 163q133 0 229.5 -66t135.5 -188
q28 -85 28 -260q0 -20 -22 -20h-637q-13 0 -13 -14q0 -105 21 -173q66 -190 276 -190q174 0 273 125q13 17 29 4l47 -43q15 -12 2 -29q-56 -75 -148 -119t-209 -44q-244 0 -342 190h-2q-80 -190 -358 -190q-151 0 -239.5 74.5t-88.5 213.5q0 144 95 216.5t276 72.5h248
q12 0 12 12v101q0 123 -54 174t-200 51zM887 557h534q13 0 13 12q0 80 -19 142q-29 90 -96.5 137t-165.5 47q-96 0 -163.5 -47t-96.5 -137q-19 -62 -19 -142q0 -12 13 -12zM485 82q126 0 203.5 60t77.5 159v150q0 12 -12 12h-234q-144 0 -210 -47.5t-66 -145.5
q0 -92 62 -140t179 -48z" />
    <glyph glyph-name="Oslashacute" unicode="&#x1fe;" horiz-adv-x="1247" 
d="M625 -20q-189 0 -310 98l-67 -119q-10 -20 -31 -20h-49q-9 0 -12.5 5.5t0.5 14.5l100 176q-52 67 -82 158q-21 62 -31 148.5t-10 254.5t10 255t31 149q51 154 166 233.5t285 79.5q188 0 307 -98l67 119q10 20 31 20h49q9 0 13 -5.5t0 -14.5l-103 -179q54 -66 84 -155
q21 -62 31 -149t10 -255t-10 -254.5t-31 -148.5q-51 -154 -165 -233.5t-283 -79.5zM287 326q10 -37 35 -78l550 964q-94 91 -247 91q-260 0 -338 -236q-35 -107 -35 -371q0 -263 35 -370zM995 696q0 267 -34 371q-17 47 -35 76l-551 -965q91 -88 250 -88q258 0 336 236
q34 104 34 370zM614 1565h-53q-9 0 -12 5.5t4 14.5l168 213q15 21 37 21h82q9 0 11.5 -6.5t-3.5 -14.5l-197 -215q-16 -18 -37 -18z" />
    <glyph glyph-name="oslashacute" unicode="&#x1ff;" horiz-adv-x="1042" 
d="M520 -20q-148 0 -246 79l-67 -100q-14 -20 -35 -20h-35q-9 0 -12 6.5t2 13.5l96 147q-44 56 -67 127q-33 109 -33 256q0 145 33 254q40 121 135 187.5t229 66.5q146 0 248 -79l68 100q14 20 34 20h35q9 0 12 -6t-2 -14l-98 -150q45 -50 70 -125q33 -109 33 -254
q0 -147 -33 -256q-40 -121 -136 -187t-231 -66zM262 268q10 -31 29 -63l416 620q-72 66 -187 66q-94 0 -161.5 -47.5t-96.5 -134.5q-26 -79 -26 -220q0 -142 26 -221zM520 86q95 0 163 47t97 135q27 83 27 221q0 137 -27 220q-14 39 -28 63l-416 -620q72 -66 184 -66z
M516 1143h-51q-9 0 -12.5 5.5t0.5 14.5l157 250q12 21 35 21h78q9 0 12.5 -7t-2.5 -14l-180 -250q-17 -20 -37 -20z" />
    <glyph glyph-name="Scommaaccent" unicode="&#x218;" horiz-adv-x="1220" 
d="M571 -399q-18 0 -18 18v246q0 20 20 20h76q21 0 21 -20v-86q0 -23 -11 -45l-65 -117q-8 -16 -23 -16zM594 -20q-130 0 -257 47t-204 114q-15 15 -2 29l49 61q14 17 29 2q78 -61 182 -102t217 -41q166 0 263.5 77.5t97.5 207.5q0 110 -76 178.5t-258 91.5l-64 8
q-201 26 -301 120t-100 249q0 181 119 286t319 105q113 0 219 -31.5t179 -85.5q18 -11 4 -28l-41 -64q-12 -14 -29 -4q-168 103 -338 103q-147 0 -231 -75t-84 -198q0 -110 77 -175.5t250 -88.5l64 -8q407 -53 407 -375q0 -183 -127 -293t-364 -110z" />
    <glyph glyph-name="scommaaccent" unicode="&#x219;" horiz-adv-x="985" 
d="M451 -399q-19 0 -19 18v246q0 20 21 20h75q21 0 21 -20v-86q0 -25 -10 -45l-66 -117q-8 -16 -22 -16zM494 -20q-216 0 -381 137q-14 14 0 28l45 52q12 12 28 0q143 -115 318 -115q124 0 189 50.5t65 137.5q0 78 -47 118t-176 54l-99 11q-138 14 -211 79.5t-73 180.5
q0 133 91.5 208.5t252.5 75.5q181 0 325 -94q16 -13 4 -29l-37 -49q-10 -17 -28 -6q-53 31 -126.5 53.5t-144.5 22.5q-111 0 -169 -45.5t-58 -128.5q0 -74 51.5 -113t173.5 -51l99 -10q282 -27 282 -262q0 -142 -97 -223.5t-277 -81.5z" />
    <glyph glyph-name="uni021A" unicode="&#x21a;" horiz-adv-x="1075" 
d="M498 -399q-19 0 -19 18v246q0 20 21 20h75q21 0 21 -20v-86q0 -25 -10 -45l-66 -117q-8 -16 -22 -16zM575 0h-75q-21 0 -21 20v1250q0 12 -12 12h-401q-9 0 -15 6t-6 15v69q0 9 6 15t15 6h944q20 0 20 -21v-69q0 -21 -20 -21h-402q-12 0 -12 -12v-1250q0 -20 -21 -20z
" />
    <glyph glyph-name="uni021B" unicode="&#x21b;" horiz-adv-x="636" 
d="M330 -399q-19 0 -19 18v246q0 20 21 20h76q20 0 20 -20v-86q0 -25 -10 -45l-66 -117q-8 -16 -22 -16zM522 -6h-53q-138 0 -196 60t-58 204v608q0 13 -12 13h-103q-20 0 -20 20v57q0 21 20 21h103q12 0 12 12v281q0 20 21 20h69q21 0 21 -20v-281q0 -12 12 -12h184
q9 0 15 -6t6 -15v-57q0 -20 -21 -20h-184q-12 0 -12 -13v-602q0 -96 35 -130t122 -34h39q21 0 21 -20v-66q0 -20 -21 -20z" />
    <glyph glyph-name="dotlessj" unicode="&#x237;" horiz-adv-x="487" 
d="M47 -369h-22q-9 0 -15 6t-6 15v65q0 9 6 15t15 6h18q85 0 115 30t30 119v1069q0 9 6 15t15 6h70q20 0 20 -21v-1067q0 -141 -58 -199.5t-194 -58.5z" />
    <glyph glyph-name="circumflex" unicode="&#x2c6;" horiz-adv-x="862" 
d="M664 1143h-52q-19 0 -34 20l-146 174h-4l-143 -174q-17 -20 -35 -20h-51q-9 0 -12 6.5t3 13.5l185 252q14 19 33 19h47q16 0 30 -19l187 -252q6 -7 3.5 -13.5t-11.5 -6.5z" />
    <glyph glyph-name="caron" unicode="&#x2c7;" horiz-adv-x="862" 
d="M455 1143h-47q-20 0 -33 18l-185 250q-6 7 -3 14t12 7h51q17 0 35 -21l143 -174h4l146 174q16 21 34 21h52q9 0 11.5 -7t-3.5 -14l-187 -250q-13 -18 -30 -18z" />
    <glyph glyph-name="uni02C9" unicode="&#x2c9;" horiz-adv-x="862" 
d="M680 1638h-500q-20 0 -20 21v53q0 21 20 21h500q20 0 20 -21v-53q0 -21 -20 -21z" />
    <glyph glyph-name="breve" unicode="&#x2d8;" horiz-adv-x="862" 
d="M430 1167q-103 0 -172.5 59t-81.5 154q-1 9 4.5 15t14.5 6h38q18 0 25 -21q35 -123 172 -123q138 0 176 123q7 21 23 21h39q9 0 14 -6t4 -15q-14 -95 -83 -154t-173 -59z" />
    <glyph glyph-name="dotaccent" unicode="&#x2d9;" horiz-adv-x="862" 
d="M475 1237h-90q-20 0 -20 20v115q0 21 20 21h90q9 0 15 -6t6 -15v-115q0 -20 -21 -20z" />
    <glyph glyph-name="ring" unicode="&#x2da;" horiz-adv-x="862" 
d="M610 1288q0 -78 -51 -129t-129 -51t-129 51t-51 129t51 129t129 51t129 -51t51 -129zM539 1288q0 50 -30 82.5t-79 32.5t-78.5 -32.5t-29.5 -82.5t29.5 -82t78.5 -32t79 32t30 82z" />
    <glyph glyph-name="ogonek" unicode="&#x2db;" horiz-adv-x="862" 
d="M430 -352q-65 0 -104 37t-39 102q0 53 32.5 102.5t114.5 110.5q25 20 49 20h70q9 0 10.5 -8t-6.5 -12q-99 -72 -134.5 -117t-35.5 -82q0 -57 59 -57q28 0 58 18q16 10 26 -6l23 -43q6 -15 -8 -26q-53 -39 -115 -39z" />
    <glyph glyph-name="tilde" unicode="&#x2dc;" horiz-adv-x="862" 
d="M539 1221q-54 0 -123 43q-59 36 -101 36q-32 0 -57.5 -16t-60.5 -51q-7 -6 -13 -4t-6 10v61q0 14 17 31q55 62 124 62q51 0 123 -41q53 -37 101 -37q57 0 121 67q6 6 11 4t5 -10v-61q0 -17 -14 -33q-61 -61 -127 -61z" />
    <glyph glyph-name="hungarumlaut" unicode="&#x2dd;" horiz-adv-x="862" 
d="M498 1143h-49q-21 0 -11 20l137 250q12 21 33 21h66q9 0 12 -7t-2 -14l-156 -252q-12 -18 -30 -18zM244 1143h-49q-9 0 -13 5.5t0 14.5l137 250q12 21 33 21h68q9 0 12 -7t-2 -14l-156 -252q-12 -18 -30 -18z" />
    <glyph glyph-name="Delta" unicode="&#x394;" horiz-adv-x="1220" 
d="M1141 0h-1061q-11 0 -15.5 5.5t-1.5 14.5l488 1352q7 21 24 21h74q16 0 23 -21l485 -1352q7 -20 -16 -20zM993 104q14 0 11 13l-390 1087h-6l-393 -1087q-3 -13 12 -13h766z" />
    <glyph glyph-name="Delta" unicode="&#x2206;" horiz-adv-x="1220" 
d="M1141 0h-1061q-11 0 -15.5 5.5t-1.5 14.5l488 1352q7 21 24 21h74q16 0 23 -21l485 -1352q7 -20 -16 -20zM993 104q14 0 11 13l-390 1087h-6l-393 -1087q-3 -13 12 -13h766z" />
    <glyph glyph-name="Omega" unicode="&#x3a9;" horiz-adv-x="1253" 
d="M1083 0h-356q-20 0 -20 20v74q0 18 20 25q83 30 134 69.5t83.5 107.5t44.5 161.5t12 238.5q0 261 -36 371q-78 236 -338 236t-338 -236q-37 -113 -37 -371q0 -145 12 -238.5t44.5 -161.5t83.5 -107.5t134 -69.5q21 -7 21 -25v-74q0 -20 -21 -20h-356q-20 0 -20 20v70
q0 21 20 21h178v4q-81 44 -126 109.5t-67 178t-22 293.5q0 277 41 402q50 157 166 236t287 79t286.5 -79t165.5 -236q41 -125 41 -402q0 -265 -48 -390t-167 -191v-4h178q9 0 15 -6t6 -15v-70q0 -20 -21 -20z" />
    <glyph glyph-name="Omega" unicode="&#x2126;" horiz-adv-x="1253" 
d="M1083 0h-356q-20 0 -20 20v74q0 18 20 25q83 30 134 69.5t83.5 107.5t44.5 161.5t12 238.5q0 261 -36 371q-78 236 -338 236t-338 -236q-37 -113 -37 -371q0 -145 12 -238.5t44.5 -161.5t83.5 -107.5t134 -69.5q21 -7 21 -25v-74q0 -20 -21 -20h-356q-20 0 -20 20v70
q0 21 20 21h178v4q-81 44 -126 109.5t-67 178t-22 293.5q0 277 41 402q50 157 166 236t287 79t286.5 -79t165.5 -236q41 -125 41 -402q0 -265 -48 -390t-167 -191v-4h178q9 0 15 -6t6 -15v-70q0 -20 -21 -20z" />
    <glyph glyph-name="pi" unicode="&#x3c0;" horiz-adv-x="1148" 
d="M991 -12h-22q-83 0 -119.5 41.5t-36.5 130.5v698q0 12 -12 12h-455q-12 0 -12 -12v-838q0 -20 -21 -20h-71q-21 0 -21 20v838q0 12 -14 12h-76q-20 0 -20 21v65q0 21 20 21h885q20 0 20 -21v-65q0 -21 -20 -21h-78q-12 0 -12 -12v-696q0 -36 12.5 -52t40.5 -16h12
q21 0 21 -20v-66q0 -20 -21 -20z" />
    <glyph glyph-name="Wgrave" unicode="&#x1e80;" horiz-adv-x="1673" 
d="M866 1565h-53q-21 0 -37 18l-196 215q-6 8 -3.5 14.5t11.5 6.5h82q22 0 37 -21l167 -213q7 -9 4.5 -14.5t-12.5 -5.5zM1255 0h-67q-17 0 -23 20l-325 1141h-4l-328 -1141q-6 -20 -23 -20h-65q-18 0 -25 20l-329 1350q-7 23 16 23h74q23 0 26 -21l275 -1147h4l321 1147
q6 21 25 21h61q19 0 25 -21l326 -1147h4l268 1147q5 21 27 21h73q11 0 15.5 -6.5t1.5 -16.5l-330 -1350q-3 -20 -23 -20z" />
    <glyph glyph-name="wgrave" unicode="&#x1e81;" horiz-adv-x="1507" 
d="M1098 0h-64q-18 0 -24 20l-254 781h-2l-258 -781q-6 -20 -25 -20h-61q-19 0 -25 20l-305 936q-7 21 14 21h74q18 0 27 -21l249 -780h2l254 780q7 21 25 21h59q18 0 25 -21l258 -780h2l244 780q9 21 26 21h74q21 0 14 -21l-305 -936q-6 -20 -24 -20zM774 1143h-51
q-20 0 -37 20l-180 250q-6 7 -2.5 14t12.5 7h78q21 0 33 -21l157 -250q6 -9 2.5 -14.5t-12.5 -5.5z" />
    <glyph glyph-name="Wacute" unicode="&#x1e82;" horiz-adv-x="1673" 
d="M862 1565h-53q-9 0 -12 5.5t4 14.5l168 213q15 21 37 21h81q9 0 12 -6.5t-3 -14.5l-197 -215q-16 -18 -37 -18zM1255 0h-67q-17 0 -23 20l-325 1141h-4l-328 -1141q-6 -20 -23 -20h-65q-18 0 -25 20l-329 1350q-7 23 16 23h74q23 0 26 -21l275 -1147h4l321 1147
q6 21 25 21h61q19 0 25 -21l326 -1147h4l268 1147q5 21 27 21h73q11 0 15.5 -6.5t1.5 -16.5l-330 -1350q-3 -20 -23 -20z" />
    <glyph glyph-name="wacute" unicode="&#x1e83;" horiz-adv-x="1507" 
d="M780 1143h-51q-9 0 -12.5 5.5t0.5 14.5l157 250q12 21 35 21h78q9 0 12.5 -7t-2.5 -14l-180 -250q-17 -20 -37 -20zM1098 0h-64q-18 0 -24 20l-254 781h-2l-258 -781q-6 -20 -25 -20h-61q-19 0 -25 20l-305 936q-7 21 14 21h74q18 0 27 -21l249 -780h2l254 780
q7 21 25 21h59q18 0 25 -21l258 -780h2l244 780q9 21 26 21h74q21 0 14 -21l-305 -936q-6 -20 -24 -20z" />
    <glyph glyph-name="Wdieresis" unicode="&#x1e84;" horiz-adv-x="1673" 
d="M1079 1610h-80q-20 0 -20 20v115q0 20 20 20h80q21 0 21 -20v-115q0 -20 -21 -20zM670 1610h-80q-21 0 -21 20v115q0 20 21 20h80q20 0 20 -20v-115q0 -20 -20 -20zM1255 0h-67q-17 0 -23 20l-325 1141h-4l-328 -1141q-6 -20 -23 -20h-65q-18 0 -25 20l-329 1350
q-7 23 16 23h74q23 0 26 -21l275 -1147h4l321 1147q6 21 25 21h61q19 0 25 -21l326 -1147h4l268 1147q5 21 27 21h73q11 0 15.5 -6.5t1.5 -16.5l-330 -1350q-3 -20 -23 -20z" />
    <glyph glyph-name="wdieresis" unicode="&#x1e85;" horiz-adv-x="1507" 
d="M997 1237h-82q-20 0 -20 20v115q0 21 20 21h82q9 0 15 -6t6 -15v-115q0 -20 -21 -20zM590 1237h-82q-21 0 -21 20v115q0 9 6 15t15 6h82q20 0 20 -21v-115q0 -20 -20 -20zM1098 0h-64q-18 0 -24 20l-254 781h-2l-258 -781q-6 -20 -25 -20h-61q-19 0 -25 20l-305 936
q-7 21 14 21h74q18 0 27 -21l249 -780h2l254 780q7 21 25 21h59q18 0 25 -21l258 -780h2l244 780q9 21 26 21h74q21 0 14 -21l-305 -936q-6 -20 -24 -20z" />
    <glyph glyph-name="Ygrave" unicode="&#x1ef2;" horiz-adv-x="1054" 
d="M565 0h-76q-20 0 -20 20v551l-418 799q-3 8 2 15.5t15 7.5h79q21 0 31 -21l350 -665h7l344 665q6 12 12 16.5t18 4.5h78q11 0 15.5 -7.5t1.5 -15.5l-418 -799v-551q0 -20 -21 -20zM580 1565h-54q-21 0 -37 18l-196 215q-6 8 -3.5 14.5t11.5 6.5h82q22 0 37 -21l168 -213
q7 -9 4.5 -14.5t-12.5 -5.5z" />
    <glyph glyph-name="ygrave" unicode="&#x1ef3;" horiz-adv-x="956" 
d="M211 -369h-43q-9 0 -15 6t-6 15v65q0 9 6 15t15 6h37q65 0 104.5 37.5t79.5 144.5l39 100l-360 936q-7 21 14 21h78q17 0 26 -21l297 -784h2l289 784q6 21 25 21h78q9 0 13 -6t1 -15l-399 -1050q-42 -112 -83 -172t-86 -81.5t-112 -21.5zM553 1143h-51q-20 0 -37 20
l-180 250q-6 7 -2.5 14t12.5 7h78q21 0 33 -21l157 -250q6 -9 2.5 -14.5t-12.5 -5.5z" />
    <glyph glyph-name="endash" unicode="&#x2013;" horiz-adv-x="1032" 
d="M956 496h-880q-21 0 -21 20v59q0 9 6 15t15 6h880q9 0 15 -6t6 -15v-59q0 -20 -21 -20z" />
    <glyph glyph-name="emdash" unicode="&#x2014;" horiz-adv-x="1699" 
d="M1624 496h-1548q-21 0 -21 20v59q0 9 6 15t15 6h1548q9 0 15 -6t6 -15v-59q0 -20 -21 -20z" />
    <glyph glyph-name="quoteleft" unicode="&#x2018;" horiz-adv-x="423" 
d="M254 1395q8 0 13 -6t5 -15v-287q0 -20 -20 -20h-80q-20 0 -20 20v142q0 30 10 45l69 106q10 15 23 15z" />
    <glyph glyph-name="quoteright" unicode="&#x2019;" horiz-adv-x="423" 
d="M170 1065q-18 0 -18 20v287q0 21 20 21h80q20 0 20 -21v-141q0 -30 -10 -45l-69 -107q-9 -14 -23 -14z" />
    <glyph glyph-name="quotesinglbase" unicode="&#x201a;" horiz-adv-x="423" 
d="M170 -170q-18 0 -18 20v287q0 21 20 21h80q20 0 20 -21v-141q0 -30 -10 -45l-69 -107q-9 -14 -23 -14z" />
    <glyph glyph-name="quotedblleft" unicode="&#x201c;" horiz-adv-x="708" 
d="M539 1395q8 0 13 -6t5 -15v-287q0 -20 -20 -20h-80q-21 0 -21 20v142q0 30 10 45l70 106q10 15 23 15zM254 1395q8 0 13 -6t5 -15v-287q0 -20 -20 -20h-80q-20 0 -20 20v142q0 30 10 45l69 106q10 15 23 15z" />
    <glyph glyph-name="quotedblright" unicode="&#x201d;" horiz-adv-x="708" 
d="M455 1065q-8 0 -13.5 5.5t-5.5 14.5v287q0 9 6 15t15 6h80q20 0 20 -21v-141q0 -30 -10 -45l-70 -107q-9 -14 -22 -14zM170 1065q-18 0 -18 20v287q0 21 20 21h80q20 0 20 -21v-141q0 -30 -10 -45l-69 -107q-9 -14 -23 -14z" />
    <glyph glyph-name="quotedblbase" unicode="&#x201e;" horiz-adv-x="708" 
d="M455 -115q-8 0 -13.5 6t-5.5 15v287q0 20 21 20h80q20 0 20 -20v-142q0 -30 -10 -45l-70 -106q-10 -15 -22 -15zM170 -115q-8 0 -13 6t-5 15v287q0 20 20 20h80q20 0 20 -20v-142q0 -30 -10 -45l-69 -106q-10 -15 -23 -15z" />
    <glyph glyph-name="dagger" unicode="&#x2020;" horiz-adv-x="915" 
d="M492 -369h-68q-9 0 -15 6t-6 15v1114q0 12 -12 12h-280q-9 0 -15 6t-6 15v59q0 9 6 15t15 6h280q12 0 12 12v481q0 9 6 15t15 6h68q20 0 20 -21v-481q0 -12 12 -12h281q20 0 20 -21v-59q0 -21 -20 -21h-281q-12 0 -12 -12v-1114q0 -21 -20 -21z" />
    <glyph glyph-name="daggerdbl" unicode="&#x2021;" horiz-adv-x="915" 
d="M492 -369h-68q-9 0 -15 6t-6 15v426q0 12 -12 12h-280q-9 0 -15 6t-6 15v59q0 20 21 20h280q12 0 12 13v622q0 13 -12 13h-280q-21 0 -21 20v60q0 20 21 20h280q12 0 12 12v422q0 9 6 15t15 6h68q20 0 20 -21v-422q0 -12 12 -12h281q20 0 20 -20v-60q0 -20 -20 -20h-281
q-12 0 -12 -13v-622q0 -13 12 -13h281q20 0 20 -20v-59q0 -21 -20 -21h-281q-12 0 -12 -12v-426q0 -21 -20 -21z" />
    <glyph glyph-name="bullet" unicode="&#x2022;" horiz-adv-x="866" 
d="M432 393q-100 0 -166.5 67.5t-66.5 170.5q0 102 66.5 169.5t166.5 67.5q102 0 169 -67t67 -170t-67.5 -170.5t-168.5 -67.5z" />
    <glyph glyph-name="ellipsis" unicode="&#x2026;" horiz-adv-x="1345" 
d="M1171 0h-100q-20 0 -20 20v138q0 20 20 20h100q21 0 21 -20v-138q0 -20 -21 -20zM723 0h-100q-21 0 -21 20v138q0 20 21 20h100q20 0 20 -20v-138q0 -20 -20 -20zM274 0h-100q-20 0 -20 20v138q0 20 20 20h100q21 0 21 -20v-138q0 -20 -21 -20z" />
    <glyph glyph-name="perthousand" unicode="&#x2030;" horiz-adv-x="2197" 
d="M403 -20h-55q-9 0 -12.5 5.5t0.5 14.5l807 1393q11 20 28 20h56q9 0 12.5 -5.5t-0.5 -14.5l-807 -1393q-11 -20 -29 -20zM420 676q-84 0 -141.5 40t-81.5 111q-17 70 -17 215t17 215q24 71 81.5 111.5t141.5 40.5q82 0 139.5 -40.5t81.5 -111.5q16 -66 16 -215t-16 -215
q-23 -71 -81 -111t-140 -40zM420 760q104 0 131 88q8 22 11 57t3 137q0 157 -14 195q-27 88 -131 88q-106 0 -133 -88q-15 -41 -15 -195t15 -194q27 -88 133 -88zM1780 -16q-82 0 -140 40t-81 111q-17 53 -17 215q0 159 17 215q24 71 81.5 111.5t139.5 40.5q83 0 141 -40.5
t80 -111.5q16 -53 16 -215q0 -165 -16 -215q-22 -71 -80 -111t-141 -40zM1159 -16q-82 0 -140 40t-81 111q-16 50 -16 215q0 162 16 215q24 71 81.5 111.5t139.5 40.5q83 0 141 -40.5t80 -111.5q17 -56 17 -215q0 -162 -17 -215q-22 -71 -80 -111t-141 -40zM1780 68
q103 0 133 88q14 47 14 194q0 149 -14 193q-30 88 -133 88t-133 -88q-15 -47 -15 -193q0 -143 15 -194q30 -88 133 -88zM1159 68q103 0 133 88q15 51 15 194q0 146 -15 193q-30 88 -133 88t-133 -88q-14 -44 -14 -193q0 -147 14 -194q30 -88 133 -88z" />
    <glyph glyph-name="guilsinglleft" unicode="&#x2039;" horiz-adv-x="667" 
d="M492 166l-351 360q-6 6 -6 14.5t6 14.5l351 360q6 6 13 3.5t7 -11.5v-92q0 -23 -14 -37l-228 -229q-8 -9 0 -17l228 -229q14 -14 14 -37v-92q0 -9 -7 -11.5t-13 3.5z" />
    <glyph glyph-name="guilsinglright" unicode="&#x203a;" horiz-adv-x="667" 
d="M526 526l-350 -360q-6 -6 -13 -3.5t-7 11.5v92q0 23 14 37l227 229q9 8 0 17l-227 229q-14 14 -14 37v92q0 9 7 11.5t13 -3.5l350 -360q14 -15 0 -29z" />
    <glyph glyph-name="fraction" unicode="&#x2044;" horiz-adv-x="309" 
d="M-229 -20h-56q-9 0 -12.5 5.5t0.5 14.5l807 1393q11 20 29 20h55q9 0 12.5 -5.5t-0.5 -14.5l-807 -1393q-11 -20 -28 -20z" />
    <glyph glyph-name="zero.superior" unicode="&#x2070;" horiz-adv-x="677" 
d="M340 866q-91 0 -152 42.5t-88 121.5q-18 67 -18 266q0 200 18 267q55 163 240 163q90 0 151.5 -42.5t86.5 -120.5q18 -55 18 -267q0 -210 -18 -266q-25 -79 -86.5 -121.5t-151.5 -42.5zM340 954q112 0 147 103q13 47 13 239q0 193 -13 240q-34 102 -147 102
q-112 0 -147 -102q-15 -54 -15 -240q0 -185 15 -239q35 -103 147 -103z" />
    <glyph glyph-name="four.superior" unicode="&#x2074;" horiz-adv-x="677" 
d="M492 881h-52q-20 0 -20 20v123q0 12 -12 12h-330q-9 0 -15 6t-6 15v45q0 15 9 33l272 557q9 20 27 20h59q9 0 12.5 -6t-0.5 -14l-272 -566v-2h244q12 0 12 13v200q0 21 20 21h52q20 0 20 -21v-200q0 -13 12 -13h74q20 0 20 -20v-47q0 -21 -20 -21h-74q-12 0 -12 -12v-123
q0 -20 -20 -20z" />
    <glyph glyph-name="five.superior" unicode="&#x2075;" horiz-adv-x="677" 
d="M348 866q-100 0 -160 45.5t-79 118.5q-7 21 12 27l49 18q19 6 25 -10q20 -54 55.5 -81.5t99.5 -27.5q112 0 139 93q11 37 11 100q0 68 -11 100q-28 90 -137 90q-102 0 -133 -75q-11 -19 -24 -19h-54q-20 0 -20 21v426q0 20 20 20h418q21 0 21 -20v-47q0 -9 -6 -15t-15 -6
h-334q-12 0 -12 -12v-246h2q45 61 152 61q167 0 213 -139q14 -43 14 -139q0 -85 -16 -135q-51 -148 -230 -148z" />
    <glyph glyph-name="six.superior" unicode="&#x2076;" horiz-adv-x="677" 
d="M340 866q-116 0 -189 70.5t-73 185.5q0 93 57 195l209 377q12 18 29 18h61q9 0 12.5 -6t-0.5 -14l-188 -338l2 -2q34 24 96 24q108 0 177 -70.5t69 -183.5q0 -115 -73 -185.5t-189 -70.5zM340 954q75 0 121.5 46.5t46.5 121.5q0 74 -46 120t-122 46q-75 0 -121.5 -46
t-46.5 -120q0 -75 46.5 -121.5t121.5 -46.5z" />
    <glyph glyph-name="seven.superior" unicode="&#x2077;" horiz-adv-x="677" 
d="M260 881h-57q-9 0 -13 6.5t0 15.5l306 719v2h-287q-12 0 -12 -12v-86q0 -9 -6 -15t-15 -6h-53q-9 0 -15 6t-6 15v166q0 20 21 20h452q21 0 21 -20v-58q0 -14 -6 -26l-303 -711q-8 -16 -27 -16z" />
    <glyph glyph-name="eight.superior" unicode="&#x2078;" horiz-adv-x="677" 
d="M340 866q-118 0 -192 68t-74 178q0 73 36 126.5t91 78.5v4q-46 25 -76.5 71t-30.5 105q0 98 69 163.5t177 65.5q106 0 175 -65.5t69 -163.5q0 -59 -30.5 -105t-76.5 -71v-4q56 -25 92.5 -78.5t36.5 -126.5q0 -110 -74 -178t-192 -68zM340 1358q63 0 106 39.5t43 99.5
q0 61 -43 101t-106 40q-64 0 -108 -40t-44 -101q0 -59 44 -99t108 -40zM340 954q75 0 123.5 45t48.5 115t-48.5 115t-123.5 45t-123.5 -45t-48.5 -115t48.5 -115t123.5 -45z" />
    <glyph glyph-name="nine.superior" unicode="&#x2079;" horiz-adv-x="677" 
d="M307 881h-63q-9 0 -13 6.5t0 13.5l189 338l-2 2q-31 -24 -94 -24q-108 0 -177 70t-69 183q0 115 73 185.5t189 70.5t189 -70.5t73 -185.5q0 -89 -59 -194l-209 -377q-9 -18 -27 -18zM340 1305q75 0 121.5 45.5t46.5 119.5q0 75 -46.5 121.5t-121.5 46.5t-121.5 -46.5
t-46.5 -121.5q0 -74 46 -119.5t122 -45.5z" />
    <glyph glyph-name="zero.inferior" unicode="&#x2080;" horiz-adv-x="677" 
d="M340 -334q-91 0 -152 42.5t-88 121.5q-18 67 -18 266t18 266q27 79 88 121.5t152 42.5q90 0 151.5 -42.5t86.5 -121.5q18 -56 18 -266t-18 -266q-25 -79 -86.5 -121.5t-151.5 -42.5zM340 -246q112 0 147 103q13 47 13 239q0 193 -13 240q-34 102 -147 102
q-112 0 -147 -102q-15 -54 -15 -240q0 -185 15 -239q35 -103 147 -103z" />
    <glyph glyph-name="one.inferior" unicode="&#x2081;" horiz-adv-x="677" 
d="M401 -319h-53q-20 0 -20 20v694h-2l-142 -96q-8 -5 -14 -2t-6 12v66q0 20 14 28l139 97q18 12 33 12h51q21 0 21 -20v-791q0 -20 -21 -20z" />
    <glyph glyph-name="two.inferior" unicode="&#x2082;" horiz-adv-x="677" 
d="M569 -319h-460q-21 0 -21 20v47q0 14 12 29l320 370q69 79 69 152q0 61 -39 100t-104 39q-61 0 -100 -32.5t-53 -90.5q-3 -20 -25 -16l-47 10q-22 4 -19 25q13 78 78.5 135t165.5 57q110 0 174 -65t64 -162q0 -55 -21.5 -102.5t-68.5 -104.5l-281 -319v-4h356q9 0 15 -6
t6 -15v-47q0 -20 -21 -20z" />
    <glyph glyph-name="three.inferior" unicode="&#x2083;" horiz-adv-x="677" 
d="M340 -334q-101 0 -167 46.5t-89 123.5q-6 19 12 25l51 14q16 5 25 -12q21 -48 62.5 -78.5t103.5 -30.5q73 0 117.5 44t44.5 112t-46 113t-120 45h-37q-21 0 -21 20v47q0 9 6 15t15 6h31q69 0 111 38.5t42 104.5q0 63 -40 101t-109 38q-112 0 -150 -96q-6 -19 -22 -16
l-47 12q-20 3 -17 22q16 70 78 118t160 48q111 0 176 -62t65 -161q0 -115 -106 -184v-2q49 -21 87 -73.5t38 -131.5q0 -108 -70.5 -177t-183.5 -69z" />
    <glyph glyph-name="four.inferior" unicode="&#x2084;" horiz-adv-x="677" 
d="M492 -319h-52q-20 0 -20 20v123q0 12 -12 12h-330q-9 0 -15 6t-6 15v45q0 14 9 32l272 558q9 20 27 20h59q9 0 12.5 -6t-0.5 -14l-272 -566v-2h244q12 0 12 13v200q0 21 20 21h52q20 0 20 -21v-200q0 -13 12 -13h74q20 0 20 -20v-47q0 -21 -20 -21h-74q-12 0 -12 -12
v-123q0 -20 -20 -20z" />
    <glyph glyph-name="five.inferior" unicode="&#x2085;" horiz-adv-x="677" 
d="M348 -334q-100 0 -160 45.5t-79 118.5q-7 21 12 27l49 18q19 6 25 -10q20 -54 55.5 -81.5t99.5 -27.5q112 0 139 92q11 37 11 101q0 68 -11 100q-28 90 -137 90q-101 0 -133 -76q-11 -18 -24 -18h-54q-20 0 -20 21v426q0 20 20 20h418q21 0 21 -20v-48q0 -20 -21 -20
h-334q-12 0 -12 -12v-246h2q45 61 152 61q167 0 213 -139q14 -43 14 -139q0 -85 -16 -135q-51 -148 -230 -148z" />
    <glyph glyph-name="six.inferior" unicode="&#x2086;" horiz-adv-x="677" 
d="M340 -334q-116 0 -189 70.5t-73 185.5q0 93 57 195l209 377q12 18 29 18h61q9 0 12.5 -6t-0.5 -14l-188 -338l2 -2q34 24 96 24q108 0 177 -70.5t69 -183.5q0 -115 -73 -185.5t-189 -70.5zM340 -246q75 0 121.5 46.5t46.5 121.5q0 74 -46 120t-122 46q-75 0 -121.5 -46
t-46.5 -120q0 -75 46.5 -121.5t121.5 -46.5z" />
    <glyph glyph-name="seven.inferior" unicode="&#x2087;" horiz-adv-x="677" 
d="M260 -319h-57q-9 0 -13 6.5t0 15.5l306 719v2h-287q-12 0 -12 -12v-86q0 -9 -6 -15t-15 -6h-53q-9 0 -15 6t-6 15v166q0 20 21 20h452q21 0 21 -20v-58q0 -14 -6 -26l-303 -711q-8 -16 -27 -16z" />
    <glyph glyph-name="eight.inferior" unicode="&#x2088;" horiz-adv-x="677" 
d="M340 -334q-118 0 -192 68t-74 178q0 73 36 126.5t91 78.5v4q-46 25 -76.5 71t-30.5 105q0 98 69 163.5t177 65.5q106 0 175 -65.5t69 -163.5q0 -59 -30.5 -105t-76.5 -71v-4q56 -25 92.5 -78.5t36.5 -126.5q0 -110 -74 -178t-192 -68zM340 158q63 0 106 39.5t43 99.5
q0 61 -43 101t-106 40q-64 0 -108 -40t-44 -101q0 -59 44 -99t108 -40zM340 -246q75 0 123.5 45t48.5 115t-48.5 115t-123.5 45t-123.5 -45t-48.5 -115t48.5 -115t123.5 -45z" />
    <glyph glyph-name="nine.inferior" unicode="&#x2089;" horiz-adv-x="677" 
d="M307 -319h-63q-9 0 -13 6.5t0 13.5l189 338l-2 2q-32 -25 -94 -25q-108 0 -177 70.5t-69 183.5q0 115 73 185.5t189 70.5t189 -70.5t73 -185.5q0 -89 -59 -194l-209 -377q-9 -18 -27 -18zM340 104q75 0 121.5 46t46.5 120q0 75 -46.5 121.5t-121.5 46.5t-121.5 -46.5
t-46.5 -121.5q0 -74 46 -120t122 -46z" />
    <glyph glyph-name="Euro" unicode="&#x20ac;" 
d="M618 -20q-140 0 -233 67t-135 193q-27 91 -27 278q0 12 -12 12h-96q-9 0 -15 6t-6 15v51q0 9 6 15t15 6h96q12 0 12 12v135q0 12 -12 12h-96q-9 0 -15 6t-6 15v51q0 20 21 20h96q12 0 12 13q0 175 27 266q42 126 135 193t233 67q136 0 226.5 -66t134.5 -171
q10 -19 -10 -27l-56 -31q-17 -7 -26 12q-90 177 -269 177q-199 0 -258 -181q-24 -65 -24 -239q0 -13 12 -13h436q9 0 14.5 -6.5t2.5 -15.5l-17 -49q-7 -21 -24 -21h-412q-12 0 -12 -12v-135q0 -12 12 -12h375q9 0 14 -7t2 -16l-16 -49q-7 -21 -25 -21h-350q-12 0 -12 -12
q0 -114 5 -164t19 -88q59 -180 258 -180q179 0 269 176q9 19 26 12l56 -30q20 -8 10 -27q-44 -105 -134.5 -171t-226.5 -66z" />
    <glyph glyph-name="afii61289" unicode="&#x2113;" horiz-adv-x="759" 
d="M170 432q-17 -10 -29 4l-32 47q-12 15 2 29l127 109v432q0 360 215 360q88 0 140 -67t52 -189q0 -145 -68.5 -283t-228.5 -301v-362q0 -125 98 -125q66 0 125 59q15 15 29 -2l31 -43q12 -14 -2 -28q-86 -92 -199 -92q-192 0 -192 233v276zM348 1059v-344
q106 122 151.5 224.5t45.5 217.5q0 73 -25 115.5t-67 42.5q-49 0 -77 -57t-28 -199z" />
    <glyph glyph-name="trademark" unicode="&#x2122;" horiz-adv-x="1673" 
d="M1548 586h-45q-20 0 -20 20v580h-4l-230 -469q-9 -17 -24 -17h-39q-16 0 -25 17l-229 469h-4v-580q0 -20 -21 -20h-45q-20 0 -20 20v766q0 21 20 21h47q17 0 27 -19l268 -561h6l265 561q9 19 24 19h49q9 0 15 -6t6 -15v-766q0 -20 -21 -20zM412 586h-50q-20 0 -20 20v690
q0 13 -12 13h-226q-20 0 -20 20v43q0 21 20 21h566q20 0 20 -21v-43q0 -20 -20 -20h-226q-12 0 -12 -13v-690q0 -20 -20 -20z" />
    <glyph glyph-name="estimated" unicode="&#x212e;" horiz-adv-x="1316" 
d="M655 -20q-140 0 -249 68.5t-166.5 183.5t-57.5 257q0 218 131 363t342 145q214 0 346 -141.5t134 -366.5h-744v-335q108 -105 264 -105q117 0 202.5 52.5t152.5 168.5l67 -43q-88 -132 -183.5 -189.5t-238.5 -57.5zM926 557v266q-119 113 -271 113q-157 0 -264 -113v-266
h535z" />
    <glyph glyph-name="onethird" unicode="&#x2153;" horiz-adv-x="1777" 
d="M438 561h-53q-20 0 -20 21v694h-3l-141 -96q-7 -5 -13.5 -2t-6.5 12v65q0 21 14 29l139 96q20 13 33 13h51q9 0 15 -6t6 -15v-790q0 -9 -6 -15t-15 -6zM434 -20h-55q-9 0 -12.5 5.5t0.5 14.5l807 1393q11 20 28 20h55q9 0 13 -5.5t0 -14.5l-807 -1393q-11 -20 -29 -20z
M1323 -14q-101 0 -167 46.5t-89 123.5q-6 18 12 24l51 15q16 5 25 -13q21 -47 62.5 -77.5t103.5 -30.5q73 0 117.5 43.5t44.5 111.5t-46 113t-120 45h-37q-20 0 -20 21v47q0 20 20 20h31q69 0 111 38.5t42 104.5q0 63 -40 101.5t-109 38.5q-112 0 -150 -96q-7 -20 -22 -17
l-47 12q-20 3 -17 23q16 70 78 118t160 48q111 0 176.5 -62.5t65.5 -160.5q0 -116 -107 -185v-2q49 -21 87 -73.5t38 -131.5q0 -108 -70.5 -176.5t-183.5 -68.5z" />
    <glyph glyph-name="twothirds" unicode="&#x2154;" horiz-adv-x="1972" 
d="M680 561h-461q-20 0 -20 21v47q0 13 12 28l319 371q70 80 70 152q0 61 -39 100t-104 39q-61 0 -100.5 -32.5t-53.5 -90.5q-3 -19 -24 -16l-48 10q-21 3 -18 24q13 78 78.5 135.5t165.5 57.5q110 0 173.5 -64.5t63.5 -162.5q0 -55 -21.5 -102.5t-68.5 -104.5l-280 -320v-4
h356q20 0 20 -20v-47q0 -21 -20 -21zM629 -20h-56q-9 0 -12.5 5.5t0.5 14.5l807 1393q11 20 29 20h55q9 0 12.5 -5.5t-0.5 -14.5l-807 -1393q-11 -20 -28 -20zM1518 -14q-101 0 -167 46.5t-89 123.5q-6 18 12 24l51 15q16 5 25 -13q21 -47 62.5 -77.5t103.5 -30.5
q73 0 117 43.5t44 111.5t-46 113t-120 45h-36q-9 0 -15 6t-6 15v47q0 20 21 20h30q69 0 111.5 38.5t42.5 104.5q0 63 -40.5 101.5t-109.5 38.5q-111 0 -149 -96q-7 -20 -23 -17l-47 12q-19 3 -16 23q16 70 77.5 118t159.5 48q111 0 176.5 -62.5t65.5 -160.5
q0 -116 -106 -185v-2q49 -21 87 -73.5t38 -131.5q0 -108 -70.5 -176.5t-183.5 -68.5z" />
    <glyph glyph-name="oneeighth" unicode="&#x215b;" horiz-adv-x="1779" 
d="M438 561h-53q-20 0 -20 21v694h-3l-141 -96q-7 -5 -13.5 -2t-6.5 12v65q0 21 14 29l139 96q20 13 33 13h51q9 0 15 -6t6 -15v-790q0 -9 -6 -15t-15 -6zM1315 -14q-118 0 -192 67.5t-74 177.5q0 73 36 126.5t91 78.5v4q-46 25 -76.5 71t-30.5 105q0 98 69 164t177 66
q106 0 175 -66t69 -164q0 -59 -30.5 -105t-76.5 -71v-4q56 -25 92.5 -78.5t36.5 -126.5q0 -110 -74 -177.5t-192 -67.5zM1315 477q63 0 106 39.5t43 99.5q0 61 -43 101.5t-106 40.5q-64 0 -108 -40.5t-44 -101.5q0 -59 44 -99t108 -40zM1315 74q75 0 123.5 44.5t48.5 114.5
t-48.5 115t-123.5 45t-123.5 -45t-48.5 -115t48.5 -114.5t123.5 -44.5zM434 -20h-55q-9 0 -12.5 5.5t0.5 14.5l807 1393q11 20 28 20h55q9 0 13 -5.5t0 -14.5l-807 -1393q-11 -20 -29 -20z" />
    <glyph glyph-name="threeeighths" unicode="&#x215c;" horiz-adv-x="1921" 
d="M1456 -14q-118 0 -192 67.5t-74 177.5q0 73 36 126.5t91 78.5v4q-46 25 -76.5 71t-30.5 105q0 98 69 164t177 66q106 0 175 -66t69 -164q0 -59 -30.5 -105t-76.5 -71v-4q56 -25 92.5 -78.5t36.5 -126.5q0 -110 -74 -177.5t-192 -67.5zM1456 477q63 0 106.5 39.5
t43.5 99.5q0 61 -43.5 101.5t-106.5 40.5q-64 0 -107.5 -40.5t-43.5 -101.5q0 -60 43.5 -99.5t107.5 -39.5zM1456 74q75 0 123.5 44.5t48.5 114.5t-48.5 115t-123.5 45t-123.5 -45t-48.5 -115t48.5 -114.5t123.5 -44.5zM575 -20h-55q-9 0 -12.5 5.5t0.5 14.5l807 1393
q11 20 28 20h56q9 0 12.5 -5.5t-0.5 -14.5l-807 -1393q-11 -20 -29 -20zM457 547q-101 0 -167 46.5t-89 123.5q-6 18 12 24l51 15q16 5 25 -13q21 -47 62.5 -77.5t103.5 -30.5q73 0 117 44t44 112t-45.5 112.5t-119.5 44.5h-37q-9 0 -15 6t-6 15v47q0 20 21 20h30
q69 0 111.5 39t42.5 105q0 63 -40 101t-109 38q-112 0 -150 -96q-7 -20 -23 -17l-47 13q-19 3 -16 22q16 70 78 118t160 48q111 0 176 -62t65 -161q0 -116 -106 -185v-2q49 -21 87 -73t38 -131q0 -108 -70.5 -177t-183.5 -69z" />
    <glyph glyph-name="fiveeighths" unicode="&#x215d;" horiz-adv-x="1904" 
d="M1440 -14q-118 0 -192 67.5t-74 177.5q0 73 35.5 126.5t90.5 78.5v4q-46 25 -76 70.5t-30 105.5q0 98 69 164t177 66q106 0 174.5 -66t68.5 -164q0 -60 -30 -105.5t-76 -70.5v-4q56 -25 92.5 -78.5t36.5 -126.5q0 -110 -74 -177.5t-192 -67.5zM1440 477q63 0 106 39.5
t43 99.5q0 61 -43 101.5t-106 40.5q-64 0 -108 -40.5t-44 -101.5q0 -59 44 -99t108 -40zM1440 74q75 0 123.5 44.5t48.5 114.5t-48.5 115t-123.5 45t-123.5 -45t-48.5 -115t48.5 -114.5t123.5 -44.5zM559 -20h-55q-9 0 -12.5 5.5t0.5 14.5l806 1393q11 20 29 20h55
q9 0 13 -5.5t0 -14.5l-807 -1393q-11 -20 -29 -20zM440 547q-100 0 -160 45.5t-79 118.5q-7 20 12 26l49 19q18 6 25 -11q20 -53 55.5 -80.5t99.5 -27.5q113 0 140 92q10 33 10 100q0 72 -10 101q-28 90 -138 90q-101 0 -133 -76q-11 -18 -24 -18h-54q-20 0 -20 20v426
q0 21 20 21h418q9 0 15 -6t6 -15v-47q0 -20 -21 -20h-334q-12 0 -12 -13v-245h2q45 61 152 61q167 0 213 -139q14 -43 14 -140q0 -85 -16 -135q-51 -147 -230 -147z" />
    <glyph glyph-name="seveneighths" unicode="&#x215e;" horiz-adv-x="1753" 
d="M1288 -14q-118 0 -192 67.5t-74 177.5q0 73 36 126.5t91 78.5v4q-46 25 -76.5 71t-30.5 105q0 98 69 164t177 66q106 0 175 -66t69 -164q0 -59 -30.5 -105t-76.5 -71v-4q56 -25 92.5 -78.5t36.5 -126.5q0 -110 -74 -177.5t-192 -67.5zM1288 477q63 0 106.5 39.5
t43.5 99.5q0 61 -43.5 101.5t-106.5 40.5q-64 0 -107.5 -40.5t-43.5 -101.5q0 -60 43.5 -99.5t107.5 -39.5zM1288 74q75 0 123.5 44.5t48.5 114.5t-48.5 115t-123.5 45t-123.5 -45t-48.5 -115t48.5 -114.5t123.5 -44.5zM354 561h-57q-9 0 -12.5 7t0.5 16l305 719v2h-287
q-12 0 -12 -13v-86q0 -20 -21 -20h-53q-20 0 -20 20v166q0 21 20 21h453q20 0 20 -21v-57q0 -15 -6 -27l-303 -710q-9 -17 -27 -17zM408 -20h-56q-9 0 -12.5 5.5t0.5 14.5l807 1393q11 20 29 20h55q9 0 12.5 -5.5t-0.5 -14.5l-807 -1393q-11 -20 -28 -20z" />
    <glyph glyph-name="partialdiff" unicode="&#x2202;" horiz-adv-x="1099" 
d="M512 -20q-178 0 -283.5 121t-105.5 313q0 188 112.5 311t286.5 123q216 0 346 -176h2q4 180 -32.5 321.5t-122 229.5t-209.5 88q-118 0 -240 -92q-16 -10 -26 6l-33 51q-10 16 6 29q138 108 295 108q119 0 210.5 -55t147 -151.5t83.5 -220t28 -269.5q0 -351 -118.5 -544
t-346.5 -193zM520 86q153 0 238.5 122.5t103.5 350.5q-61 92 -144 140.5t-177 48.5q-144 0 -226 -89.5t-82 -244.5q0 -147 78 -237.5t209 -90.5z" />
    <glyph glyph-name="product" unicode="&#x220f;" horiz-adv-x="1304" 
d="M1102 -369h-76q-20 0 -20 21v1739q0 12 -13 12h-682q-12 0 -12 -12v-1739q0 -21 -20 -21h-76q-9 0 -15 6t-6 15v1843q0 9 6 15t15 6h899q20 0 20 -21v-1843q0 -21 -20 -21z" />
    <glyph glyph-name="summation" unicode="&#x2211;" horiz-adv-x="1087" 
d="M971 -369h-826q-20 0 -20 21v63q0 11 4 19l399 925l-389 742q-6 12 -6 22v72q0 9 6 15t15 6h796q9 0 15 -6t6 -15v-72q0 -20 -21 -20h-682l381 -721q6 -14 0 -29l-393 -909h715q20 0 20 -20v-72q0 -21 -20 -21z" />
    <glyph glyph-name="minus" unicode="&#x2212;" 
d="M934 514h-778q-9 0 -15 6t-6 15v61q0 20 21 20h778q20 0 20 -20v-61q0 -21 -20 -21z" />
    <glyph glyph-name="uni2215" unicode="&#x2215;" horiz-adv-x="309" 
d="M-229 -20h-56q-9 0 -12.5 5.5t0.5 14.5l807 1393q11 20 29 20h55q9 0 12.5 -5.5t-0.5 -14.5l-807 -1393q-11 -20 -28 -20z" />
    <glyph glyph-name="uni2219" unicode="&#x2219;" horiz-adv-x="448" 
d="M274 455h-100q-20 0 -20 20v137q0 21 20 21h100q9 0 15 -6t6 -15v-137q0 -20 -21 -20z" />
    <glyph glyph-name="radical" unicode="&#x221a;" horiz-adv-x="1261" 
d="M682 -369h-59q-18 0 -25 21l-301 612q-6 12 -18 6l-148 -69q-20 -10 -27 8l-24 53q-10 20 8 27l236 117q19 9 28 -9l287 -596h6l473 1694q7 21 25 21h61q9 0 14.5 -6t2.5 -15l-514 -1843q-7 -21 -25 -21z" />
    <glyph glyph-name="infinity" unicode="&#x221e;" horiz-adv-x="1574" 
d="M1167 182q-99 0 -188 59.5t-193 188.5q-104 -128 -192.5 -188t-187.5 -60q-135 0 -222.5 90t-87.5 234q0 143 86.5 232t225.5 89q96 0 183.5 -59t194.5 -188q108 131 196 189t183 58q138 0 226 -87.5t88 -233.5q0 -141 -88 -232.5t-224 -91.5zM1163 274q100 0 161.5 69.5
t61.5 164.5q0 99 -59.5 164t-163.5 65q-74 0 -144.5 -53t-172.5 -180q108 -131 175 -180.5t142 -49.5zM410 274q75 0 146.5 53.5t170.5 178.5q-101 126 -172 178.5t-145 52.5q-103 0 -162.5 -64.5t-59.5 -164.5t63 -167t159 -67z" />
    <glyph glyph-name="integral" unicode="&#x222b;" horiz-adv-x="782" 
d="M193 -369q-48 0 -64 4q-20 3 -20 21v63q0 11 5.5 16.5t14.5 4.5q18 -2 51 -2q80 0 118 54t38 177v1182q0 193 61 278.5t195 88.5q21 0 61 -5q21 -3 21 -20v-66q0 -9 -6 -15t-15 -5q-18 4 -51 4q-80 0 -118 -54.5t-38 -176.5v-1182q0 -193 -60.5 -278.5t-192.5 -88.5z" />
    <glyph glyph-name="approxequal" unicode="&#x2248;" 
d="M719 639q-39 0 -78.5 13t-63.5 27.5t-59 39.5q-93 65 -151 65q-53 0 -91 -27t-75 -89q-10 -17 -29 -4l-41 26q-14 10 -6 29q38 75 103 118.5t141 43.5q40 0 79.5 -13.5t62 -27t58.5 -39.5q94 -66 152 -66q53 0 90.5 27.5t75.5 89.5q11 18 31 4l38 -25q17 -11 7 -28
q-39 -76 -103 -120t-141 -44zM719 250q-39 0 -78.5 13t-63.5 27.5t-59 39.5q-93 65 -151 65q-53 0 -91 -27t-75 -89q-10 -17 -29 -5l-41 27q-14 10 -6 29q38 75 103 118.5t141 43.5q40 0 79.5 -13.5t62 -27t58.5 -39.5q94 -66 152 -66q53 0 90.5 27.5t75.5 89.5q11 18 31 4
l38 -25q17 -11 7 -28q-39 -76 -103 -120t-141 -44z" />
    <glyph glyph-name="notequal" unicode="&#x2260;" 
d="M934 315h-479l-117 -209q-11 -20 -31 -20h-59q-9 0 -12 8t2 15l114 206h-196q-9 0 -15 6t-6 15v61q0 9 6 15t15 6h254l165 295h-419q-21 0 -21 20v62q0 20 21 20h477l119 209q11 20 28 20h62q9 0 12 -7t-2 -15l-117 -207h199q20 0 20 -20v-62q0 -20 -20 -20h-256
l-166 -295h422q20 0 20 -21v-61q0 -21 -20 -21z" />
    <glyph glyph-name="lessequal" unicode="&#x2264;" 
d="M934 262l-778 318q-21 8 -21 26v53q0 19 21 27l778 318q9 3 14.5 -1.5t5.5 -13.5v-69q0 -18 -20 -27l-647 -258v-4l647 -256q20 -9 20 -27v-72q0 -9 -5.5 -13t-14.5 -1zM934 0h-778q-21 0 -21 20v62q0 20 21 20h778q20 0 20 -20v-62q0 -20 -20 -20z" />
    <glyph glyph-name="greaterequal" unicode="&#x2265;" 
d="M934 580l-778 -318q-9 -3 -15 1t-6 13v72q0 18 21 27l647 256v4l-647 258q-21 9 -21 27v69q0 9 6 13.5t15 1.5l778 -318q20 -8 20 -27v-53q0 -18 -20 -26zM934 0h-778q-21 0 -21 20v62q0 20 21 20h778q20 0 20 -20v-62q0 -20 -20 -20z" />
    <glyph glyph-name="lozenge" unicode="&#x25ca;" horiz-adv-x="1138" 
d="M602 -106h-65q-15 0 -25 20l-367 745q-6 14 0 29l367 746q10 20 25 20h65q15 0 25 -20l366 -746q6 -14 0 -29l-366 -745q-10 -20 -25 -20zM573 33l312 641l-314 641h-4l-311 -641l313 -641h4z" />
    <glyph glyph-name="uniF8FF" unicode="&#xf8ff;" horiz-adv-x="962" 
d="M942 0h-922q-20 0 -20 20v1352q0 21 20 21h922q9 0 15 -6t6 -15v-1352q0 -20 -21 -20zM870 76q13 0 13 12v1217q0 12 -13 12h-778q-12 0 -12 -12v-1217q0 -12 12 -12h778zM485 459h-45q-20 0 -20 20v49q0 82 45 138l76 98q45 54 60 88t15 76q0 64 -41 103.5t-106 39.5
q-128 0 -158 -137q-3 -19 -24 -16l-43 8q-20 3 -17 22q18 91 83 147t161 56q102 0 165.5 -63.5t63.5 -159.5q0 -57 -17.5 -99.5t-59.5 -93.5l-76 -98q-26 -32 -33.5 -53.5t-7.5 -59.5v-45q0 -20 -21 -20zM494 231h-64q-20 0 -20 21v80q0 20 20 20h64q20 0 20 -20v-80
q0 -21 -20 -21z" />
    <glyph glyph-name="CR" horiz-adv-x="0" 
 />
    <glyph glyph-name="grave.cap" horiz-adv-x="862" 
d="M575 1565h-53q-21 0 -37 18l-196 215q-6 8 -3.5 14.5t11.5 6.5h82q22 0 37 -21l168 -213q7 -9 4 -14.5t-13 -5.5z" />
    <glyph glyph-name="acute.cap" horiz-adv-x="862" 
d="M350 1565h-53q-9 0 -12 5.5t4 14.5l168 213q15 21 37 21h81q9 0 12 -6.5t-3 -14.5l-197 -215q-16 -18 -37 -18z" />
    <glyph glyph-name="circumflex.cap" horiz-adv-x="862" 
d="M664 1544h-52q-18 0 -34 21l-146 174h-4l-143 -174q-18 -21 -35 -21h-51q-9 0 -12 7t3 14l185 252q13 18 33 18h47q17 0 30 -18l187 -252q6 -7 3.5 -14t-11.5 -7z" />
    <glyph glyph-name="caron.cap" horiz-adv-x="862" 
d="M455 1544h-47q-19 0 -33 19l-185 249q-6 8 -3 14.5t12 6.5h51q17 0 35 -21l143 -174h4l146 174q16 21 34 21h52q9 0 11.5 -6.5t-3.5 -14.5l-187 -249q-14 -19 -30 -19z" />
    <glyph glyph-name="caron.alt" horiz-adv-x="862" 
d="M389 1096q-18 0 -18 20v256q0 21 20 21h76q20 0 20 -21v-98q0 -23 -10 -43l-65 -117q-9 -18 -23 -18z" />
    <glyph glyph-name="tilde.cap" horiz-adv-x="862" 
d="M539 1602q-54 0 -123 43q-59 36 -101 36q-32 0 -57.5 -16t-60.5 -51q-7 -6 -13 -4t-6 10v61q0 14 17 31q55 62 124 62q51 0 123 -41q53 -37 101 -37q57 0 121 67q6 6 11 4t5 -10v-61q0 -17 -14 -33q-61 -61 -127 -61z" />
    <glyph glyph-name="dieresis.cap" horiz-adv-x="862" 
d="M676 1610h-80q-21 0 -21 20v115q0 20 21 20h80q20 0 20 -20v-115q0 -20 -20 -20zM266 1610h-80q-20 0 -20 20v115q0 20 20 20h80q21 0 21 -20v-115q0 -20 -21 -20z" />
    <glyph glyph-name="macron.cap" horiz-adv-x="862" 
d="M676 1638h-492q-20 0 -20 21v53q0 21 20 21h492q20 0 20 -21v-53q0 -21 -20 -21z" />
    <glyph glyph-name="breve.cap" horiz-adv-x="862" 
d="M430 1573q-103 0 -172.5 58t-81.5 153q-1 9 4.5 14.5t14.5 5.5h38q19 0 25 -20q35 -121 172 -121q138 0 176 121q6 20 23 20h39q21 0 18 -20q-14 -95 -83 -153t-173 -58z" />
    <glyph glyph-name="ring.cap" horiz-adv-x="862" 
d="M610 1692q0 -78 -51 -129.5t-129 -51.5t-129 51.5t-51 129.5t51 129t129 51t129 -51t51 -129zM539 1692q0 50 -30 82t-79 32t-78.5 -32t-29.5 -82t29.5 -82.5t78.5 -32.5t79 32.5t30 82.5z" />
    <glyph glyph-name="hungarumlaut.cap" horiz-adv-x="862" 
d="M526 1565h-51q-9 0 -11.5 6.5t3.5 13.5l137 215q15 21 33 21h70q9 0 11.5 -6.5t-3.5 -14.5l-156 -215q-14 -20 -33 -20zM272 1565h-51q-9 0 -11.5 6.5t3.5 13.5l137 215q12 21 33 21h68q9 0 11.5 -6.5t-3.5 -14.5l-154 -215q-14 -20 -33 -20z" />
    <glyph glyph-name="dotaccent.cap" horiz-adv-x="862" 
d="M475 1610h-90q-20 0 -20 20v115q0 20 20 20h90q21 0 21 -20v-115q0 -20 -21 -20z" />
    <glyph glyph-name="commaaccent" horiz-adv-x="862" 
d="M391 -399q-18 0 -18 18v246q0 20 20 20h76q20 0 20 -20v-86q0 -25 -10 -45l-65 -117q-8 -16 -23 -16z" />
    <glyph glyph-name="commaaccent.alt" horiz-adv-x="862" 
d="M469 1171h-76q-20 0 -20 21v94q0 25 10 45l66 117q8 16 22 16q18 0 18 -18v-254q0 -21 -20 -21z" />
    <glyph glyph-name="uni0394" horiz-adv-x="1220" 
d="M1141 0h-1061q-11 0 -15.5 5.5t-1.5 14.5l488 1352q7 21 24 21h74q16 0 23 -21l485 -1352q7 -20 -16 -20zM993 104q14 0 11 13l-390 1087h-6l-393 -1087q-3 -13 12 -13h766z" />
    <glyph glyph-name="uni03A9" horiz-adv-x="1253" 
d="M1083 0h-356q-20 0 -20 20v74q0 18 20 25q83 30 134 69.5t83.5 107.5t44.5 161.5t12 238.5q0 261 -36 371q-78 236 -338 236t-338 -236q-37 -113 -37 -371q0 -145 12 -238.5t44.5 -161.5t83.5 -107.5t134 -69.5q21 -7 21 -25v-74q0 -20 -21 -20h-356q-20 0 -20 20v70
q0 21 20 21h178v4q-81 44 -126 109.5t-67 178t-22 293.5q0 277 41 402q50 157 166 236t287 79t286.5 -79t165.5 -236q41 -125 41 -402q0 -265 -48 -390t-167 -191v-4h178q9 0 15 -6t6 -15v-70q0 -20 -21 -20z" />
    <glyph glyph-name="uni03BC" horiz-adv-x="1114" 
d="M905 0h-71q-21 0 -21 20v117h-2q-33 -73 -105.5 -115t-168.5 -42q-168 0 -234 104h-4v-432q0 -21 -20 -21h-70q-9 0 -15 6t-6 15v1304q0 9 6 15t15 6h70q20 0 20 -21v-598q0 -133 64 -202.5t188 -69.5q115 0 188.5 73t73.5 199v598q0 9 6 15t15 6h71q9 0 15 -6t6 -15
v-936q0 -20 -21 -20z" />
    <glyph glyph-name="exclam.sc" horiz-adv-x="532" 
d="M291 362h-47q-9 0 -15 6t-6 15l-16 655q0 21 20 21h82q9 0 15 -6t6 -15l-19 -655q0 -21 -20 -21zM317 0h-102q-20 0 -20 20v138q0 20 20 20h102q21 0 21 -20v-138q0 -20 -21 -20z" />
    <glyph glyph-name="dollar.sc" horiz-adv-x="913" 
d="M479 -111h-33q-20 0 -20 21v74q-187 5 -336 98q-6 5 -7 14t5 15l41 55q11 14 29 2q127 -79 268 -84v401l-10 2q-153 18 -231.5 95t-78.5 196q0 131 88 210t232 85v76q0 20 20 20h33q21 0 21 -20v-76q145 -9 254 -76q18 -11 6 -28l-33 -51q-13 -16 -29 -7q-96 52 -198 60
v-387q166 -20 248.5 -95t82.5 -196q0 -128 -86.5 -211t-244.5 -96v-76q0 -9 -6 -15t-15 -6zM213 788q0 -79 48 -128t165 -68v381q-98 -5 -155.5 -54t-57.5 -131zM725 285q0 76 -51 124.5t-174 67.5v-391q106 9 165.5 61t59.5 138z" />
    <glyph glyph-name="percent.sc" horiz-adv-x="1302" 
d="M334 -20h-53q-10 0 -14 6t1 14l674 1059q11 20 33 20h53q9 0 12 -6.5t-2 -13.5l-673 -1059q-11 -20 -31 -20zM332 516q-70 0 -120.5 34t-72.5 93q-14 54 -14 150q0 98 14 149q22 61 72.5 95t120.5 34t120 -34t70 -95q17 -49 17 -149q0 -97 -17 -150q-20 -59 -70 -93
t-120 -34zM332 598q83 0 106 74q13 43 13 121q0 79 -13 122q-23 74 -106 74q-41 0 -68.5 -20t-38.5 -54q-12 -30 -12 -122q0 -91 12 -121q11 -34 38.5 -54t68.5 -20zM977 -12q-70 0 -120.5 34t-72.5 93q-14 54 -14 149q0 99 14 150q22 61 72.5 95t120.5 34t120 -34t70 -95
q17 -49 17 -150q0 -96 -17 -149q-20 -59 -70 -93t-120 -34zM977 70q83 0 106 73q13 43 13 121q0 80 -13 123q-23 74 -106 74q-41 0 -68.5 -20t-38.5 -54q-12 -40 -12 -123q0 -81 12 -121q23 -73 107 -73z" />
    <glyph glyph-name="ampersand.sc" horiz-adv-x="1181" 
d="M991 -10h-37q-47 0 -75 14.5t-62 56.5l-65 78q-79 -84 -154.5 -121.5t-161.5 -37.5q-129 0 -203.5 75t-74.5 193q0 90 49.5 167.5t171.5 176.5q-91 111 -118.5 162t-27.5 106q0 94 68.5 156.5t175.5 62.5q109 0 174.5 -65t65.5 -158q0 -65 -42 -124.5t-157 -151.5
l238 -285l116 143q13 16 31 4l41 -34q18 -11 4 -29l-129 -160l78 -92q26 -35 68 -35h26q21 0 21 -20v-62q0 -20 -21 -20zM340 860q0 -36 22.5 -76t94.5 -131q96 75 126.5 117.5t30.5 85.5q0 54 -37 89.5t-100 35.5q-64 0 -100.5 -33.5t-36.5 -87.5zM442 80q65 0 121 31
t125 106l-248 299q-104 -83 -141 -140t-37 -122q0 -76 48 -125t132 -49z" />
    <glyph glyph-name="zero.sc" horiz-adv-x="913" 
d="M457 -20q-115 0 -198 58t-114 155q-14 44 -19 104.5t-5 230.5q0 172 5 233t19 105q31 97 114 155t198 58t196.5 -58t114.5 -155q15 -45 20 -106.5t5 -231.5q0 -168 -5 -229t-20 -106q-33 -97 -114.5 -155t-196.5 -58zM457 82q76 0 131 38.5t74 100.5q11 33 15.5 92
t4.5 215t-4.5 216.5t-15.5 91.5q-19 63 -73.5 101t-131.5 38q-76 0 -131 -38t-76 -101q-19 -62 -19 -308q0 -242 19 -307q21 -62 76 -100.5t131 -38.5z" />
    <glyph glyph-name="one.sc" horiz-adv-x="913" 
d="M559 0h-70q-20 0 -20 20v906h-4l-209 -133q-8 -5 -15.5 -1t-7.5 15v72q0 21 15 30l213 140q15 10 33 10h65q9 0 15 -6t6 -15v-1018q0 -20 -21 -20z" />
    <glyph glyph-name="two.sc" horiz-adv-x="913" 
d="M760 0h-600q-21 0 -21 20v54q0 13 8 24l426 469q53 58 75 104t22 105q0 89 -57.5 144t-153.5 55q-87 0 -144 -48t-71 -126q-2 -8 -9.5 -13t-17.5 -2l-61 15q-20 7 -17 24q15 103 101 178.5t221 75.5q144 0 231.5 -86t87.5 -213q0 -80 -28.5 -142t-94.5 -134l-370 -398v-2
h473q20 0 20 -20v-64q0 -20 -20 -20z" />
    <glyph glyph-name="three.sc" horiz-adv-x="913" 
d="M457 -25q-136 0 -224.5 66t-111.5 164q-3 18 16 24l62 17q19 5 26 -15q55 -151 232 -151q103 0 165 58.5t62 150.5t-64 150.5t-171 58.5h-50q-20 0 -20 20v62q0 20 20 20h45q98 0 156.5 51.5t58.5 136.5q0 81 -56 134t-154 53q-86 0 -138.5 -39t-70.5 -107
q-3 -17 -27 -14l-61 19q-20 3 -17 22q23 98 106 160.5t210 62.5q146 0 232.5 -81t86.5 -207q0 -78 -41 -137.5t-108 -92.5v-4q70 -25 122 -95t52 -171q0 -139 -94 -227.5t-244 -88.5z" />
    <glyph glyph-name="four.sc" horiz-adv-x="913" 
d="M666 0h-70q-21 0 -21 20v166q0 13 -12 13h-454q-21 0 -21 20v51q0 14 10 37l379 735q9 17 29 17h72q10 0 13.5 -5.5t0.5 -13.5l-377 -735v-2h348q12 0 12 12v273q0 20 21 20h70q20 0 20 -20v-273q0 -12 12 -12h119q21 0 21 -20v-64q0 -20 -21 -20h-119q-12 0 -12 -13
v-166q0 -20 -20 -20z" />
    <glyph glyph-name="five.sc" horiz-adv-x="913" 
d="M471 -20q-130 0 -212 62t-107 159q-4 21 14 24l63 17q20 6 27 -15q47 -145 215 -145q77 0 129 33t72 94q16 50 16 129q0 78 -14 129q-46 129 -197 129q-78 0 -129 -33t-72 -82q-10 -20 -22 -20h-66q-20 0 -20 20v557q0 21 20 21h566q20 0 20 -21v-63q0 -21 -20 -21h-469
q-13 0 -13 -12v-330h4q27 36 80.5 61t128.5 25q231 0 293 -190q21 -67 21 -170q0 -94 -21 -162q-31 -94 -111 -145t-196 -51z" />
    <glyph glyph-name="six.sc" horiz-adv-x="913" 
d="M457 -20q-152 0 -250 90t-98 237q0 119 75 246l291 485q9 21 29 21h74q10 0 13.5 -6.5t-1.5 -14.5l-260 -436l4 -2q53 33 139 33q144 0 238 -89.5t94 -236.5t-99 -237t-249 -90zM457 82q103 0 169 63.5t66 159.5q0 97 -65.5 160t-169.5 63t-171 -63t-67 -160
q0 -96 67 -159.5t171 -63.5z" />
    <glyph glyph-name="seven.sc" horiz-adv-x="913" 
d="M342 0h-74q-20 0 -10 20l418 928v6h-412q-12 0 -12 -12v-131q0 -20 -21 -20h-63q-21 0 -21 20v227q0 9 6 15t15 6h604q9 0 15 -6t6 -15v-73q0 -9 -7 -23l-415 -922q-6 -12 -11.5 -16t-17.5 -4z" />
    <glyph glyph-name="eight.sc" horiz-adv-x="913" 
d="M457 -20q-155 0 -251.5 87.5t-96.5 223.5q0 92 46.5 160.5t125.5 101.5v4q-67 30 -106.5 91.5t-39.5 142.5q0 121 88.5 204.5t233.5 83.5t233 -83.5t88 -204.5q0 -81 -39 -142.5t-106 -91.5v-4q79 -33 125.5 -101.5t46.5 -160.5q0 -136 -96.5 -223.5t-251.5 -87.5z
M457 606q95 0 153 52.5t58 132.5t-58 132t-153 52t-153 -52t-58 -132t58 -132.5t153 -52.5zM457 82q105 0 170 60t65 151t-65 151t-170 60q-106 0 -172 -60t-66 -151t66 -151t172 -60z" />
    <glyph glyph-name="nine.sc" horiz-adv-x="913" 
d="M410 0h-74q-10 0 -13.5 6t1.5 14l258 437l-2 2q-53 -33 -140 -33q-145 0 -238 89t-93 235q0 148 98.5 238.5t249.5 90.5q150 0 249 -91t99 -238q0 -119 -76 -244l-291 -488q-9 -18 -28 -18zM457 528q103 0 169 64t66 160q0 97 -65.5 160t-169.5 63t-171 -63t-67 -160
q0 -96 67 -160t171 -64z" />
    <glyph glyph-name="question.sc" horiz-adv-x="817" 
d="M440 295h-71q-21 0 -21 20v54q0 47 13 78.5t47 68.5l90 98q56 60 76 99.5t20 93.5q0 74 -50.5 120t-133.5 46q-158 0 -195 -160q-3 -19 -25 -16l-67 10q-20 3 -17 24q20 110 99.5 179t208.5 69q131 0 212 -75.5t81 -190.5q0 -71 -24 -122.5t-81 -112.5l-86 -95
q-34 -35 -44.5 -60.5t-10.5 -68.5v-39q0 -20 -21 -20zM455 0h-103q-20 0 -20 20v138q0 20 20 20h103q20 0 20 -20v-138q0 -20 -20 -20z" />
    <glyph glyph-name="a.sc" horiz-adv-x="1050" 
d="M971 0h-74q-18 0 -27 20l-94 242h-502l-96 -242q-9 -20 -24 -20h-74q-9 0 -13 5.5t-1 14.5l401 1018q7 21 25 21h71q18 0 25 -21l397 -1018q3 -9 -1 -14.5t-13 -5.5zM526 897l-211 -530h420l-205 530h-4z" />
    <glyph glyph-name="b.sc" 
d="M604 0h-393q-21 0 -21 20v1018q0 9 6 15t15 6h401q159 0 246.5 -75t87.5 -202q0 -91 -46.5 -150t-127.5 -85v-4q74 -14 133.5 -79t59.5 -171q0 -139 -93.5 -216t-267.5 -77zM608 590q108 0 167 49.5t59 132.5q0 86 -58.5 134t-167.5 48h-295q-12 0 -12 -12v-340
q0 -12 12 -12h295zM614 104q117 0 178.5 50t61.5 141q0 90 -62 141t-178 51h-301q-12 0 -12 -12v-358q0 -13 12 -13h301z" />
    <glyph glyph-name="c.sc" horiz-adv-x="991" 
d="M535 -20q-140 0 -241 69.5t-142 198.5q-31 110 -31 280q0 173 31 283q41 128 142.5 198t240.5 70q108 0 200 -51t144 -151q4 -8 1 -16t-12 -13l-57 -31q-19 -9 -29 8q-87 145 -247 148q-100 0 -172.5 -50t-102.5 -145q-27 -83 -27 -250q0 -163 27 -249
q30 -94 102.5 -143.5t172.5 -49.5q162 3 247 145q10 20 29 11l57 -31q9 -5 12 -13t-1 -16q-52 -100 -144 -151t-200 -51z" />
    <glyph glyph-name="d.sc" horiz-adv-x="1122" 
d="M578 0h-367q-21 0 -21 20v1018q0 9 6 15t15 6h367q302 0 374 -234q29 -82 29 -297q0 -212 -29 -297q-72 -231 -374 -231zM555 106q117 0 189 38t102 126q22 62 22 258q0 195 -22 260q-30 87 -102.5 125.5t-188.5 38.5h-242q-12 0 -12 -12v-821q0 -13 12 -13h242z" />
    <glyph glyph-name="e.sc" horiz-adv-x="1028" 
d="M881 0h-670q-21 0 -21 20v1018q0 9 6 15t15 6h670q20 0 20 -21v-65q0 -21 -20 -21h-568q-12 0 -12 -12v-338q0 -12 12 -12h484q20 0 20 -21v-65q0 -21 -20 -21h-484q-12 0 -12 -12v-352q0 -13 12 -13h568q20 0 20 -20v-66q0 -20 -20 -20z" />
    <glyph glyph-name="f.sc" horiz-adv-x="1007" 
d="M281 0h-70q-21 0 -21 20v1018q0 9 6 15t15 6h670q20 0 20 -21v-65q0 -21 -20 -21h-568q-12 0 -12 -12v-350q0 -12 12 -12h484q20 0 20 -21v-65q0 -21 -20 -21h-484q-12 0 -12 -12v-439q0 -20 -20 -20z" />
    <glyph glyph-name="g.sc" horiz-adv-x="1073" 
d="M537 -20q-139 0 -241.5 70t-143.5 198q-31 110 -31 280q0 173 31 283q41 128 143.5 198t241.5 70q129 0 221 -54.5t141 -147.5q12 -19 -8 -29l-57 -31q-21 -7 -29 10q-92 146 -268 146q-101 0 -174 -50t-103 -145q-27 -83 -27 -250q0 -161 27 -247q30 -95 103 -145
t174 -50q104 0 176 48.5t104 144.5q23 71 23 155q0 12 -13 12h-249q-21 0 -21 17v65q0 19 21 19h356q16 0 16 -19v-26q0 -161 -30 -256q-39 -127 -141 -196.5t-242 -69.5z" />
    <glyph glyph-name="h.sc" horiz-adv-x="1181" 
d="M971 0h-70q-20 0 -20 20v451q0 12 -13 12h-555q-12 0 -12 -12v-451q0 -20 -20 -20h-70q-21 0 -21 20v1018q0 9 6 15t15 6h70q20 0 20 -21v-438q0 -12 12 -12h555q13 0 13 12v438q0 21 20 21h70q20 0 20 -21v-1018q0 -20 -20 -20z" />
    <glyph glyph-name="i.sc" horiz-adv-x="491" 
d="M281 0h-70q-21 0 -21 20v1018q0 9 6 15t15 6h70q20 0 20 -21v-1018q0 -20 -20 -20z" />
    <glyph glyph-name="j.sc" horiz-adv-x="868" 
d="M350 -20q-82 0 -156.5 29.5t-117.5 72.5q-15 15 2 29l51 43q11 14 29 0q32 -27 85.5 -47.5t108.5 -20.5q219 0 219 248v704q0 9 6 15t15 6h70q20 0 20 -21v-706q0 -171 -86 -261.5t-246 -90.5z" />
    <glyph glyph-name="k.sc" horiz-adv-x="1103" 
d="M991 0h-88q-17 0 -29 18l-342 539l-231 -250v-287q0 -20 -20 -20h-70q-21 0 -21 20v1018q0 9 6 15t15 6h70q20 0 20 -21v-589l533 589q18 21 34 21h90q9 0 13 -7.5t-2 -15.5l-363 -395l398 -618q5 -9 1 -16t-14 -7z" />
    <glyph glyph-name="l.sc" horiz-adv-x="968" 
d="M854 0h-643q-21 0 -21 20v1018q0 9 6 15t15 6h70q20 0 20 -21v-919q0 -13 12 -13h541q20 0 20 -20v-66q0 -20 -20 -20z" />
    <glyph glyph-name="m.sc" horiz-adv-x="1359" 
d="M1149 0h-66q-20 0 -20 20v779h-6l-324 -623q-11 -22 -35 -22h-36q-24 0 -35 22l-324 623h-6v-779q0 -20 -21 -20h-65q-21 0 -21 20v1018q0 9 6 15t15 6h70q19 0 28 -21l371 -731h6l367 731q9 21 28 21h68q20 0 20 -21v-1018q0 -20 -20 -20z" />
    <glyph glyph-name="n.sc" horiz-adv-x="1185" 
d="M975 0h-68q-21 0 -33 20l-573 832h-4v-832q0 -20 -21 -20h-65q-21 0 -21 20v1018q0 9 6 15t15 6h65q20 0 35 -21l574 -831h4v831q0 21 20 21h66q20 0 20 -21v-1018q0 -20 -20 -20z" />
    <glyph glyph-name="o.sc" horiz-adv-x="1071" 
d="M121 530q0 183 31 281q39 128 141.5 198t243.5 70q140 0 242 -70t141 -198q30 -95 30 -281q0 -187 -30 -282q-39 -128 -141 -198t-242 -70q-141 0 -243.5 70t-141.5 198q-31 98 -31 282zM838 530q0 168 -25 248q-32 96 -103.5 145.5t-172.5 49.5q-102 0 -174.5 -49.5
t-104.5 -145.5q-25 -80 -25 -248q0 -169 25 -249q32 -96 104.5 -145.5t174.5 -49.5q101 0 172.5 49.5t103.5 145.5q25 80 25 249z" />
    <glyph glyph-name="p.sc" horiz-adv-x="1064" 
d="M281 0h-70q-21 0 -21 20v1018q0 9 6 15t15 6h399q167 0 263 -83.5t96 -223.5q0 -141 -96 -224.5t-263 -83.5h-297q-12 0 -12 -12v-412q0 -20 -20 -20zM608 551q121 0 184.5 52.5t63.5 148.5t-63.5 148t-184.5 52h-295q-12 0 -12 -12v-377q0 -12 12 -12h295z" />
    <glyph glyph-name="q.sc" horiz-adv-x="1071" 
d="M121 530q0 183 31 281q39 128 141.5 198t243.5 70q140 0 242 -70t141 -198q30 -95 30 -281q0 -187 -30 -282q-21 -68 -62 -121l111 -109q14 -14 0 -28l-39 -45q-6 -6 -14.5 -6t-14.5 6l-115 110q-104 -75 -249 -75q-141 0 -243.5 70t-141.5 198q-31 98 -31 282zM838 530
q0 168 -25 248q-32 96 -103.5 145.5t-172.5 49.5q-102 0 -174.5 -49.5t-104.5 -145.5q-25 -80 -25 -248q0 -169 25 -249q32 -96 104.5 -145.5t174.5 -49.5t172 49l-117 115q-15 15 -2 31l41 45q14 14 28 0l121 -119q18 28 35 74q23 73 23 249z" />
    <glyph glyph-name="r.sc" horiz-adv-x="1114" 
d="M967 0h-88q-17 0 -27 18l-236 441h-303q-12 0 -12 -13v-426q0 -20 -20 -20h-70q-21 0 -21 20v1018q0 9 6 15t15 6h410q161 0 251.5 -82t90.5 -219q0 -110 -59.5 -185.5t-168.5 -101.5l242 -448q6 -9 2.5 -16t-12.5 -7zM616 563q115 0 175.5 51.5t60.5 143.5t-60.5 143
t-175.5 51h-303q-12 0 -12 -12v-365q0 -12 12 -12h303z" />
    <glyph glyph-name="s.sc" horiz-adv-x="1007" 
d="M489 -20q-113 0 -220 35.5t-171 88.5q-16 16 -2 29l47 55q12 15 29 2q62 -45 149 -74.5t181 -29.5q133 0 208.5 54.5t75.5 146.5q0 78 -58 124.5t-206 65.5l-61 8q-171 23 -252.5 95t-81.5 194q0 140 99 222.5t266 82.5q96 0 185.5 -26t151.5 -68q8 -5 9.5 -13t-4.5 -16
l-35 -55q-12 -14 -29 -4q-140 76 -281 76q-119 0 -183 -52t-64 -139q0 -79 60 -125.5t204 -66.5l61 -8q170 -23 251 -94t81 -193q0 -142 -106 -228.5t-304 -86.5z" />
    <glyph glyph-name="t.sc" horiz-adv-x="925" 
d="M498 0h-70q-20 0 -20 20v920q0 12 -13 12h-325q-9 0 -15 6t-6 15v65q0 9 6 15t15 6h786q9 0 15 -6t6 -15v-65q0 -9 -6 -15t-15 -6h-326q-12 0 -12 -12v-920q0 -20 -20 -20z" />
    <glyph glyph-name="u.sc" horiz-adv-x="1150" 
d="M575 -20q-183 0 -291 107t-108 300v651q0 9 6 15t15 6h69q9 0 15 -6t6 -15v-649q0 -148 76.5 -225.5t211.5 -77.5t212 77.5t77 225.5v649q0 9 6 15t15 6h69q9 0 15 -6t6 -15v-651q0 -193 -108.5 -300t-291.5 -107z" />
    <glyph glyph-name="v.sc" horiz-adv-x="993" 
d="M532 0h-69q-13 0 -19 18l-383 1012q-4 13 0.5 21t14.5 8h69q20 0 29 -21l326 -856h4l317 856q9 21 29 21h68q9 0 13.5 -8t0.5 -21l-379 -1012q-6 -18 -21 -18z" />
    <glyph glyph-name="w.sc" horiz-adv-x="1445" 
d="M1079 0h-61q-19 0 -25 20l-268 832h-4l-268 -832q-6 -20 -25 -20h-61q-17 0 -23 20l-281 1012q-6 27 19 27h63q23 0 29 -21l227 -827h5l264 827q7 21 22 21h62q15 0 22 -21l271 -827h2l223 827q6 21 28 21h64q24 0 18 -27l-280 -1012q-6 -20 -23 -20z" />
    <glyph glyph-name="x.sc" horiz-adv-x="960" 
d="M885 0h-86q-18 0 -29 16l-289 428h-2l-289 -428q-13 -16 -30 -16h-84q-9 0 -12.5 7t2.5 16l352 530l-318 483q-6 8 -2 15.5t13 7.5h84q17 0 28 -19l256 -376h2l256 376q11 19 31 19h82q9 0 12 -7.5t-2 -15.5l-315 -483l350 -530q5 -9 2 -16t-12 -7z" />
    <glyph glyph-name="y.sc" horiz-adv-x="915" 
d="M494 0h-70q-21 0 -21 20v414l-340 594q-7 14 -1.5 22.5t16.5 8.5h72q17 0 32 -21l279 -473h2l274 473q15 21 33 21h68q11 0 16 -8.5t-2 -22.5l-338 -594v-414q0 -20 -20 -20z" />
    <glyph glyph-name="z.sc" horiz-adv-x="952" 
d="M821 0h-696q-21 0 -21 20v66q0 9 11 27l594 835v4h-539q-20 0 -20 21v65q0 21 20 21h651q9 0 15 -6t6 -15v-65q0 -13 -11 -27l-591 -837v-3h581q21 0 21 -20v-66q0 -20 -21 -20z" />
    <glyph glyph-name="agrave.sc" horiz-adv-x="1050" 
d="M545 1225h-51q-20 0 -37 20l-181 250q-6 7 -2 14t13 7h78q20 0 32 -21l158 -250q6 -9 2.5 -14.5t-12.5 -5.5zM971 0h-74q-18 0 -27 20l-94 242h-502l-96 -242q-9 -20 -24 -20h-74q-9 0 -13 5.5t-1 14.5l401 1018q7 21 25 21h71q18 0 25 -21l397 -1018q3 -9 -1 -14.5
t-13 -5.5zM526 897l-211 -530h420l-205 530h-4z" />
    <glyph glyph-name="aacute.sc" horiz-adv-x="1050" 
d="M971 0h-74q-18 0 -27 20l-94 242h-502l-96 -242q-9 -20 -24 -20h-74q-9 0 -13 5.5t-1 14.5l401 1018q7 21 25 21h71q18 0 25 -21l397 -1018q3 -9 -1 -14.5t-13 -5.5zM526 897l-211 -530h420l-205 530h-4zM563 1225h-51q-9 0 -12.5 5.5t0.5 14.5l157 250q12 21 35 21h78
q9 0 12.5 -7t-2.5 -14l-180 -250q-17 -20 -37 -20z" />
    <glyph glyph-name="acircumflex.sc" horiz-adv-x="1050" 
d="M971 0h-74q-18 0 -27 20l-94 242h-502l-96 -242q-9 -20 -24 -20h-74q-9 0 -13 5.5t-1 14.5l401 1018q7 21 25 21h71q18 0 25 -21l397 -1018q3 -9 -1 -14.5t-13 -5.5zM526 897l-211 -530h420l-205 530h-4zM758 1225h-51q-20 0 -35 20l-146 174h-4l-143 -174
q-17 -20 -35 -20h-51q-9 0 -11.5 6.5t3.5 13.5l184 252q14 19 33 19h47q17 0 31 -19l186 -252q6 -7 3.5 -13.5t-11.5 -6.5z" />
    <glyph glyph-name="atilde.sc" horiz-adv-x="1050" 
d="M633 1303q-49 0 -123 40q-61 37 -100 37q-33 0 -59.5 -16.5t-59.5 -50.5q-7 -6 -13 -4t-6 10v61q0 13 17 33q58 62 125 62q58 0 123 -43q61 -37 100 -37q33 0 60 16.5t61 50.5q6 6 11 4t5 -10v-61q0 -17 -14 -31q-58 -61 -127 -61zM971 0h-74q-18 0 -27 20l-94 242h-502
l-96 -242q-9 -20 -24 -20h-74q-9 0 -13 5.5t-1 14.5l401 1018q7 21 25 21h71q18 0 25 -21l397 -1018q3 -9 -1 -14.5t-13 -5.5zM526 897l-211 -530h420l-205 530h-4z" />
    <glyph glyph-name="adieresis.sc" horiz-adv-x="1050" 
d="M971 0h-74q-18 0 -27 20l-94 242h-502l-96 -242q-9 -20 -24 -20h-74q-9 0 -13 5.5t-1 14.5l401 1018q7 21 25 21h71q18 0 25 -21l397 -1018q3 -9 -1 -14.5t-13 -5.5zM526 897l-211 -530h420l-205 530h-4zM768 1319h-82q-20 0 -20 20v115q0 21 20 21h82q20 0 20 -21v-115
q0 -20 -20 -20zM360 1319h-81q-21 0 -21 20v115q0 9 6 15t15 6h81q9 0 15 -6t6 -15v-115q0 -20 -21 -20z" />
    <glyph glyph-name="amacron.sc" horiz-adv-x="1050" 
d="M971 0h-74q-18 0 -27 20l-94 242h-502l-96 -242q-9 -20 -24 -20h-74q-9 0 -13 5.5t-1 14.5l401 1018q7 21 25 21h71q18 0 25 -21l397 -1018q3 -9 -1 -14.5t-13 -5.5zM526 897l-211 -530h420l-205 530h-4zM770 1348h-491q-21 0 -21 20v53q0 9 6 15t15 6h491q9 0 15 -6
t6 -15v-53q0 -20 -21 -20z" />
    <glyph glyph-name="abreve.sc" horiz-adv-x="1050" 
d="M524 1249q-103 0 -172.5 59t-81.5 154q-1 9 4.5 15t14.5 6h39q17 0 24 -21q35 -123 172 -123q138 0 176 123q7 21 23 21h39q9 0 14 -6t4 -15q-14 -95 -83 -154t-173 -59zM971 0h-74q-18 0 -27 20l-94 242h-502l-96 -242q-9 -20 -24 -20h-74q-9 0 -13 5.5t-1 14.5
l401 1018q7 21 25 21h71q18 0 25 -21l397 -1018q3 -9 -1 -14.5t-13 -5.5zM526 897l-211 -530h420l-205 530h-4z" />
    <glyph glyph-name="aring.sc" horiz-adv-x="1050" 
d="M524 1188q-77 0 -128.5 52t-51.5 130t51.5 130t128.5 52q78 0 129.5 -52t51.5 -130t-51.5 -130t-129.5 -52zM524 1257q49 0 80 31.5t31 81.5t-31 81.5t-80 31.5q-47 0 -78.5 -32t-31.5 -81t31.5 -81t78.5 -32zM971 0h-74q-18 0 -27 20l-94 242h-502l-96 -242
q-9 -20 -24 -20h-74q-9 0 -13 5.5t-1 14.5l401 1018q7 21 25 21h71q18 0 25 -21l397 -1018q3 -9 -1 -14.5t-13 -5.5zM526 897l-211 -530h420l-205 530h-4z" />
    <glyph glyph-name="aringacute.sc" horiz-adv-x="1050" 
d="M551 1450h-53q-9 0 -12 5.5t3 14.5l168 213q15 21 37 21h80q9 0 12.5 -7t-2.5 -14l-196 -215q-16 -18 -37 -18zM705 1171q0 -57 -28 -100t-77 -65l385 -986q3 -9 -1 -14.5t-13 -5.5h-74q-18 0 -27 20l-94 242h-502l-96 -242q-9 -20 -24 -20h-74q-9 0 -13 5.5t-1 14.5
l389 984q-51 21 -81 64.5t-30 102.5q0 78 51 129.5t129 51.5t129.5 -51.5t51.5 -129.5zM633 1171q0 50 -30 82.5t-79 32.5t-78.5 -32.5t-29.5 -82.5t29.5 -82t78.5 -32t79 32t30 82zM526 897l-211 -530h420l-205 530h-4z" />
    <glyph glyph-name="aogonek.sc" horiz-adv-x="1050" 
d="M807 -199q0 -57 59 -57q28 0 58 18q16 10 26 -6l23 -43q6 -15 -8 -26q-53 -39 -115 -39q-65 0 -104 37t-39 102q0 54 37 106.5t130 116.5l-98 252h-502l-96 -242q-9 -20 -24 -20h-74q-9 0 -13 5.5t-1 14.5l401 1018q7 21 27 21h67q20 0 27 -21l397 -1018q6 -14 -8 -22
q-99 -70 -134.5 -114.5t-35.5 -82.5zM735 367l-205 530h-4l-211 -530h420z" />
    <glyph glyph-name="ae.sc" horiz-adv-x="1595" 
d="M1448 0h-668q-20 0 -20 20v230q0 12 -12 12h-414l-148 -242q-11 -20 -30 -20h-78q-9 0 -12.5 6t0.5 14l616 1018q14 21 33 21h733q20 0 20 -21v-65q0 -21 -20 -21h-565q-13 0 -13 -12v-338q0 -12 13 -12h483q20 0 20 -21v-65q0 -21 -20 -21h-483q-13 0 -13 -12v-352
q0 -13 13 -13h565q20 0 20 -20v-66q0 -20 -20 -20zM754 952l-357 -585h351q12 0 12 12v573h-6z" />
    <glyph glyph-name="aeacute.sc" horiz-adv-x="1595" 
d="M1448 0h-668q-20 0 -20 20v230q0 12 -12 12h-414l-148 -242q-11 -20 -30 -20h-78q-9 0 -12.5 6t0.5 14l616 1018q14 21 33 21h733q20 0 20 -21v-65q0 -21 -20 -21h-565q-13 0 -13 -12v-338q0 -12 13 -12h483q20 0 20 -21v-65q0 -21 -20 -21h-483q-13 0 -13 -12v-352
q0 -13 13 -13h565q20 0 20 -20v-66q0 -20 -20 -20zM754 952l-357 -585h351q12 0 12 12v573h-6zM870 1225h-51q-9 0 -12.5 5.5t0.5 14.5l158 250q12 21 34 21h78q9 0 12.5 -7t-2.5 -14l-180 -250q-17 -20 -37 -20z" />
    <glyph glyph-name="cacute.sc" horiz-adv-x="991" 
d="M510 1225h-51q-9 0 -13 5.5t0 14.5l158 250q12 21 35 21h78q9 0 12.5 -7t-2.5 -14l-180 -250q-17 -20 -37 -20zM535 -20q-140 0 -241 69.5t-142 198.5q-31 110 -31 280q0 173 31 283q41 128 142.5 198t240.5 70q108 0 200 -51t144 -151q4 -8 1 -16t-12 -13l-57 -31
q-19 -9 -29 8q-87 145 -247 148q-100 0 -172.5 -50t-102.5 -145q-27 -83 -27 -250q0 -163 27 -249q30 -94 102.5 -143.5t172.5 -49.5q162 3 247 145q10 20 29 11l57 -31q9 -5 12 -13t-1 -16q-52 -100 -144 -151t-200 -51z" />
    <glyph glyph-name="ccircumflex.sc" horiz-adv-x="991" 
d="M535 -20q-140 0 -241 69.5t-142 198.5q-31 110 -31 280q0 173 31 283q41 128 142.5 198t240.5 70q108 0 200 -51t144 -151q4 -8 1 -16t-12 -13l-57 -31q-19 -9 -29 8q-87 145 -247 148q-100 0 -172.5 -50t-102.5 -145q-27 -83 -27 -250q0 -163 27 -249
q30 -94 102.5 -143.5t172.5 -49.5q162 3 247 145q10 20 29 11l57 -31q9 -5 12 -13t-1 -16q-52 -100 -144 -151t-200 -51zM762 1225h-51q-20 0 -35 20l-146 174h-4l-143 -174q-17 -20 -35 -20h-51q-9 0 -11.5 6.5t3.5 13.5l184 252q14 19 33 19h47q17 0 31 -19l186 -252
q6 -7 3.5 -13.5t-11.5 -6.5z" />
    <glyph glyph-name="ccaron.sc" horiz-adv-x="991" 
d="M551 1225h-47q-19 0 -33 20l-184 250q-6 7 -3.5 14t11.5 7h51q17 0 35 -21l143 -174h4l146 174q16 21 35 21h51q9 0 11.5 -7t-3.5 -14l-186 -250q-14 -20 -31 -20zM535 -20q-140 0 -241 69.5t-142 198.5q-31 110 -31 280q0 173 31 283q41 128 142.5 198t240.5 70
q108 0 200 -51t144 -151q4 -8 1 -16t-12 -13l-57 -31q-19 -9 -29 8q-87 145 -247 148q-100 0 -172.5 -50t-102.5 -145q-27 -83 -27 -250q0 -163 27 -249q30 -94 102.5 -143.5t172.5 -49.5q162 3 247 145q10 20 29 11l57 -31q9 -5 12 -13t-1 -16q-52 -100 -144 -151t-200 -51
z" />
    <glyph glyph-name="cdotaccent.sc" horiz-adv-x="991" 
d="M573 1319h-90q-20 0 -20 20v115q0 21 20 21h90q9 0 15 -6t6 -15v-115q0 -20 -21 -20zM535 -20q-140 0 -241 69.5t-142 198.5q-31 110 -31 280q0 173 31 283q41 128 142.5 198t240.5 70q108 0 200 -51t144 -151q4 -8 1 -16t-12 -13l-57 -31q-19 -9 -29 8q-87 145 -247 148
q-100 0 -172.5 -50t-102.5 -145q-27 -83 -27 -250q0 -163 27 -249q30 -94 102.5 -143.5t172.5 -49.5q162 3 247 145q10 20 29 11l57 -31q9 -5 12 -13t-1 -16q-52 -100 -144 -151t-200 -51z" />
    <glyph glyph-name="ccedilla.sc" horiz-adv-x="991" 
d="M453 -303h-64q-9 0 -13 5.5t-1 14.5l102 267q-118 12 -203.5 80t-121.5 184q-31 110 -31 280q0 173 31 283q41 128 142.5 198t240.5 70q108 0 200 -51t144 -151q4 -8 1 -16t-12 -13l-57 -31q-19 -9 -29 8q-87 145 -247 148q-100 0 -172.5 -50t-102.5 -145
q-27 -83 -27 -250q0 -163 27 -249q30 -94 102.5 -143.5t172.5 -49.5q162 3 247 145q10 20 29 11l57 -31q9 -5 12 -13t-1 -16q-47 -91 -127.5 -140.5t-178.5 -59.5l-88 -265q-7 -20 -32 -20z" />
    <glyph glyph-name="dcaron.sc" horiz-adv-x="1122" 
d="M578 0h-367q-21 0 -21 20v1018q0 9 6 15t15 6h367q302 0 374 -234q29 -82 29 -297q0 -212 -29 -297q-72 -231 -374 -231zM555 106q117 0 189 38t102 126q22 62 22 258q0 195 -22 260q-30 87 -102.5 125.5t-188.5 38.5h-242q-12 0 -12 -12v-821q0 -13 12 -13h242z
M569 1225h-47q-19 0 -33 20l-184 250q-6 7 -3.5 14t11.5 7h52q16 0 34 -21l144 -174h4l145 174q16 21 35 21h51q9 0 11.5 -7t-3.5 -14l-186 -250q-14 -20 -31 -20z" />
    <glyph glyph-name="dcroat.sc" horiz-adv-x="1122" 
d="M578 0h-367q-21 0 -21 20v453q0 12 -12 12h-67q-9 0 -15 6t-6 15v61q0 9 6 15t15 6h67q12 0 12 12v438q0 9 6 15t15 6h367q302 0 374 -234q29 -82 29 -297q0 -212 -29 -297q-72 -231 -374 -231zM555 106q117 0 189 38t102 126q22 62 22 258q0 195 -22 260
q-30 87 -102.5 125.5t-188.5 38.5h-242q-12 0 -12 -12v-340q0 -12 12 -12h217q9 0 15 -6t6 -15v-61q0 -9 -6 -15t-15 -6h-217q-12 0 -12 -12v-354q0 -13 12 -13h242z" />
    <glyph glyph-name="eth.sc" horiz-adv-x="1122" 
d="M578 0h-367q-21 0 -21 20v453q0 12 -12 12h-67q-9 0 -15 6t-6 15v61q0 9 6 15t15 6h67q12 0 12 12v438q0 9 6 15t15 6h367q302 0 374 -234q29 -82 29 -297q0 -212 -29 -297q-72 -231 -374 -231zM555 106q117 0 189 38t102 126q22 62 22 258q0 195 -22 260
q-30 87 -102.5 125.5t-188.5 38.5h-242q-12 0 -12 -12v-340q0 -12 12 -12h217q9 0 15 -6t6 -15v-61q0 -9 -6 -15t-15 -6h-217q-12 0 -12 -12v-354q0 -13 12 -13h242z" />
    <glyph glyph-name="egrave.sc" horiz-adv-x="1028" 
d="M610 1225h-51q-20 0 -37 20l-180 250q-6 7 -2.5 14t12.5 7h78q21 0 33 -21l158 -250q6 -9 2 -14.5t-13 -5.5zM881 0h-670q-21 0 -21 20v1018q0 9 6 15t15 6h670q20 0 20 -21v-65q0 -21 -20 -21h-568q-12 0 -12 -12v-338q0 -12 12 -12h484q20 0 20 -21v-65q0 -21 -20 -21
h-484q-12 0 -12 -12v-352q0 -13 12 -13h568q20 0 20 -20v-66q0 -20 -20 -20z" />
    <glyph glyph-name="eacute.sc" horiz-adv-x="1028" 
d="M516 1225h-51q-9 0 -12.5 5.5t0.5 14.5l157 250q12 21 35 21h78q9 0 12.5 -7t-2.5 -14l-180 -250q-17 -20 -37 -20zM881 0h-670q-21 0 -21 20v1018q0 9 6 15t15 6h670q20 0 20 -21v-65q0 -21 -20 -21h-568q-12 0 -12 -12v-338q0 -12 12 -12h484q20 0 20 -21v-65
q0 -21 -20 -21h-484q-12 0 -12 -12v-352q0 -13 12 -13h568q20 0 20 -20v-66q0 -20 -20 -20z" />
    <glyph glyph-name="ecircumflex.sc" horiz-adv-x="1028" 
d="M881 0h-670q-21 0 -21 20v1018q0 9 6 15t15 6h670q20 0 20 -21v-65q0 -21 -20 -21h-568q-12 0 -12 -12v-338q0 -12 12 -12h484q20 0 20 -21v-65q0 -21 -20 -21h-484q-12 0 -12 -12v-352q0 -13 12 -13h568q20 0 20 -20v-66q0 -20 -20 -20zM776 1225h-51q-20 0 -35 20
l-145 174h-4l-144 -174q-17 -20 -35 -20h-51q-9 0 -11.5 6.5t3.5 13.5l184 252q14 19 33 19h47q17 0 31 -19l186 -252q6 -7 3.5 -13.5t-11.5 -6.5z" />
    </font>
</defs>
</svg>
